SplineFontDB: 1.0
FontName: Loma-BoldOblique
FullName: Loma Bold Oblique
FamilyName: Loma
Weight: Bold
Copyright: Copyright (c) NECTEC, 2003. All rights reserved.
Version: 0.9.6: 2007-03-22
ItalicAngle: -12
UnderlinePosition: -170
UnderlineWidth: 10
Ascent: 1638
Descent: 410
NeedsXUIDChange: 1
FSType: 0
OS2Version: 0
OS2_WeightWidthSlopeOnly: 0
OS2_UseTypoMetrics: 0
CreationTime: 1153662534
ModificationTime: 1174572608
PfmFamily: 33
TTFWeight: 700
TTFWidth: 5
LineGap: 0
VLineGap: 0
Panose: 2 11 6 4 2 2 2 2 2 4
OS2TypoAscent: 0
OS2TypoAOffset: 1
OS2TypoDescent: 0
OS2TypoDOffset: 1
OS2TypoLinegap: 0
OS2WinAscent: 0
OS2WinAOffset: 1
OS2WinDescent: 0
OS2WinDOffset: 1
HheadAscent: 0
HheadAOffset: 1
HheadDescent: 0
HheadDOffset: 1
OS2Vendor: 'PfEd'
ScriptLang: 3
 1 latn 1 dflt 
 1 thai 4 KUY  PAL  THA  dflt 
 1 thai 1 PAL  
ChainSub: class 0 1 'ccmp' 8 8 1 10
  Class: 414 uni0E01 uni0E02 uni0E03 uni0E04 uni0E05 uni0E06 uni0E07 uni0E08 uni0E09 uni0E0A uni0E0B uni0E0C uni0E0D uni0E0E uni0E0F uni0E10 uni0E11 uni0E12 uni0E13 uni0E14 uni0E15 uni0E16 uni0E17 uni0E18 uni0E19 uni0E1A uni0E1B uni0E1C uni0E1D uni0E1E uni0E1F uni0E20 uni0E21 uni0E22 uni0E23 uni0E24 uni0E25 uni0E26 uni0E27 uni0E28 uni0E29 uni0E2A uni0E2B uni0E2C uni0E2D uni0E2E uni0E10.descless uni0E0D.descless dottedcircle
  Class: 7 uni0E33
  Class: 7 uni0E48
  Class: 7 uni0E49
  Class: 7 uni0E4A
  Class: 7 uni0E4B
  Class: 7 uni0E4C
  BClass: 414 uni0E01 uni0E02 uni0E03 uni0E04 uni0E05 uni0E06 uni0E07 uni0E08 uni0E09 uni0E0A uni0E0B uni0E0C uni0E0D uni0E0E uni0E0F uni0E10 uni0E11 uni0E12 uni0E13 uni0E14 uni0E15 uni0E16 uni0E17 uni0E18 uni0E19 uni0E1A uni0E1B uni0E1C uni0E1D uni0E1E uni0E1F uni0E20 uni0E21 uni0E22 uni0E23 uni0E24 uni0E25 uni0E26 uni0E27 uni0E28 uni0E29 uni0E2A uni0E2B uni0E2C uni0E2D uni0E2E uni0E10.descless uni0E0D.descless dottedcircle
  BClass: 7 uni0E33
  BClass: 7 uni0E48
  BClass: 7 uni0E49
  BClass: 7 uni0E4A
  BClass: 7 uni0E4B
  BClass: 7 uni0E4C
 1 1 0
  ClsList: 2
  BClsList: 1

StartChar: .notdef
Encoding: 0 -1 0
Width: 1536
Flags: W
HStem: 0 32<295 1255> 1248 32<553 1513>
Fore
256 0 m 1
 528 1280 l 1
 1552 1280 l 1
 1280 0 l 1
 256 0 l 1
295 32 m 1
 1255 32 l 1
 1513 1248 l 1
 553 1248 l 1
 295 32 l 1
EndSplineSet
EndChar
StartChar: uni0E4D.high
Encoding: 271 63262 2
Width: 0
VWidth: 2561
Flags: W
TeX: 0 0 0 0
VStem: -20 314<1840.66 1914.05 1875 1875>
AnchorPoint: "AboveMark" 108 1740 mark 0
Fore
172 2035 m 0
 215 2035 248 2020 273 1989 c 1
 296 1957 303 1919 294 1875 c 0
 284 1832 262 1796 225 1765 c 0
 188 1734 147 1719 104 1719 c 0
 61 1719 28 1734 3 1765 c 0
 -21 1796 -30 1832 -20 1875 c 0
 -11 1919 13 1957 51 1989 c 0
 88 2020 129 2035 172 2035 c 0
126 1823 m 0
 149 1823 168 1833 182 1853 c 0
 186 1860 190 1867 192 1875 c 0
 196 1897 190 1913 172 1923 c 0
 165 1926 158 1928 149 1928 c 0
 126 1928 108 1918 93 1898 c 1
 84 1879 l 1
 84 1875 l 2
 79 1853 85 1837 105 1828 c 0
 111 1825 118 1823 126 1823 c 0
EndSplineSet
EndChar
StartChar: exclam
Encoding: 3 33 5
Width: 569
Flags: W
HStem: 0 194<218 400> 1430 20G<477 716>
VStem: 177 539<0 1450>
Fore
381 999 m 1
 477 1450 l 1
 716 1450 l 1
 620 999 l 1
 443 365 l 1
 291 365 l 1
 381 999 l 1
218 194 m 1
 441 194 l 1
 400 0 l 1
 177 0 l 1
 218 194 l 1
EndSplineSet
EndChar
StartChar: quotedbl
Encoding: 4 34 6
Width: 727
Flags: W
HStem: 1430 20G<414 644 697 927>
VStem: 357 570<947 1450>
Fore
357 947 m 1
 365 1217 l 1
 414 1450 l 1
 644 1450 l 1
 595 1217 l 1
 492 947 l 1
 357 947 l 1
638 947 m 1
 648 1217 l 1
 697 1450 l 1
 927 1450 l 1
 878 1217 l 1
 773 947 l 1
 638 947 l 1
EndSplineSet
EndChar
StartChar: numbersign
Encoding: 5 35 7
Width: 1139
Flags: W
HStem: -10 21G<55 295 514 761> 355 240<147 219 540 677 998 1188> 865 240<256 432 753 882 1212 1297> 1450 20G<677 917 1136 1376>
Fore
55 -10 m 1
 219 355 l 1
 96 355 l 1
 147 595 l 1
 309 595 l 1
 432 865 l 1
 205 865 l 1
 256 1105 l 1
 513 1105 l 1
 677 1470 l 1
 917 1470 l 1
 753 1105 l 1
 972 1105 l 1
 1136 1470 l 1
 1376 1470 l 1
 1212 1105 l 1
 1348 1105 l 1
 1297 865 l 1
 1122 864 l 1
 998 595 l 1
 1239 595 l 1
 1188 355 l 1
 917 355 l 1
 761 -10 l 1
 514 -10 l 1
 677 355 l 1
 459 355 l 1
 295 -10 l 1
 55 -10 l 1
540 595 m 1
 758 595 l 1
 882 865 l 1
 663 865 l 1
 540 595 l 1
EndSplineSet
EndChar
StartChar: dollar
Encoding: 6 36 8
Width: 1139
Flags: W
Fore
454 -37 m 1
 407 -31 366 -21 329 -6 c 0
 190 51 130 167 152 344 c 1
 165 417 l 1
 374 417 l 1
 372 409 372 409 370 400 c 0
 360 355 358 316 364 284 c 0
 376 225 419 181 495 153 c 1
 594 621 l 1
 521 636 461 666 413 710 c 0
 326 789 296 896 325 1031 c 0
 344 1122 382 1199 438 1264 c 0
 521 1361 630 1416 766 1429 c 1
 778 1488 l 1
 980 1488 l 1
 968 1429 l 1
 1177 1405 1265 1279 1231 1050 c 1
 1028 1050 l 1
 1031 1072 1030 1094 1025 1116 c 0
 1014 1179 980 1220 927 1239 c 1
 838 820 l 1
 905 807 961 786 1006 755 c 0
 1121 679 1161 560 1126 397 c 0
 1102 282 1049 184 968 105 c 0
 879 18 775 -28 657 -35 c 1
 639 -118 l 1
 437 -118 l 1
 454 -37 l 1
726 1241 m 1
 715 1239 705 1237 695 1234 c 0
 627 1212 578 1164 551 1091 c 1
 538 1044 l 1
 535 1028 532 1013 532 999 c 0
 529 925 564 872 641 840 c 1
 726 1241 l 1
739 167 m 1
 781 186 l 1
 848 224 892 291 912 386 c 0
 918 413 920 437 919 458 c 1
 915 495 l 1
 903 546 861 580 791 599 c 1
 697 153 l 1
 739 167 l 1
EndSplineSet
EndChar
StartChar: percent
Encoding: 7 37 9
Width: 1821
Flags: W
HStem: -53 177<1361.5 1455.17> 546 175<1446.3 1543.8> 717 169<576.1 665.25> 1317 174<662.9 756.5>
Fore
356 1114 m 0xb0
 378 1219 423 1308 490 1380 c 0
 559 1454 643 1491 743 1491 c 0
 838 1491 908 1458 951 1392 c 0
 996 1323 1006 1227 980 1104 c 1
 954 986 902 890 828 817 c 1
 756 750 673 717 580 717 c 0
 489 717 423 750 381 815 c 0
 337 884 328 984 356 1114 c 0xb0
711 1317 m 0
 674 1317 643 1301 615 1270 c 0
 585 1235 560 1177 543 1096 c 0
 526 1018 527 964 544 933 c 0
 561 902 586 886 619 886 c 0
 654 886 688 902 717 933 c 0
 747 965 771 1023 789 1107 c 0
 806 1184 805 1239 789 1270 c 0
 773 1301 746 1317 711 1317 c 0
1487 1491 m 1
 1764 1491 l 1
 686 -10 l 1
 409 -10 l 1
 1487 1491 l 1
1140 344 m 0
 1162 449 1207 538 1275 610 c 0
 1343 684 1428 721 1529 721 c 0xd0
 1624 721 1693 688 1736 622 c 0
 1782 552 1793 456 1767 334 c 0
 1741 213 1690 117 1614 47 c 0
 1541 -20 1458 -53 1365 -53 c 0
 1272 -53 1205 -20 1165 46 c 0
 1121 117 1113 217 1140 344 c 0
1497 546 m 0
 1458 546 1425 530 1397 499 c 0
 1367 465 1344 408 1327 329 c 0
 1311 254 1312 202 1329 171 c 0
 1347 140 1372 124 1407 124 c 0
 1444 124 1478 140 1508 171 c 0
 1538 202 1562 258 1579 340 c 0
 1595 415 1594 468 1577 499 c 0
 1560 530 1533 546 1497 546 c 0
EndSplineSet
EndChar
StartChar: ampersand
Encoding: 8 38 10
Width: 1366
Flags: W
HStem: -22 207<508.643 658.572>
Fore
978 140 m 1
 954 119 928 100 901 83 c 0
 798 19 689 -16 571 -22 c 1
 505 -21 l 1
 375 -12 282 37 222 127 c 1
 169 210 152 302 174 403 c 0
 216 602 354 752 588 852 c 1
 571 879 558 902 548 921 c 0
 511 996 501 1076 519 1163 c 0
 539 1256 591 1334 674 1397 c 0
 758 1460 851 1491 954 1491 c 0
 1031 1491 1096 1471 1146 1431 c 1
 1175 1403 l 1
 1229 1343 1247 1268 1227 1178 c 0
 1226 1171 1224 1163 1222 1156 c 0
 1186 1020 1076 908 895 821 c 1
 1037 522 l 1
 1079 579 1117 648 1150 727 c 1
 1359 649 l 1
 1307 540 1244 442 1171 357 c 1
 1219 270 1279 195 1352 132 c 1
 1159 -67 l 1
 1097 -19 1037 50 978 140 c 1
818 983 m 1
 855 1000 884 1018 905 1035 c 0
 944 1066 970 1112 986 1171 c 0
 987 1172 988 1174 987 1176 c 0
 991 1196 990 1215 983 1232 c 0
 969 1267 941 1285 900 1286 c 0
 875 1286 851 1278 828 1263 c 0
 795 1240 773 1212 762 1177 c 0
 760 1167 l 0
 749 1114 768 1052 818 983 c 1
673 671 m 1
 642 655 617 640 595 626 c 0
 491 559 431 488 414 411 c 0
 402 354 410 301 438 253 c 0
 451 230 470 212 497 201 c 0
 520 190 548 185 579 185 c 0
 616 185 656 192 697 207 c 0
 771 233 828 273 869 326 c 1
 673 671 l 1
EndSplineSet
EndChar
StartChar: quotesingle
Encoding: 9 39 11
Width: 391
Flags: W
HStem: 1446 20G<373 636>
VStem: 308 328<947 1466>
Fore
308 947 m 1
 321 1221 l 1
 373 1466 l 1
 636 1466 l 1
 584 1221 l 1
 477 947 l 1
 308 947 l 1
EndSplineSet
EndChar
StartChar: parenleft
Encoding: 10 40 12
Width: 682
Flags: W
VStem: 170 803<135 1491>
Fore
344 -431 m 1
 246 -260 187 -71 170 135 c 0
 158 268 166 400 194 531 c 0
 245 773 350 999 509 1209 c 0
 573 1294 654 1388 753 1491 c 1
 973 1491 l 1
 846 1332 757 1211 706 1130 c 0
 599 961 522 768 474 549 c 0
 472 539 472 539 470 530 c 0
 401 209 433 -111 564 -431 c 1
 344 -431 l 1
EndSplineSet
EndChar
StartChar: parenright
Encoding: 11 41 13
Width: 682
Flags: W
VStem: -13 801<-431 1022>
Fore
209 -431 m 1
 -13 -431 l 1
 254 -111 422 209 491 530 c 0
 536 742 544 931 514 1097 c 0
 502 1164 463 1296 396 1491 c 1
 618 1491 l 1
 709 1321 766 1165 788 1022 c 0
 813 871 806 707 769 531 c 0
 716 283 595 36 405 -209 c 0
 343 -288 278 -362 209 -431 c 1
EndSplineSet
EndChar
StartChar: asterisk
Encoding: 12 42 14
Width: 797
Flags: W
HStem: 858 633<623 692>
VStem: 315 662<1176 1360>
Fore
315 1176 m 1
 395 1357 l 1
 551 1301 l 1
 562 1296 573 1290 583 1284 c 1
 587 1327 593 1365 600 1399 c 1
 623 1491 l 1
 800 1491 l 1
 775 1349 l 1
 769 1328 762 1305 754 1282 c 1
 798 1302 865 1326 955 1353 c 0
 967 1357 967 1357 977 1360 c 1
 972 1179 l 1
 888 1153 824 1137 777 1131 c 2
 753 1128 l 1
 778 1101 815 1048 864 967 c 2
 866 962 l 1
 692 858 l 1
 666 909 639 970 613 1041 c 1
 570 982 520 924 468 869 c 2
 460 862 l 1
 332 968 l 1
 425 1059 485 1115 512 1136 c 1
 350 1167 l 2
 339 1170 327 1173 315 1176 c 1
EndSplineSet
EndChar
StartChar: plus
Encoding: 13 43 15
Width: 1196
Flags: W
HStem: 611 226<292 613 891 1212>
VStem: 244 1016<611 837>
Fore
533 237 m 1
 613 611 l 1
 244 611 l 1
 292 837 l 1
 661 837 l 1
 739 1206 l 1
 969 1206 l 1
 891 837 l 1
 1260 837 l 1
 1212 611 l 1
 843 611 l 1
 763 237 l 1
 533 237 l 1
EndSplineSet
EndChar
StartChar: comma
Encoding: 14 44 16
Width: 569
Flags: W
VStem: 67 401<-207 231>
Fore
117 -22 m 1
 171 231 l 1
 468 231 l 1
 414 -22 l 2
 392 -127 353 -201 297 -246 c 0
 274 -265 243 -283 204 -300 c 1
 67 -207 l 1
 128 -182 176 -143 210 -88 c 0
 224 -67 233 -45 239 -22 c 1
 117 -22 l 1
EndSplineSet
EndChar
StartChar: hyphen
Encoding: 15 45 17
Width: 682
Flags: W
HStem: 388 266<204 700>
VStem: 147 610<388 654>
Fore
147 388 m 1
 204 654 l 1
 757 654 l 1
 700 388 l 1
 147 388 l 1
EndSplineSet
EndChar
StartChar: period
Encoding: 16 46 18
Width: 569
Flags: W
HStem: 0 220<201 430>
VStem: 154 323<0 220>
Fore
154 0 m 1
 201 220 l 1
 477 220 l 1
 430 0 l 1
 154 0 l 1
EndSplineSet
EndChar
StartChar: slash
Encoding: 17 47 19
Width: 595
Flags: W
HStem: -10 21G<-112 128> 1450 20G<789 1028>
Fore
-112 -10 m 1
 789 1470 l 1
 1028 1470 l 1
 128 -10 l 1
 -112 -10 l 1
EndSplineSet
EndChar
StartChar: zero
Encoding: 18 48 20
Width: 1139
Flags: W
HStem: 1213 269<752.399 980.7>
VStem: 242 954<698.178 773.44 736 736>
Fore
242 736 m 0
 274 886 314 1012 363 1115 c 0
 479 1360 651 1482 878 1482 c 0
 913 1482 944 1479 974 1473 c 0
 1217 1424 1290 1178 1196 736 c 0
 1162 575 1118 442 1065 337 c 0
 950 114 782 -1 561 -10 c 0
 548 -10 536 -10 524 -9 c 0
 235 10 141 259 242 736 c 0
496 735 m 0
 428 416 468 257 615 257 c 0
 629 258 643 259 657 262 c 0
 783 291 876 449 937 735 c 0
 944 765 949 794 954 821 c 0
 996 1082 950 1213 817 1213 c 0
 771 1213 730 1199 693 1171 c 0
 611 1108 544 962 496 735 c 0
EndSplineSet
EndChar
StartChar: one
Encoding: 19 49 21
Width: 1139
Flags: W
HStem: 0 21G<525 763> 1452 20G<838 1076>
VStem: 402 674<844 1472>
Fore
763 0 m 1
 525 0 l 1
 747 1045 l 1
 659 964 568 904 473 867 c 0
 448 857 424 849 402 844 c 1
 458 1104 l 1
 558 1147 635 1196 691 1253 c 0
 746 1308 795 1381 838 1472 c 1
 1076 1472 l 1
 763 0 l 1
EndSplineSet
KernsSLIFO: 21 -152 0 0
EndChar
StartChar: two
Encoding: 20 50 22
Width: 1139
Flags: W
HStem: 0 223<429 1031>
Fore
1078 223 m 1
 1031 0 l 1
 62 0 l 1
 95 112 159 223 256 332 c 0
 293 375 333 415 376 450 c 0
 414 482 518 559 685 682 c 0
 738 721 772 746 786 759 c 0
 896 850 967 932 999 1004 c 0
 1009 1027 1017 1050 1022 1074 c 0
 1023 1076 1023 1076 1023 1079 c 0
 1037 1146 1014 1198 956 1237 c 0
 920 1260 881 1272 839 1273 c 1
 796 1269 l 1
 723 1257 664 1225 618 1172 c 1
 593 1139 l 1
 574 1110 561 1076 552 1039 c 1
 317 1039 l 1
 346 1176 415 1285 525 1367 c 0
 628 1444 748 1482 887 1482 c 0
 1028 1482 1133 1443 1200 1365 c 0
 1264 1292 1283 1195 1257 1075 c 0
 1236 972 1169 861 1059 742 c 0
 1042 724 1042 724 1023 705 c 0
 976 658 895 592 779 509 c 0
 660 423 578 361 533 323 c 0
 492 288 457 255 429 223 c 1
 1078 223 l 1
EndSplineSet
EndChar
StartChar: three
Encoding: 21 51 23
Width: 1139
Flags: W
HStem: -9 215<529.4 708.033> 668 215<628 767.4> 1070 21G<331 560>
Fore
177 427 m 1
 407 427 l 1
 401 356 421 299 465 256 c 0
 501 223 545 206 597 206 c 0
 687 206 761 237 821 298 c 0
 861 339 887 388 900 445 c 0
 914 513 896 569 845 613 c 0
 802 650 747 668 679 668 c 0
 646 668 613 663 580 654 c 1
 628 882 l 1
 704 883 l 1
 821 891 902 935 944 1016 c 0
 957 1041 968 1071 975 1105 c 0
 984 1150 970 1189 931 1224 c 0
 898 1253 861 1268 819 1268 c 0
 744 1268 680 1242 629 1189 c 1
 603 1158 l 1
 585 1133 570 1103 560 1070 c 1
 331 1070 l 1
 354 1177 411 1270 503 1348 c 0
 595 1427 701 1471 818 1480 c 0
 832 1481 846 1482 860 1482 c 0
 979 1482 1072 1448 1139 1381 c 0
 1209 1310 1232 1216 1208 1101 c 0
 1183 984 1142 901 1082 850 c 1
 1050 827 l 1
 1029 814 1006 803 981 794 c 1
 1091 775 1149 712 1157 606 c 1
 1156 548 l 1
 1154 518 1149 485 1141 449 c 0
 1114 321 1047 214 942 129 c 0
 840 46 723 0 590 -9 c 0
 577 -10 563 -10 550 -10 c 0
 430 -10 334 26 261 98 c 0
 187 171 157 265 169 379 c 0
 171 395 173 411 177 427 c 1
EndSplineSet
EndChar
StartChar: four
Encoding: 22 52 24
Width: 1139
Flags: W
HStem: 0 21G<662 892> 327 225<438 732 1009 1140> 1452 20G<975 1205>
Fore
662 0 m 1
 732 327 l 1
 126 327 l 1
 173 552 l 1
 975 1472 l 1
 1205 1472 l 1
 1009 552 l 1
 1187 552 l 1
 1140 327 l 1
 962 327 l 1
 892 0 l 1
 662 0 l 1
779 552 m 1
 891 1077 l 1
 438 552 l 1
 779 552 l 1
EndSplineSet
EndChar
StartChar: five
Encoding: 23 53 25
Width: 1139
Flags: W
HStem: -10 214<523.45 706.9> 1244 228<737 1252>
VStem: 173 245<309.203 440.527>
Fore
173 415 m 1
 418 415 l 1
 403 315 433 250 510 220 c 0
 536 209 566 204 599 204 c 0
 682 204 754 234 813 294 c 0
 865 345 902 412 922 496 c 1
 932 550 l 1
 943 645 915 711 849 748 c 0
 814 767 771 777 718 777 c 1
 668 774 l 1
 609 765 552 736 501 686 c 1
 267 708 l 1
 572 1472 l 1
 1301 1472 l 1
 1252 1244 l 1
 737 1244 l 1
 604 940 l 1
 661 973 707 994 744 1001 c 0
 763 1005 783 1007 805 1007 c 0
 947 1005 1050 957 1115 863 c 0
 1179 772 1196 655 1166 512 c 0
 1135 365 1067 243 961 147 c 0
 851 47 722 -5 573 -10 c 0
 564 -10 564 -10 554 -10 c 0
 390 -10 277 44 215 152 c 0
 175 222 162 310 173 415 c 1
EndSplineSet
EndChar
StartChar: six
Encoding: 24 54 26
Width: 1139
Flags: W
HStem: -10 210<548.7 741.1> 764 213<643.6 813.625> 1257 225<802.947 938.228>
Fore
1253 1103 m 1
 1042 1104 l 1
 1036 1175 1003 1221 944 1244 c 0
 921 1253 896 1257 867 1257 c 0
 694 1257 574 1133 504 885 c 0
 502 876 500 867 497 858 c 1
 579 937 679 977 797 977 c 0
 799 977 799 977 802 977 c 0
 924 976 1018 932 1085 846 c 1
 1111 806 l 1
 1151 735 1168 652 1160 559 c 0
 1157 532 1154 506 1148 479 c 0
 1118 342 1053 228 955 137 c 0
 853 43 735 -6 600 -10 c 0
 584 -10 l 0
 355 -10 226 103 199 329 c 0
 186 432 195 556 226 701 c 0
 313 1108 474 1356 710 1446 c 0
 774 1470 843 1482 918 1482 c 0
 1032 1482 1121 1449 1186 1383 c 0
 1199 1370 1211 1355 1221 1339 c 0
 1262 1273 1273 1194 1253 1103 c 1
455 489 m 0
 433 388 445 310 489 257 c 0
 521 219 567 200 628 200 c 0
 715 200 787 237 845 310 c 0
 882 357 907 414 921 481 c 0
 943 584 930 661 880 712 c 1
 856 733 l 1
 825 754 787 764 741 764 c 0
 654 764 583 727 527 653 c 0
 492 608 469 553 455 489 c 0
EndSplineSet
EndChar
StartChar: seven
Encoding: 25 55 27
Width: 1139
Flags: W
HStem: 0 21G<253 511> 1233 239<410 1017>
Fore
359 1233 m 1
 410 1472 l 1
 1359 1472 l 1
 1308 1233 l 1
 1235 1170 1147 1083 1046 973 c 0
 939 858 864 764 822 692 c 0
 686 460 594 272 546 129 c 0
 532 84 520 41 511 0 c 1
 253 0 l 1
 306 243 426 502 611 776 c 0
 684 884 808 1025 982 1198 c 0
 1001 1217 1001 1217 1017 1233 c 1
 359 1233 l 1
EndSplineSet
EndChar
StartChar: eight
Encoding: 26 56 28
Width: 1139
Flags: W
HStem: -10 21G<492.5 571> 1284 198<753.5 906.887>
Fore
533 805 m 1
 398 859 346 959 377 1104 c 0
 402 1223 465 1318 565 1388 c 0
 655 1451 759 1482 878 1482 c 0
 1005 1482 1100 1446 1165 1374 c 1
 1189 1342 l 1
 1232 1275 1243 1194 1223 1099 c 0
 1199 988 1132 902 1020 841 c 0
 997 828 971 816 944 805 c 1
 1049 768 1115 710 1139 629 c 0
 1154 577 1155 512 1141 434 c 1
 1128 380 l 1
 1095 279 1029 191 928 116 c 0
 828 43 721 1 607 -8 c 0
 592 -9 578 -10 564 -10 c 0
 421 -10 314 31 242 113 c 0
 170 194 148 301 175 434 c 1
 176 439 l 2
 207 584 283 689 405 756 c 0
 444 777 487 794 533 805 c 1
604 1107 m 0
 589 1030 607 975 659 943 c 0
 687 926 721 918 762 918 c 0
 833 918 891 942 937 990 c 0
 967 1021 986 1057 995 1099 c 0
 1009 1166 994 1217 949 1251 c 0
 921 1273 883 1284 838 1284 c 0
 773 1284 716 1262 669 1218 c 0
 635 1187 613 1150 604 1107 c 0
415 437 m 0
 398 358 414 295 462 250 c 0
 499 216 548 199 610 199 c 0
 698 199 770 228 828 287 c 0
 866 326 892 375 904 433 c 0
 923 523 900 586 834 623 c 0
 799 642 755 651 701 651 c 0
 602 651 527 620 472 557 c 1
 450 525 l 1
 433 499 422 470 415 437 c 0
EndSplineSet
EndChar
StartChar: nine
Encoding: 27 57 29
Width: 1139
Flags: W
HStem: -10 229<525.661 667.671> 495 227<665.5 801.105> 1257 224<738.1 912.546>
Fore
217 369 m 1
 432 369 l 1
 424 294 458 247 532 228 c 0
 556 222 583 219 613 219 c 0
 718 219 797 257 850 332 c 0
 886 383 919 466 948 579 c 1
 902 541 853 517 801 506 c 0
 765 499 721 495 669 495 c 0
 548 495 454 536 388 619 c 0
 321 701 296 806 314 934 c 0
 316 949 318 965 322 981 c 0
 351 1120 415 1236 512 1329 c 0
 614 1424 730 1475 862 1481 c 0
 870 1482 878 1482 887 1482 c 0
 1110 1482 1237 1375 1270 1160 c 0
 1286 1054 1277 924 1245 771 c 0
 1158 364 997 116 761 26 c 0
 696 2 628 -10 553 -10 c 0
 439 -10 350 23 285 89 c 0
 216 160 194 254 217 369 c 1
1009 982 m 0
 1030 1081 1019 1155 974 1205 c 1
 952 1226 l 1
 923 1247 888 1257 846 1257 c 0
 763 1257 695 1222 640 1152 c 0
 605 1107 581 1054 568 991 c 0
 547 892 560 818 608 769 c 0
 639 738 682 722 737 722 c 0
 820 722 889 757 941 828 c 0
 973 871 996 922 1009 982 c 0
EndSplineSet
EndChar
StartChar: colon
Encoding: 28 58 30
Width: 569
Flags: W
HStem: 0 230<209 415> 832 230<386 592>
VStem: 160 481<0 1062>
Fore
337 832 m 1
 386 1062 l 1
 641 1062 l 1
 592 832 l 1
 337 832 l 1
160 0 m 1
 209 230 l 1
 464 230 l 1
 415 0 l 1
 160 0 l 1
EndSplineSet
EndChar
StartChar: semicolon
Encoding: 29 59 31
Width: 569
Flags: W
HStem: -20 20G<157 259> 832 230<383 589>
VStem: 100 538<-213 1062>
Fore
334 832 m 1
 383 1062 l 1
 638 1062 l 1
 589 832 l 1
 334 832 l 1
157 0 m 1
 201 205 l 1
 456 205 l 1
 412 0 l 2
 377 -163 309 -262 207 -297 c 1
 100 -213 l 1
 162 -188 208 -140 236 -71 c 0
 244 -50 252 -27 259 0 c 1
 157 0 l 1
EndSplineSet
EndChar
StartChar: less
Encoding: 30 60 32
Width: 1196
Flags: W
HStem: 226 993<1131 1342>
Fore
248 641 m 1
 284 809 l 1
 1342 1219 l 1
 1293 990 l 1
 577 724 l 1
 1180 455 l 1
 1131 226 l 1
 248 641 l 1
EndSplineSet
EndChar
StartChar: equal
Encoding: 31 61 33
Width: 1196
Flags: W
HStem: 417 218<249 1171> 812 218<333 1255>
Fore
1255 812 m 1
 287 812 l 1
 333 1030 l 1
 1301 1030 l 1
 1255 812 l 1
1171 417 m 1
 203 417 l 1
 249 635 l 1
 1217 635 l 1
 1171 417 l 1
EndSplineSet
EndChar
StartChar: greater
Encoding: 32 62 34
Width: 1196
Flags: W
HStem: 226 993<160 371>
Fore
1219 641 m 1
 160 226 l 1
 209 455 l 1
 904 724 l 1
 322 990 l 1
 371 1219 l 1
 1255 809 l 1
 1219 641 l 1
EndSplineSet
EndChar
StartChar: question
Encoding: 33 63 35
Width: 1139
Flags: W
HStem: 0 235<471 695> 1291 213<756.2 923.503>
VStem: 312 954<1046 1084 1046 1084>
Fore
509 361 m 1
 537 478 576 569 625 635 c 0
 646 664 672 692 702 719 c 0
 709 726 745 754 810 803 c 0
 910 881 978 950 1012 1009 c 0
 1028 1036 1039 1062 1044 1088 c 0
 1062 1170 1036 1229 967 1264 c 0
 931 1282 889 1291 842 1291 c 0
 776 1291 714 1264 655 1211 c 1
 623 1177 l 1
 593 1138 l 1
 574 1110 558 1079 546 1046 c 1
 312 1046 l 1
 349 1183 420 1293 525 1377 c 0
 630 1462 750 1504 885 1504 c 0
 1016 1504 1117 1469 1189 1398 c 0
 1268 1321 1293 1216 1266 1084 c 0
 1263 1066 1258 1048 1251 1030 c 0
 1222 953 1159 870 1061 782 c 1
 939 676 l 1
 849 597 790 506 760 401 c 0
 756 388 753 374 751 361 c 1
 509 361 l 1
421 0 m 1
 471 235 l 1
 745 235 l 1
 695 0 l 1
 421 0 l 1
EndSplineSet
EndChar
StartChar: at
Encoding: 34 64 36
Width: 2079
Flags: W
HStem: -431 200<896.376 1263.4> -3 241<853 1025.9> 1059 20G<1541 1755> 1279 214<1258.62 1514.97>
Fore
1187 121 m 1
 1098 38 986 -3 853 -3 c 0
 745 -3 668 44 623 138 c 0
 581 225 573 332 600 461 c 0
 629 599 694 726 794 842 c 0
 886 948 987 1020 1097 1058 c 0
 1145 1075 1194 1084 1241 1084 c 0
 1337 1084 1407 1057 1449 1002 c 0
 1462 986 1471 968 1476 949 c 0
 1476 945 1477 941 1477 938 c 1
 1541 1079 l 1
 1755 1079 l 1
 1461 379 l 1
 1413 285 l 1
 1410 268 l 1
 1411 258 1415 248 1423 238 c 0
 1434 225 1450 219 1469 219 c 0
 1552 219 1634 268 1718 367 c 0
 1789 450 1840 543 1875 647 c 1
 1891 711 l 1
 1892 714 1892 714 1892 716 c 0
 1925 885 1889 1020 1784 1122 c 0
 1689 1217 1551 1269 1372 1279 c 0
 1369 1279 1369 1279 1365 1279 c 2
 1287 1279 l 1
 1098 1268 929 1194 779 1056 c 0
 776 1053 773 1051 771 1048 c 0
 590 877 479 690 435 485 c 0
 394 292 414 132 495 7 c 0
 514 -21 534 -46 558 -68 c 0
 646 -151 761 -202 903 -221 c 0
 953 -228 1009 -231 1071 -231 c 0
 1219 -231 1340 -213 1433 -177 c 0
 1515 -146 1613 -87 1727 0 c 0
 1739 9 1739 9 1752 19 c 1
 2009 19 l 1
 1917 -113 1788 -219 1622 -300 c 0
 1443 -387 1245 -431 1031 -431 c 0
 739 -431 519 -361 371 -222 c 0
 237 -97 175 68 184 273 c 0
 187 334 196 399 211 469 c 0
 261 705 365 911 522 1087 c 0
 696 1280 903 1405 1142 1462 c 0
 1231 1483 1324 1493 1419 1493 c 0
 1625 1493 1793 1441 1922 1336 c 0
 1986 1283 2035 1220 2071 1147 c 0
 2130 1022 2142 877 2108 713 c 0
 2078 574 2012 438 1909 305 c 0
 1811 178 1701 86 1582 27 c 0
 1501 -13 1423 -33 1347 -33 c 0
 1301 -33 1265 -26 1239 -12 c 0
 1214 2 1198 22 1190 48 c 0
 1184 67 1183 91 1187 121 c 1
957 238 m 0
 1038 238 1114 279 1187 361 c 0
 1244 426 1284 500 1310 583 c 1
 1325 643 l 1
 1343 738 1325 801 1271 831 c 0
 1250 843 1224 849 1193 849 c 0
 1106 849 1026 801 952 704 c 0
 929 675 908 642 890 607 c 0
 868 564 852 520 842 474 c 0
 823 385 831 319 866 276 c 0
 887 251 918 238 957 238 c 0
EndSplineSet
EndChar
StartChar: A
Encoding: 35 65 37
Width: 1366
Flags: W
HStem: 0 21G<-2 273 1079 1368> 433 240<648 970> 1430 20G<867 1076>
Fore
867 1450 m 1
 1076 1450 l 1
 1368 0 l 1
 1079 0 l 1
 970 433 l 1
 554 433 l 1
 273 0 l 1
 -2 0 l 1
 867 1450 l 1
976 673 m 1
 895 1109 l 1
 648 673 l 1
 976 673 l 1
EndSplineSet
KernsSLIFO: 93 -37 0 0 91 -37 0 0 90 -37 0 0 61 -152 0 0 59 -76 0 0 58 -152 0 0 56 -152 0 0
EndChar
StartChar: B
Encoding: 36 66 38
Width: 1366
Flags: W
HStem: 0 220<431 878.487> 629 213<563 950.152> 1231 219<646 1094.19>
Fore
164 0 m 1
 299 633 l 1
 472 1450 l 1
 1008 1450 l 2
 1120 1450 1207 1435 1269 1406 c 0
 1340 1371 1387 1317 1410 1243 c 0
 1426 1192 1428 1138 1415 1079 c 0
 1385 934 1312 834 1197 778 c 0
 1185 772 l 1
 1332 726 1386 609 1346 421 c 0
 1326 326 1280 240 1207 164 c 0
 1146 101 1068 56 972 29 c 0
 965 28 959 26 951 24 c 0
 883 8 802 0 709 0 c 2
 164 0 l 1
563 842 m 1
 840 842 l 2
 931 842 1000 852 1047 871 c 0
 1057 875 1064 879 1070 884 c 0
 1107 913 1134 943 1151 972 c 0
 1162 995 1172 1023 1179 1056 c 0
 1194 1128 1180 1177 1138 1204 c 0
 1109 1222 1030 1231 899 1231 c 2
 646 1231 l 1
 563 842 l 1
431 220 m 1
 756 220 l 2
 869 220 948 232 994 257 c 0
 1010 267 l 0
 1045 292 1070 321 1085 355 c 0
 1093 374 1100 396 1105 421 c 0
 1120 490 1114 538 1089 567 c 1
 1076 579 l 1
 1041 608 986 624 909 627 c 1
 817 629 l 1
 518 629 l 1
 431 220 l 1
EndSplineSet
EndChar
StartChar: C
Encoding: 37 67 39
Width: 1479
Flags: W
HStem: -10 220<770.275 928.1> 1257 220<976.884 1167.95>
VStem: 1366 230<1025.5 1159.82>
Fore
1270 480 m 1
 1500 480 l 1
 1401 269 1264 126 1087 49 c 0
 996 10 896 -10 789 -10 c 0
 559 -10 399 67 309 221 c 0
 233 352 216 522 257 731 c 0
 260 745 l 0
 303 944 392 1110 528 1241 c 0
 659 1368 813 1444 991 1469 c 0
 1029 1474 1069 1477 1108 1477 c 0
 1308 1477 1448 1409 1530 1274 c 1
 1555 1226 l 1
 1578 1174 1591 1115 1596 1050 c 1
 1366 1050 l 1
 1357 1134 1312 1193 1229 1228 c 0
 1182 1247 1124 1257 1057 1257 c 0
 910 1257 785 1205 682 1101 c 0
 590 1009 529 891 499 746 c 0
 467 598 481 474 538 373 c 0
 593 280 674 226 784 213 c 0
 800 211 816 210 833 210 c 0
 932 210 1026 239 1114 296 c 0
 1194 348 1246 409 1270 480 c 1
EndSplineSet
EndChar
StartChar: D
Encoding: 38 68 40
Width: 1479
Flags: W
HStem: 0 213<435 889.4> 1237 213<653 1050>
Fore
168 0 m 1
 476 1450 l 1
 981 1450 l 2
 1307 1450 1496 1340 1548 1120 c 0
 1573 1017 1569 888 1536 733 c 0
 1467 410 1318 193 1088 82 c 0
 976 27 845 0 697 0 c 2
 168 0 l 1
435 213 m 1
 720 213 l 2
 866 213 992 262 1097 359 c 0
 1198 452 1265 578 1299 736 c 1
 1312 816 l 1
 1334 999 1283 1124 1159 1189 c 0
 1099 1221 1023 1237 933 1237 c 2
 653 1237 l 1
 435 213 l 1
EndSplineSet
EndChar
StartChar: E
Encoding: 39 69 41
Width: 1366
Flags: W
HStem: 0 229<450 1222> 621 230<582 1153> 1218 232<660 1481>
Fore
162 0 m 1
 470 1450 l 1
 1530 1450 l 1
 1481 1218 l 1
 660 1218 l 1
 582 851 l 1
 1202 851 l 1
 1153 621 l 1
 533 621 l 1
 450 229 l 1
 1271 229 l 1
 1222 0 l 1
 162 0 l 1
EndSplineSet
EndChar
StartChar: F
Encoding: 40 70 42
Width: 1251
Flags: W
HStem: 0 21G<167 406> 621 230<587 1140> 1218 232<665 1417>
Fore
167 0 m 1
 475 1450 l 1
 1466 1450 l 1
 1417 1218 l 1
 665 1218 l 1
 587 851 l 1
 1189 851 l 1
 1140 621 l 1
 538 621 l 1
 406 0 l 1
 167 0 l 1
EndSplineSet
KernsSLIFO: 37 -113 0 0 18 -227 0 0 16 -227 0 0
EndChar
StartChar: G
Encoding: 41 71 43
Width: 1479
Flags: W
HStem: -10 220<662.7 948.7> 464 220<1050 1263> 1236 241<998.013 1192.1>
Fore
1549 684 m 1
 1548 671 1545 657 1542 644 c 1
 1520 546 l 1
 1420 175 1177 -10 789 -10 c 0
 777 -10 765 -10 754 -9 c 0
 538 -1 388 80 304 233 c 0
 231 367 216 538 260 745 c 0
 269 785 279 824 292 862 c 0
 354 1045 455 1191 597 1302 c 0
 747 1419 917 1477 1108 1477 c 0
 1224 1477 1321 1454 1398 1407 c 0
 1518 1335 1583 1216 1596 1050 c 1
 1338 1050 l 1
 1334 1074 1326 1097 1314 1118 c 1
 1293 1146 l 1
 1239 1206 1160 1236 1053 1236 c 0
 1039 1236 1025 1235 1010 1234 c 0
 895 1224 791 1177 697 1093 c 0
 594 1001 527 885 498 746 c 0
 495 733 492 720 490 707 c 0
 468 568 486 452 544 360 c 0
 605 260 702 210 833 210 c 0
 922 210 1003 226 1076 259 c 0
 1164 299 1222 354 1250 425 c 1
 1263 464 l 1
 1004 464 l 1
 1050 684 l 1
 1549 684 l 1
EndSplineSet
EndChar
StartChar: H
Encoding: 42 72 44
Width: 1479
Flags: W
HStem: 0 21G<164 404 1074 1314> 619 244<587 1206> 1430 20G<472 712 1382 1622>
Fore
164 0 m 1
 472 1450 l 1
 712 1450 l 1
 587 863 l 1
 1257 863 l 1
 1382 1450 l 1
 1622 1450 l 1
 1314 0 l 1
 1074 0 l 1
 1206 619 l 1
 536 619 l 1
 404 0 l 1
 164 0 l 1
EndSplineSet
EndChar
StartChar: I
Encoding: 43 73 45
Width: 650
Flags: W
HStem: 0 210<70 250 490 625> 1250 200<333 471 711 891>
VStem: 25 908<0 1450>
Fore
670 210 m 1
 625 0 l 1
 25 0 l 1
 70 210 l 1
 250 210 l 1
 471 1250 l 1
 291 1250 l 1
 333 1450 l 1
 933 1450 l 1
 891 1250 l 1
 711 1250 l 1
 490 210 l 1
 670 210 l 1
EndSplineSet
EndChar
StartChar: J
Encoding: 44 74 46
Width: 1024
Flags: W
HStem: -10 225<461 593.3> 1235 215<716 908>
Fore
1173 1450 m 1
 962 456 l 2
 935 329 896 233 845 168 c 0
 834 155 822 142 810 129 c 0
 720 36 603 -10 461 -10 c 0
 333 -10 243 24 193 92 c 0
 150 149 134 237 146 358 c 0
 149 390 154 422 161 455 c 1
 398 455 l 1
 380 352 393 280 437 241 c 0
 458 224 483 215 514 215 c 0
 575 215 628 245 674 306 c 0
 708 351 731 406 745 471 c 2
 908 1235 l 1
 671 1235 l 1
 716 1450 l 1
 1173 1450 l 1
EndSplineSet
EndChar
StartChar: K
Encoding: 45 75 47
Width: 1366
Flags: W
HStem: 0 21G<150 376> 1430 20G<458 684 1330 1624>
Fore
150 0 m 1
 458 1450 l 1
 684 1450 l 1
 551 825 l 1
 1330 1450 l 1
 1624 1450 l 1
 830 806 l 1
 1346 0 l 1
 1053 -1 l 1
 609 610 l 1
 482 499 l 1
 376 0 l 1
 150 0 l 1
EndSplineSet
EndChar
StartChar: L
Encoding: 46 76 48
Width: 1139
Flags: W
HStem: 0 219<427 1060> 1430 20G<458 688>
VStem: 150 957<0 219>
Fore
150 0 m 1
 458 1450 l 1
 688 1450 l 1
 427 219 l 1
 1107 219 l 1
 1060 0 l 1
 150 0 l 1
EndSplineSet
KernsSLIFO: 93 -76 0 0 61 -152 0 0 59 -152 0 0 58 -152 0 0 56 -152 0 0
EndChar
StartChar: M
Encoding: 47 77 49
Width: 1706
Flags: W
HStem: 0 21G<152 372 676 1026 1330 1550> 1430 20G<460 668 1648 1858>
Fore
152 0 m 1
 460 1450 l 1
 668 1450 l 1
 894 202 l 1
 1648 1450 l 1
 1858 1450 l 1
 1550 0 l 1
 1330 0 l 1
 1492 762 l 1
 1026 0 l 1
 676 0 l 1
 534 762 l 1
 372 0 l 1
 152 0 l 1
EndSplineSet
EndChar
StartChar: N
Encoding: 48 78 50
Width: 1479
Flags: W
HStem: 0 21G<156 395 1071 1311> 1430 20G<464 703 1379 1619>
Fore
156 0 m 1
 464 1450 l 1
 703 1450 l 1
 1171 471 l 1
 1379 1450 l 1
 1619 1450 l 1
 1311 0 l 1
 1071 0 l 1
 602 975 l 1
 395 0 l 1
 156 0 l 1
EndSplineSet
EndChar
StartChar: O
Encoding: 49 79 51
Width: 1593
Flags: W
HStem: -8 228<683.2 970.496> 1246 232<835.5 1227.9>
Fore
256 714 m 0
 307 955 411 1144 567 1280 c 0
 718 1410 900 1476 1115 1478 c 1
 1320 1478 1471 1415 1568 1290 c 0
 1665 1166 1696 999 1662 788 c 0
 1659 769 1655 750 1651 731 c 0
 1607 522 1516 351 1378 218 c 0
 1236 82 1064 7 864 -8 c 0
 842 -9 820 -10 798 -10 c 0
 608 -10 463 46 362 159 c 0
 262 269 221 416 239 601 c 0
 242 638 247 675 256 714 c 0
501 712 m 0
 465 541 486 412 564 325 c 0
 626 255 721 220 847 220 c 0
 1022 220 1160 284 1265 413 c 0
 1333 497 1380 603 1407 731 c 0
 1446 914 1425 1051 1346 1142 c 0
 1283 1211 1191 1246 1068 1246 c 0
 843 1246 679 1145 578 942 c 0
 545 875 520 799 501 712 c 0
EndSplineSet
EndChar
StartChar: P
Encoding: 50 80 52
Width: 1366
Flags: W
HStem: 0 21G<158 402> 580 212<570 1005.86> 1236 214<665 1086.73>
Fore
158 0 m 1
 466 1450 l 1
 1019 1450 l 2
 1264 1450 1418 1395 1477 1285 c 0
 1489 1263 1497 1239 1503 1212 c 0
 1513 1160 1510 1098 1495 1026 c 0
 1447 799 1308 658 1078 604 c 0
 1010 588 934 580 851 580 c 2
 525 580 l 1
 402 0 l 1
 158 0 l 1
570 792 m 1
 845 792 l 2
 1011 792 1124 828 1184 900 c 0
 1211 931 1229 971 1240 1020 c 0
 1259 1109 1234 1170 1164 1202 c 0
 1115 1225 1039 1236 936 1236 c 2
 665 1236 l 1
 570 792 l 1
EndSplineSet
KernsSLIFO: 37 -152 0 0 18 -264 0 0 16 -264 0 0
EndChar
StartChar: Q
Encoding: 51 81 53
Width: 1659
Flags: W
HStem: -14 189<1380.16 1485.29> -10 174<770.548 932.548> 298 205<927.152 1043.3> 1251 227<835.5 1233.1>
Fore
1250 392 m 1x30
 1322 461 1376 564 1411 699 c 0
 1414 717 1414 717 1418 736 c 0
 1457 919 1435 1055 1354 1146 c 0
 1290 1216 1195 1251 1068 1251 c 0
 837 1251 670 1150 568 947 c 0
 534 881 508 804 489 717 c 0
 452 541 477 409 565 322 c 0
 581 306 599 292 620 280 c 1
 655 355 715 413 798 454 c 0
 839 475 881 489 925 496 c 0
 951 501 976 503 1001 503 c 0
 1091 503 1164 477 1220 425 c 1
 1232 415 1242 404 1250 392 c 1x30
1360 204 m 1
 1373 185 1396 176 1429 175 c 0
 1443 175 1458 177 1473 181 c 0
 1514 190 1550 206 1581 228 c 1
 1678 90 l 1
 1589 21 1495 -14 1396 -14 c 0xb0
 1317 -14 1253 7 1206 50 c 0
 1193 62 1183 75 1175 88 c 1
 1085 36 994 5 903 -5 c 0
 871 -8 837 -10 798 -10 c 0x70
 608 -10 463 46 362 159 c 0
 262 269 221 416 239 601 c 0
 242 638 247 675 256 714 c 0
 307 955 411 1144 567 1280 c 0
 718 1410 900 1476 1115 1478 c 1
 1317 1478 1467 1416 1565 1292 c 0
 1660 1171 1693 1009 1664 806 c 0
 1661 781 1657 756 1651 731 c 0
 1597 474 1500 299 1360 204 c 1
1098 226 m 1
 1068 273 1028 297 977 298 c 0
 965 298 952 297 938 294 c 0
 866 281 811 241 775 174 c 1
 797 167 825 164 856 164 c 0x70
 929 164 997 178 1061 206 c 0
 1075 213 1088 219 1098 226 c 1
EndSplineSet
EndChar
StartChar: R
Encoding: 52 82 54
Width: 1400
Flags: W
HStem: 0 21G<158 384 1072 1387> 580 206<551 786> 1239 211<647 1068.98>
Fore
786 580 m 1
 507 580 l 1
 384 0 l 1
 158 0 l 1
 466 1450 l 1
 1019 1450 l 2
 1278 1450 1434 1387 1486 1262 c 0
 1512 1201 1515 1122 1495 1026 c 0
 1464 879 1391 766 1276 687 c 0
 1210 642 1135 611 1051 596 c 1
 1387 0 l 1
 1072 0 l 1
 786 580 l 1
551 786 m 1
 832 786 l 2
 1006 786 1123 828 1183 912 c 0
 1204 942 1219 978 1228 1020 c 0
 1249 1118 1216 1182 1130 1213 c 0
 1081 1230 1013 1239 924 1239 c 2
 647 1239 l 1
 551 786 l 1
EndSplineSet
KernsSLIFO: 61 -37 0 0 59 -37 0 0 58 -37 0 0 56 -37 0 0
EndChar
StartChar: S
Encoding: 53 83 55
Width: 1366
Flags: W
HStem: -9 223<640.319 902.5> 1250 221<793.7 978.99>
VStem: 1198 234<1019 1195.41>
Fore
199 502 m 1
 432 502 l 1
 422 385 461 302 551 255 c 0
 603 228 670 214 753 214 c 0
 868 214 961 241 1031 295 c 0
 1074 328 1100 367 1110 413 c 0
 1120 468 1108 510 1072 539 c 0
 1058 550 1040 561 1018 572 c 0
 972 593 880 625 740 667 c 0
 605 708 517 742 474 771 c 0
 394 825 359 906 367 1013 c 0
 368 1030 371 1048 375 1067 c 0
 402 1195 475 1296 595 1370 c 0
 704 1437 832 1471 977 1471 c 0
 1225 1471 1372 1379 1418 1195 c 0
 1431 1143 1435 1084 1432 1019 c 1
 1198 1019 l 1
 1200 1163 1125 1240 970 1249 c 0
 960 1250 949 1250 938 1250 c 0
 827 1250 741 1226 680 1179 c 1
 655 1157 l 1
 634 1134 621 1109 615 1080 c 0
 606 1033 616 997 645 971 c 0
 656 962 671 953 689 943 c 0
 726 923 845 881 1046 816 c 0
 1114 795 1156 780 1173 773 c 0
 1275 730 1336 669 1354 590 c 0
 1365 545 1363 491 1350 429 c 0
 1323 302 1251 198 1134 116 c 0
 1025 40 898 -2 753 -9 c 0
 740 -10 728 -10 715 -10 c 0
 472 -10 312 56 235 188 c 0
 187 270 175 375 199 502 c 1
EndSplineSet
EndChar
StartChar: T
Encoding: 54 84 56
Width: 1251
Flags: W
HStem: 0 21G<508 748> 1231 219<356 770 1010 1472>
Fore
508 0 m 1
 770 1231 l 1
 310 1231 l 1
 356 1450 l 1
 1518 1450 l 1
 1472 1231 l 1
 1010 1231 l 1
 748 0 l 1
 508 0 l 1
EndSplineSet
KernsSLIFO: 93 -113 0 0 91 -113 0 0 89 -76 0 0 87 -227 0 0 86 -76 0 0 83 -227 0 0 77 -76 0 0 73 -227 0 0 71 -227 0 0 69 -227 0 0 51 -37 0 0 37 -152 0 0 31 -227 0 0 30 -227 0 0 18 -227 0 0 17 -113 0 0 16 -227 0 0
EndChar
StartChar: U
Encoding: 55 85 57
Width: 1479
Flags: W
HStem: -10 250<684 962.2> 1430 20G<469 719 1373 1622>
Fore
1373 1450 m 1
 1622 1450 l 1
 1435 567 l 2
 1353 182 1121 -10 739 -10 c 0
 435 -10 276 107 260 341 c 0
 256 406 263 482 282 567 c 2
 469 1450 l 1
 719 1450 l 1
 532 568 l 2
 505 442 528 351 599 294 c 0
 645 258 708 240 788 240 c 0
 922 240 1026 286 1101 379 c 0
 1141 430 1170 493 1186 568 c 2
 1373 1450 l 1
EndSplineSet
EndChar
StartChar: V
Encoding: 56 86 58
Width: 1366
Flags: W
HStem: 0 21G<577 776> 1430 20G<317 652 1331 1658>
Fore
577 0 m 1
 317 1450 l 1
 652 1450 l 1
 777 471 l 1
 1331 1450 l 1
 1658 1450 l 1
 776 0 l 1
 577 0 l 1
EndSplineSet
KernsSLIFO: 93 -76 0 0 89 -76 0 0 86 -76 0 0 83 -113 0 0 77 -37 0 0 73 -113 0 0 69 -152 0 0 37 -152 0 0 31 -76 0 0 30 -76 0 0 18 -188 0 0 17 -113 0 0 16 -188 0 0
EndChar
StartChar: W
Encoding: 57 87 59
Width: 1933
Flags: W
HStem: 0 21G<366 618 1299 1566> 1430 20G<333 587 1130 1400 1934 2205>
VStem: 333 254<1291.11 1450>
Fore
366 0 m 1
 333 1450 l 1
 587 1450 l 1
 623 519 l 1
 1130 1450 l 1
 1400 1450 l 1
 1519 519 l 1
 1934 1450 l 1
 2205 1450 l 1
 1566 0 l 1
 1299 0 l 1
 1173 999 l 1
 618 0 l 1
 366 0 l 1
EndSplineSet
KernsSLIFO: 93 -18 0 0 89 -37 0 0 86 -37 0 0 83 -37 0 0 73 -37 0 0 69 -76 0 0 37 -76 0 0 31 -37 0 0 30 -37 0 0 18 -113 0 0 17 -37 0 0 16 -113 0 0
EndChar
StartChar: X
Encoding: 58 88 60
Width: 1366
Flags: W
HStem: 0 21G<9 319 1043 1353> 1430 20G<384 694 1311 1621>
Fore
9 0 m 1
 655 756 l 1
 384 1450 l 1
 694 1450 l 1
 888 972 l 1
 1311 1450 l 1
 1621 1450 l 1
 1029 756 l 1
 1353 0 l 1
 1043 0 l 1
 797 544 l 1
 319 0 l 1
 9 0 l 1
EndSplineSet
EndChar
StartChar: Y
Encoding: 59 89 61
Width: 1366
Flags: W
HStem: 0 21G<526 810> 1431 20G<314 634 1338 1658>
Fore
526 0 m 1
 658 621 l 1
 314 1451 l 1
 634 1451 l 1
 857 887 l 1
 1338 1451 l 1
 1658 1451 l 1
 942 621 l 1
 810 0 l 1
 526 0 l 1
EndSplineSet
KernsSLIFO: 90 -113 0 0 89 -113 0 0 85 -188 0 0 84 -152 0 0 83 -188 0 0 77 -76 0 0 73 -188 0 0 69 -152 0 0 37 -152 0 0 31 -133 0 0 30 -113 0 0 18 -264 0 0 17 -188 0 0 16 -264 0 0
EndChar
StartChar: Z
Encoding: 60 90 62
Width: 1251
Flags: W
HStem: 0 230<424 1200> 1220 230<353 1144>
Fore
41 0 m 1
 91 237 l 1
 1144 1220 l 1
 304 1220 l 1
 353 1450 l 1
 1521 1450 l 1
 1472 1220 l 1
 424 230 l 1
 1249 230 l 1
 1200 0 l 1
 41 0 l 1
EndSplineSet
EndChar
StartChar: bracketleft
Encoding: 61 91 63
Width: 569
Flags: W
HStem: -407 188<312 449> 1278 188<631 808>
VStem: 52 796<-407 1466>
Fore
52 -407 m 1
 451 1466 l 1
 848 1466 l 1
 808 1278 l 1
 631 1278 l 1
 312 -219 l 1
 489 -219 l 1
 449 -407 l 1
 52 -407 l 1
EndSplineSet
EndChar
StartChar: backslash
Encoding: 62 92 64
Width: 569
Flags: W
Fore
381 -25 m 1
 278 1491 l 1
 502 1491 l 1
 604 -25 l 1
 381 -25 l 1
EndSplineSet
EndChar
StartChar: bracketright
Encoding: 63 93 65
Width: 569
Flags: W
HStem: -407 188<-8 171> 1277 189<351 489>
VStem: -48 796<-407 1466>
Fore
349 -407 m 1
 -48 -407 l 1
 -8 -219 l 1
 171 -219 l 1
 489 1277 l 1
 310 1277 l 1
 351 1466 l 1
 748 1466 l 1
 349 -407 l 1
EndSplineSet
EndChar
StartChar: asciicircum
Encoding: 64 94 66
Width: 961
Flags: W
VStem: 201 853<690 690>
Fore
435 690 m 1
 201 690 l 1
 704 1491 l 1
 889 1491 l 1
 1054 690 l 1
 823 690 l 1
 736 1209 l 1
 435 690 l 1
EndSplineSet
EndChar
StartChar: underscore
Encoding: 65 95 67
Width: 1139
Flags: W
HStem: -427 190<-81 1071>
Fore
-122 -427 m 1
 -81 -237 l 1
 1112 -237 l 1
 1071 -427 l 1
 -122 -427 l 1
EndSplineSet
EndChar
StartChar: grave
Encoding: 66 96 68
Width: 682
Flags: W
HStem: 1454 20G<373 673>
VStem: 373 376<1194 1474>
Fore
749 1194 m 1
 545 1194 l 1
 373 1474 l 1
 673 1474 l 1
 749 1194 l 1
EndSplineSet
EndChar
StartChar: a
Encoding: 67 97 69
Width: 1139
Flags: W
HStem: -24 179<432 563.771> 876 210<674 829.879>
Fore
812 96 m 1
 726 35 638 -3 548 -16 c 0
 514 -21 475 -24 432 -24 c 0
 315 -24 232 5 181 62 c 0
 130 119 115 191 134 280 c 0
 164 424 263 522 430 573 c 0
 484 590 549 603 622 612 c 0
 733 625 832 645 919 674 c 1
 927 721 l 1
 935 804 897 854 811 870 c 0
 791 874 769 876 744 876 c 0
 667 876 601 855 545 814 c 0
 514 791 490 762 473 729 c 1
 266 759 l 1
 337 926 459 1028 630 1067 c 0
 686 1080 747 1086 815 1086 c 0
 999 1086 1110 1039 1149 946 c 1
 1161 908 l 1
 1164 891 1166 872 1167 851 c 0
 1166 820 1158 765 1141 685 c 2
 1090 445 l 2
 1054 278 1036 172 1033 128 c 0
 1032 83 1038 41 1052 0 c 1
 814 0 l 1
 810 31 808 63 812 96 c 1
879 487 m 1
 817 466 729 448 613 433 c 0
 517 420 452 401 418 376 c 0
 389 355 371 326 363 289 c 0
 351 231 374 191 430 170 c 0
 455 160 485 155 520 155 c 0
 616 155 697 183 764 240 c 0
 782 255 798 272 812 291 c 0
 836 323 854 371 867 434 c 2
 879 487 l 1
EndSplineSet
EndChar
StartChar: b
Encoding: 68 98 70
Width: 1139
Flags: W
HStem: -10 208<547.3 757.9> 870 216<722.9 836> 1446 20G<446 670>
Fore
345 0 m 1
 134 0 l 1
 446 1466 l 1
 670 1466 l 1
 568 990 l 1
 660 1054 749 1086 836 1086 c 0
 978 1086 1079 1033 1139 926 c 1
 1159 881 l 1
 1195 789 1199 678 1171 547 c 0
 1134 374 1062 237 956 136 c 0
 853 39 733 -10 594 -10 c 0
 504 -10 433 15 381 66 c 0
 375 71 368 77 363 84 c 1
 345 0 l 1
460 538 m 0
 433 411 443 317 490 257 c 0
 520 218 565 198 624 198 c 0
 727 199 812 244 877 333 c 0
 916 387 944 453 961 531 c 0
 989 665 975 761 917 819 c 0
 897 840 870 854 838 863 c 1
 794 869 l 2
 788 870 781 870 774 870 c 0
 698 870 629 833 566 759 c 0
 514 696 478 623 460 538 c 0
EndSplineSet
EndChar
StartChar: c
Encoding: 69 99 71
Width: 1024
Flags: W
HStem: -10 210<509.1 677.084> 879 207<621.5 828.517>
VStem: 190 961<518 696>
Fore
874 403 m 1
 1091 403 l 1
 1052 244 970 130 845 59 c 0
 796 31 741 12 681 1 c 0
 643 -6 603 -10 561 -10 c 0
 418 -10 313 38 245 135 c 0
 176 232 159 360 190 518 c 0
 191 523 191 523 192 527 c 0
 233 719 315 864 437 963 c 0
 537 1045 657 1086 795 1086 c 0
 932 1086 1032 1046 1098 967 c 0
 1156 896 1174 805 1151 696 c 1
 936 696 l 1
 948 757 929 806 880 842 c 0
 846 867 805 879 758 879 c 0
 653 879 568 831 501 734 c 0
 470 689 446 637 430 577 c 0
 425 562 421 547 418 532 c 0
 394 421 403 336 443 275 c 0
 477 225 531 200 604 200 c 0
 703 200 776 232 826 297 c 0
 848 326 864 362 874 403 c 1
EndSplineSet
EndChar
StartChar: d
Encoding: 70 100 72
Width: 1139
Flags: W
HStem: -10 208<449.1 642> 870 216<639.684 817.8> 1446 20G<1077 1301>
Fore
796 84 m 1
 787 77 778 71 770 66 c 0
 696 15 615 -10 525 -10 c 0
 386 -10 286 39 225 136 c 0
 161 237 147 374 184 547 c 0
 217 702 282 828 378 926 c 0
 484 1033 607 1086 749 1086 c 0
 836 1086 911 1054 975 990 c 1
 1077 1466 l 1
 1301 1466 l 1
 989 0 l 1
 778 0 l 1
 796 84 l 1
891 538 m 0
 909 623 905 696 879 759 c 0
 848 833 795 870 719 870 c 0
 658 870 602 853 554 819 c 0
 472 761 416 665 388 531 c 0
 371 453 371 387 388 333 c 0
 415 244 480 199 583 198 c 0
 642 198 695 218 743 257 c 0
 814 317 864 411 891 538 c 0
EndSplineSet
EndChar
StartChar: e
Encoding: 71 101 73
Width: 1139
Flags: W
HStem: -10 214<541.8 714.2> 485 190<461 959> 875 211<646.2 802>
VStem: 186 984<507.191 559.888 522 539>
Fore
878 333 m 1
 1119 333 l 1
 1067 206 981 113 861 53 c 0
 777 11 683 -10 579 -10 c 0
 386 -10 261 55 202 185 c 0
 162 272 157 385 186 522 c 0
 225 707 305 850 424 951 c 0
 530 1041 657 1086 802 1086 c 0
 962 1086 1074 1029 1137 916 c 0
 1191 819 1201 693 1170 539 c 0
 1166 521 1161 503 1156 485 c 1
 415 485 l 1
 401 386 421 311 473 260 c 0
 510 223 561 204 625 204 c 0
 720 204 793 232 845 287 c 0
 859 302 869 317 878 333 c 1
461 675 m 1
 959 675 l 1
 972 797 916 863 792 874 c 0
 781 875 770 875 758 875 c 0
 672 875 599 849 540 797 c 1
 512 769 l 1
 491 744 475 717 465 688 c 0
 463 684 463 680 461 675 c 1
EndSplineSet
EndChar
StartChar: f
Encoding: 72 102 74
Width: 569
Flags: W
HStem: 0 21G<153 380> 757 198<222 314 583 697> 1304 211<732.083 845.57>
VStem: 153 803<0 1488>
Fore
153 0 m 1
 314 757 l 1
 180 757 l 1
 222 955 l 1
 356 955 l 1
 403 1175 l 2
 433 1318 502 1418 610 1474 c 0
 663 1501 721 1515 784 1515 c 0
 851 1515 909 1506 956 1488 c 1
 911 1277 l 1
 864 1294 832 1303 813 1304 c 0
 801 1304 l 0
 778 1305 758 1302 739 1295 c 0
 679 1273 638 1215 618 1121 c 2
 583 955 l 1
 739 955 l 1
 697 757 l 1
 541 757 l 1
 380 0 l 1
 153 0 l 1
EndSplineSet
KernsSLIFO: 74 -37 0 0
EndChar
StartChar: g
Encoding: 73 103 75
Width: 1139
Flags: W
HStem: -434 218<393.1 642> 0 247<398 658.9> 839 247<592.5 787.151>
Fore
86 -74 m 1
 299 -74 l 1
 292 -109 302 -141 331 -169 c 0
 363 -200 412 -216 475 -216 c 0
 632 -216 732 -139 776 16 c 1
 790 75 l 1
 716 25 628 0 525 0 c 0
 380 0 276 53 216 159 c 0
 159 256 147 382 180 537 c 0
 215 702 284 834 389 934 c 0
 493 1035 616 1086 757 1086 c 0
 898 1086 993 1049 1043 974 c 1
 1062 1062 l 1
 1228 1062 l 1
 1033 144 l 2
 979 -107 892 -274 770 -356 c 0
 700 -404 606 -430 486 -434 c 2
 430 -435 l 2
 257 -435 146 -388 98 -293 c 0
 70 -240 65 -173 82 -92 c 0
 86 -74 l 1
431 546 m 0
 389 347 443 247 593 247 c 0
 738 247 830 345 872 541 c 0
 903 688 881 781 806 820 c 0
 782 833 751 839 716 839 c 0
 621 839 546 794 490 703 c 0
 464 659 444 607 431 546 c 0
EndSplineSet
EndChar
StartChar: h
Encoding: 74 104 76
Width: 1139
Flags: W
HStem: 0 21G<135 365 770 1000> 1446 20G<447 677>
VStem: 135 1008<0 673>
Fore
135 0 m 1
 447 1466 l 1
 677 1466 l 1
 579 1008 l 1
 643 1066 728 1095 833 1095 c 0
 982 1095 1081 1044 1128 941 c 0
 1161 870 1166 781 1143 673 c 2
 1000 0 l 1
 770 0 l 1
 903 624 l 2
 925 727 909 791 856 817 c 0
 835 827 807 832 773 832 c 0
 696 832 628 794 568 719 c 0
 523 663 493 601 478 532 c 2
 365 0 l 1
 135 0 l 1
EndSplineSet
EndChar
StartChar: i
Encoding: 75 105 77
Width: 455
Flags: W
HStem: 0 21G<106 346> 1042 20G<332 572> 1218 248<423 601>
VStem: 106 548<0 1466>
Fore
370 1218 m 1
 423 1466 l 1
 654 1466 l 1
 601 1218 l 1
 370 1218 l 1
106 0 m 1
 332 1062 l 1
 572 1062 l 1
 346 0 l 1
 106 0 l 1
EndSplineSet
EndChar
StartChar: j
Encoding: 76 106 78
Width: 455
Flags: W
HStem: -428 215<-139.552 2.7> 1042 20G<338 566> 1220 246<424 599>
VStem: -182 834<-412 1466>
Fore
371 1220 m 1
 424 1466 l 1
 652 1466 l 1
 599 1220 l 1
 371 1220 l 1
-182 -412 m 1
 -138 -205 l 1
 -104 -210 -83 -213 -74 -213 c 0
 -15 -213 29 -193 57 -152 c 0
 78 -120 96 -76 108 -20 c 2
 338 1062 l 1
 566 1062 l 1
 328 -58 l 2
 288 -246 212 -362 100 -406 c 0
 62 -421 20 -428 -26 -428 c 0
 -83 -428 -135 -423 -182 -412 c 1
EndSplineSet
EndChar
StartChar: k
Encoding: 77 107 79
Width: 1024
Flags: W
HStem: 0 21G<136 356 740 1016> 1042 20G<922 1201> 1446 20G<448 668>
Fore
136 0 m 1
 448 1466 l 1
 668 1466 l 1
 501 684 l 1
 922 1062 l 1
 1201 1062 l 1
 727 636 l 1
 1016 0 l 1
 740 0 l 1
 546 484 l 1
 439 390 l 1
 356 0 l 1
 136 0 l 1
EndSplineSet
EndChar
StartChar: l
Encoding: 78 108 80
Width: 455
Flags: W
HStem: 0 21G<104 340> 1446 20G<416 652>
VStem: 104 548<0 1466>
Fore
104 0 m 1
 416 1466 l 1
 652 1466 l 1
 340 0 l 1
 104 0 l 1
EndSplineSet
EndChar
StartChar: m
Encoding: 79 109 81
Width: 1706
Flags: W
HStem: 0 21G<135 362 742 986 1356 1574> 842 244<699.5 820.795 1368.72 1507.2>
Fore
135 0 m 1
 361 1062 l 1
 569 1062 l 1
 551 978 l 1
 634 1050 734 1086 849 1086 c 0
 962 1086 1043 1057 1091 999 c 0
 1105 984 1115 967 1120 948 c 1
 1167 1005 1238 1045 1336 1069 c 0
 1384 1080 1430 1086 1477 1086 c 0
 1671 1086 1759 992 1741 803 c 0
 1739 780 1734 755 1729 729 c 2
 1574 0 l 1
 1356 0 l 1
 1498 669 l 1
 1517 782 1479 839 1385 842 c 1
 1257 842 1173 784 1131 668 c 0
 1126 652 1121 635 1117 617 c 2
 986 0 l 1
 742 0 l 1
 889 690 l 2
 904 761 883 807 824 830 c 0
 805 838 782 842 757 842 c 0
 636 842 551 773 503 636 c 0
 494 610 486 582 479 551 c 2
 362 0 l 1
 135 0 l 1
EndSplineSet
EndChar
StartChar: n
Encoding: 80 110 82
Width: 1139
Flags: W
HStem: 0 21G<135 368 776 1000> 1044 20G<361 594>
VStem: 135 1008<0 673>
Fore
135 0 m 1
 361 1064 l 1
 594 1064 l 1
 583 1012 l 1
 632 1050 681 1074 731 1085 c 0
 761 1092 796 1095 833 1095 c 0
 982 1095 1081 1044 1128 941 c 0
 1161 870 1166 781 1143 673 c 2
 1000 0 l 1
 776 0 l 1
 909 624 l 2
 933 737 907 803 832 822 c 0
 815 826 795 828 772 828 c 0
 677 828 602 786 547 701 c 0
 517 655 495 599 481 532 c 2
 368 0 l 1
 135 0 l 1
EndSplineSet
EndChar
StartChar: o
Encoding: 81 111 83
Width: 1139
Flags: W
HStem: -11 217<528.419 705.7> 864 222<612.4 826.7>
VStem: 181 998<508.413 569.139 531 546>
Fore
181 531 m 0
 221 722 304 866 429 964 c 0
 532 1045 655 1086 797 1086 c 0
 959 1086 1073 1032 1140 924 c 0
 1199 828 1212 702 1179 546 c 0
 1128 306 1020 143 855 56 c 0
 770 11 673 -11 564 -11 c 0
 375 -11 252 55 195 187 c 0
 156 276 151 391 181 531 c 0
421 529 m 0
 388 372 415 271 501 228 c 0
 531 213 567 206 610 206 c 0
 733 206 825 266 885 387 c 0
 906 430 923 479 935 534 c 0
 962 665 947 759 889 815 c 0
 855 848 809 864 750 864 c 0
 639 864 552 812 488 708 c 0
 459 658 436 598 421 529 c 0
EndSplineSet
EndChar
StartChar: p
Encoding: 82 112 84
Width: 1139
Flags: W
HStem: -10 216<519.9 699.3> 878 208<696 888.6>
Fore
542 992 m 1
 556 1002 556 1002 568 1010 c 0
 642 1061 723 1086 813 1086 c 0
 952 1086 1052 1037 1113 940 c 0
 1176 839 1190 702 1153 529 c 0
 1120 374 1056 248 960 150 c 0
 855 43 732 -10 589 -10 c 0
 502 -10 427 22 362 86 c 1
 261 -390 l 1
 37 -390 l 1
 349 1076 l 1
 560 1076 l 1
 542 992 l 1
446 538 m 0
 428 453 433 380 458 317 c 0
 490 243 543 206 620 206 c 0
 681 206 735 223 784 257 c 0
 866 315 921 411 950 545 c 0
 966 623 966 689 950 743 c 0
 923 832 858 877 756 878 c 0
 697 878 643 858 596 819 c 0
 523 759 473 665 446 538 c 0
EndSplineSet
EndChar
StartChar: q
Encoding: 83 113 85
Width: 1139
Flags: W
HStem: -10 216<517.7 648.1> 878 208<611.8 823.7>
Fore
1026 1076 m 1
 1237 1076 l 1
 925 -390 l 1
 701 -390 l 1
 802 86 l 1
 711 22 622 -10 535 -10 c 0
 393 -10 292 43 232 150 c 0
 178 248 166 374 199 529 c 0
 236 702 308 839 415 940 c 0
 517 1037 638 1086 777 1086 c 0
 867 1086 938 1061 990 1010 c 0
 996 1005 1002 999 1008 992 c 1
 1026 1076 l 1
910 538 m 0
 937 665 927 759 881 819 c 0
 850 858 806 878 747 878 c 0
 643 877 559 832 494 743 c 0
 454 689 426 623 410 545 c 0
 381 411 396 315 454 257 c 0
 487 223 536 206 597 206 c 0
 673 206 742 243 804 317 c 0
 857 380 892 453 910 538 c 0
EndSplineSet
EndChar
StartChar: r
Encoding: 84 114 86
Width: 682
Flags: W
HStem: 0 21G<133 380> 1042 20G<359 588>
VStem: 133 796<0 1028>
Fore
133 0 m 1
 359 1062 l 1
 588 1062 l 1
 563 947 l 1
 593 986 619 1014 643 1030 c 0
 656 1038 670 1045 687 1052 c 0
 694 1055 704 1058 714 1062 c 0
 742 1072 774 1077 809 1077 c 0
 843 1077 870 1070 892 1055 c 2
 929 1028 l 1
 816 789 l 1
 773 823 l 1
 754 828 l 1
 741 828 l 2
 718 828 696 824 675 817 c 0
 658 811 642 803 625 792 c 0
 578 761 540 699 512 604 c 0
 503 572 493 532 483 484 c 2
 380 0 l 1
 133 0 l 1
EndSplineSet
KernsSLIFO: 18 -113 0 0 16 -113 0 0
EndChar
StartChar: s
Encoding: 85 115 87
Width: 1024
Flags: W
HStem: -11 212<470.438 651.3> 875 211<585.5 772.497>
Fore
139 358 m 1
 367 358 l 1
 362 297 386 253 437 226 c 0
 468 209 509 201 559 201 c 0
 630 201 690 219 736 255 c 0
 759 272 771 289 775 306 c 0
 786 356 776 390 746 408 c 0
 728 419 685 430 617 443 c 0
 482 469 389 498 339 531 c 0
 269 576 240 646 252 739 c 0
 254 752 256 766 259 780 c 0
 282 884 343 964 444 1020 c 0
 522 1064 613 1086 715 1086 c 0
 886 1086 996 1042 1048 953 c 0
 1076 902 1082 839 1067 764 c 1
 841 764 l 1
 848 817 821 852 761 867 c 0
 740 872 714 875 683 875 c 0
 608 874 552 856 518 821 c 0
 506 810 498 797 495 783 c 0
 495 781 495 781 494 778 c 0
 488 733 501 702 536 685 c 0
 551 677 592 667 656 654 c 0
 786 629 876 601 926 570 c 0
 973 541 1003 503 1016 456 c 0
 1025 419 1025 376 1014 325 c 0
 991 218 928 133 825 71 c 0
 734 16 632 -11 515 -11 c 0
 338 -11 222 41 167 145 c 0
 136 202 127 273 139 358 c 1
EndSplineSet
EndChar
StartChar: t
Encoding: 86 116 88
Width: 569
Flags: W
HStem: -13 204<408 525.292> 892 196<249 330 603 687>
VStem: 184 544<130 1088>
Fore
570 199 m 1
 554 2 l 1
 504 -8 455 -13 408 -13 c 0
 328 -13 274 -4 245 15 c 0
 242 17 l 0
 206 44 186 82 184 130 c 0
 181 170 189 230 206 311 c 2
 330 892 l 1
 208 892 l 1
 249 1088 l 1
 371 1088 l 1
 445 1433 l 1
 677 1433 l 1
 603 1088 l 1
 728 1088 l 1
 687 892 l 1
 562 892 l 1
 436 301 l 2
 429 269 428 248 432 238 c 0
 433 234 433 234 433 232 c 0
 437 222 445 213 457 205 c 0
 470 196 489 191 515 191 c 0
 516 191 534 194 570 199 c 1
EndSplineSet
EndChar
StartChar: u
Encoding: 87 117 89
Width: 1139
Flags: W
HStem: 0 21G<789 969> 1065 20G<335 561 957 1200>
VStem: 192 1008<412 1085>
Fore
1200 1085 m 1
 969 0 l 1
 789 0 l 1
 803 64 l 1
 763 29 699 6 611 -5 c 0
 585 -8 560 -10 535 -10 c 0
 366 -10 256 42 206 147 c 0
 174 215 168 303 192 412 c 2
 335 1085 l 1
 561 1085 l 1
 428 461 l 2
 407 361 429 294 497 261 c 0
 522 249 552 243 586 243 c 0
 693 243 766 292 804 390 c 0
 811 410 818 432 823 456 c 2
 957 1085 l 1
 1200 1085 l 1
EndSplineSet
EndChar
StartChar: v
Encoding: 88 118 90
Width: 1024
Flags: W
HStem: 0 21G<429 599> 1042 20G<252 494 986 1226>
Fore
429 0 m 1
 252 1062 l 1
 494 1062 l 1
 597 360 l 1
 986 1062 l 1
 1226 1062 l 1
 599 0 l 1
 429 0 l 1
EndSplineSet
KernsSLIFO: 18 -152 0 0 16 -152 0 0
EndChar
StartChar: w
Encoding: 89 119 91
Width: 1479
Flags: W
HStem: 0 21G<296 544 956 1200> 1042 20G<232 482 874 1058 1462 1689>
Fore
296 0 m 1
 232 1062 l 1
 482 1062 l 1
 501 364 l 1
 874 1062 l 1
 1058 1062 l 1
 1146 364 l 1
 1462 1062 l 1
 1689 1062 l 1
 1200 0 l 1
 956 0 l 1
 947 149 922 374 884 676 c 1
 544 0 l 1
 296 0 l 1
EndSplineSet
KernsSLIFO: 18 -113 0 0 16 -113 0 0
EndChar
StartChar: x
Encoding: 90 120 92
Width: 1024
Flags: W
HStem: 0 21G<15 284 732 1009> 1042 20G<270 550 926 1207>
Fore
15 0 m 1
 463 552 l 1
 270 1062 l 1
 550 1062 l 1
 657 744 l 1
 926 1062 l 1
 1207 1062 l 1
 776 562 l 1
 1009 0 l 1
 732 0 l 1
 583 369 l 1
 284 0 l 1
 15 0 l 1
EndSplineSet
EndChar
StartChar: y
Encoding: 91 121 93
Width: 1024
Flags: W
HStem: -422 216<81.1007 238.7> 1042 20G<259 518 970 1232>
Fore
40 -409 m 1
 66 -192 l 1
 98 -201 133 -206 170 -206 c 0
 217 -206 257 -198 288 -183 c 1
 354 -153 394 -110 406 -54 c 0
 409 -37 410 -19 408 0 c 1
 259 1062 l 1
 518 1062 l 1
 604 372 l 1
 970 1062 l 1
 1232 1062 l 1
 624 0 l 1
 585 -123 526 -223 447 -302 c 0
 418 -331 383 -355 340 -375 c 0
 282 -402 218 -418 149 -422 c 1
 96 -421 l 1
 75 -419 56 -415 40 -409 c 1
EndSplineSet
KernsSLIFO: 18 -152 0 0 16 -152 0 0
EndChar
StartChar: z
Encoding: 92 122 94
Width: 1024
Flags: W
HStem: 0 212<389 980> 864 198<286 848>
Fore
40 0 m 1
 85 212 l 1
 848 864 l 1
 244 864 l 1
 286 1062 l 1
 1174 1062 l 1
 1132 864 l 1
 389 212 l 1
 1025 212 l 1
 980 0 l 1
 40 0 l 1
EndSplineSet
EndChar
StartChar: braceleft
Encoding: 93 123 95
Width: 684
Flags: W
VStem: 310 218<187.301 357.8>
Fore
187 612 m 1
 238 613 283 627 322 654 c 0
 360 681 388 717 409 762 c 0
 430 808 452 891 479 1011 c 0
 505 1131 528 1217 547 1270 c 0
 567 1323 594 1366 630 1401 c 0
 665 1436 705 1460 752 1475 c 0
 783 1486 832 1491 897 1491 c 2
 953 1491 l 1
 908 1280 l 1
 877 1280 l 2
 849 1280 831 1278 821 1273 c 1
 795 1254 l 2
 770 1236 750 1205 736 1160 c 0
 727 1135 712 1075 693 981 c 0
 662 838 624 736 581 676 c 0
 550 634 550 634 541 623 c 0
 508 582 468 551 421 530 c 1
 443 519 461 505 473 486 c 1
 502 426 l 1
 524 382 533 323 528 249 c 0
 524 204 509 119 483 -6 c 0
 464 -93 463 -149 481 -174 c 1
 494 -196 l 1
 502 -207 524 -212 560 -212 c 2
 591 -212 l 1
 544 -431 l 1
 488 -431 l 2
 431 -431 390 -427 367 -420 c 0
 332 -409 304 -394 285 -374 c 0
 265 -353 251 -326 241 -292 c 0
 232 -259 231 -214 237 -157 c 0
 241 -121 255 -48 277 63 c 0
 300 174 312 253 310 298 c 0
 309 344 296 380 270 407 c 0
 242 434 203 448 152 449 c 1
 187 612 l 1
EndSplineSet
EndChar
StartChar: bar
Encoding: 94 124 96
Width: 532
Flags: W
VStem: 48 659<-431 1491>
Fore
48 -431 m 1
 457 1491 l 1
 707 1491 l 1
 298 -431 l 1
 48 -431 l 1
EndSplineSet
EndChar
StartChar: braceright
Encoding: 95 125 97
Width: 684
Flags: W
VStem: -45 801<-431 612>
Fore
756 612 m 1
 721 449 l 1
 670 448 625 434 587 407 c 0
 549 380 520 344 499 298 c 0
 479 253 457 174 432 63 c 0
 408 -48 390 -122 380 -157 c 0
 362 -214 341 -259 318 -292 c 0
 294 -326 268 -353 240 -374 c 0
 211 -394 177 -409 138 -420 c 0
 111 -427 68 -431 11 -431 c 2
 -45 -431 l 1
 2 -212 l 1
 33 -212 l 2
 69 -212 93 -207 105 -196 c 1
 128 -174 l 1
 156 -149 179 -93 198 -6 c 0
 224 119 245 204 261 249 c 0
 288 323 321 382 363 426 c 1
 416 486 l 1
 436 505 460 519 488 530 c 1
 449 551 422 581 407 622 c 0
 404 629 399 647 390 676 c 0
 371 736 377 838 408 981 c 0
 427 1075 438 1135 441 1160 c 0
 445 1205 439 1236 422 1254 c 2
 404 1273 l 1
 385 1278 l 2
 377 1279 365 1280 350 1280 c 2
 319 1280 l 1
 364 1491 l 1
 420 1491 l 2
 485 1491 532 1486 559 1475 c 0
 598 1460 628 1436 649 1401 c 0
 669 1366 678 1323 676 1270 c 0
 673 1217 658 1131 634 1011 c 0
 609 891 597 808 598 762 c 0
 599 717 613 681 639 654 c 0
 666 627 705 613 756 612 c 1
EndSplineSet
EndChar
StartChar: asciitilde
Encoding: 96 126 98
Width: 1196
Flags: W
HStem: 665 237<411.381 560.931>
Fore
199 529 m 1
 253 782 l 1
 341 862 442 902 557 902 c 0
 597 902 637 896 679 884 c 0
 721 873 779 850 852 815 c 0
 894 796 925 783 947 777 c 0
 969 771 992 768 1015 768 c 0
 1058 768 1106 781 1158 807 c 0
 1210 833 1258 866 1302 905 c 1
 1247 645 l 1
 1196 605 1146 576 1099 558 c 0
 1052 540 1001 531 946 531 c 0
 906 531 869 536 834 545 c 0
 800 554 748 577 676 612 c 0
 605 647 542 665 489 665 c 0
 446 665 404 656 364 638 c 0
 322 619 267 583 199 529 c 1
EndSplineSet
EndChar
StartChar: exclamdown
Encoding: 98 161 100
Width: 680
Flags: W
HStem: 0 21G<228 452> 1059 20G<485 651> 1278 211<554 714>
VStem: 228 530<0 1489>
Fore
714 1278 m 1
 510 1278 l 1
 554 1489 l 1
 758 1489 l 1
 714 1278 l 1
452 0 m 1
 228 0 l 1
 485 1079 l 1
 651 1079 l 1
 452 0 l 1
EndSplineSet
EndChar
StartChar: cent
Encoding: 99 162 101
Width: 1118
Flags: W
HStem: 1455 20G<871 985>
VStem: 232 963<557 1037>
Fore
557 2 m 1
 418 19 320 75 264 171 c 0
 209 267 198 396 232 557 c 0
 266 716 332 844 432 943 c 0
 532 1042 653 1099 794 1115 c 1
 871 1475 l 1
 985 1475 l 1
 908 1116 l 1
 966 1114 1020 1105 1070 1090 c 0
 1120 1074 1162 1056 1195 1037 c 1
 1153 837 l 1
 1143 837 l 1
 1109 871 1072 901 1030 926 c 0
 988 951 938 968 879 977 c 1
 701 141 l 1
 735 144 768 152 805 164 c 0
 839 176 870 189 896 202 c 0
 923 216 947 230 969 244 c 0
 991 257 1009 270 1025 281 c 1
 1035 281 l 1
 993 83 l 1
 945 63 896 45 846 30 c 0
 795 14 737 4 671 1 c 1
 594 -361 l 1
 480 -361 l 1
 557 2 l 1
588 146 m 1
 763 971 l 1
 683 957 613 915 554 846 c 0
 494 776 452 680 425 557 c 0
 399 432 401 335 433 268 c 0
 464 200 516 159 588 146 c 1
EndSplineSet
EndChar
StartChar: sterling
Encoding: 100 163 102
Width: 1118
Flags: W
HStem: 0 171<297 1031> 613 138<290 421 643 977> 1351 167<907.4 1098.01>
Fore
1031 0 m 1
 89 0 l 1
 133 207 l 1
 212 229 273 272 317 335 c 0
 361 398 395 491 421 613 c 1
 260 613 l 1
 290 751 l 1
 451 751 l 1
 519 1071 l 2
 547 1205 609 1313 704 1395 c 0
 798 1477 908 1518 1031 1518 c 0
 1096 1518 1150 1513 1193 1502 c 0
 1237 1492 1277 1481 1313 1470 c 1
 1270 1264 l 1
 1260 1264 l 1
 1226 1291 1188 1313 1144 1328 c 0
 1100 1343 1057 1351 1014 1351 c 0
 932 1351 866 1325 815 1274 c 0
 763 1223 727 1149 707 1052 c 2
 643 751 l 1
 1007 751 l 1
 977 613 l 1
 613 613 l 1
 600 552 l 2
 584 474 550 403 496 340 c 0
 445 276 378 223 300 182 c 1
 297 171 l 1
 1067 171 l 1
 1031 0 l 1
EndSplineSet
EndChar
StartChar: currency
Encoding: 101 164 103
Width: 1118
Flags: W
HStem: 326 138<590.1 720.006> 858 138<695.104 810.9>
Fore
1115 272 m 1
 986 166 l 1
 817 378 l 1
 784 360 753 347 725 338 c 0
 697 330 665 326 629 326 c 0
 598 326 568 331 540 341 c 0
 511 351 486 364 466 379 c 1
 205 164 l 1
 123 273 l 1
 380 486 l 1
 369 513 363 542 360 572 c 0
 358 604 360 633 366 661 c 0
 372 690 383 720 397 750 c 0
 414 779 433 808 455 835 c 1
 288 1051 l 1
 418 1157 l 1
 587 944 l 1
 615 960 645 973 678 982 c 0
 711 991 742 996 772 996 c 0
 807 996 838 991 866 980 c 0
 894 970 918 958 937 945 c 1
 1194 1157 l 1
 1281 1052 l 1
 1021 836 l 1
 1033 807 1040 780 1043 753 c 0
 1046 726 1044 696 1036 661 c 0
 1030 631 1019 600 1003 570 c 0
 986 538 968 511 946 486 c 1
 1115 272 l 1
892 661 m 0
 904 714 895 760 866 800 c 0
 836 838 795 858 742 858 c 0
 691 858 642 839 596 800 c 0
 549 762 520 716 508 661 c 0
 497 608 506 562 535 522 c 0
 565 484 606 464 659 464 c 0
 710 464 759 483 805 522 c 0
 852 560 881 606 892 661 c 0
EndSplineSet
EndChar
StartChar: yen
Encoding: 102 165 104
Width: 1118
Flags: W
HStem: 0 21G<465 653> 440 138<248 559 774 1087>
Fore
1375 1489 m 1
 795 678 l 1
 774 578 l 1
 1116 578 l 1
 1087 440 l 1
 747 440 l 1
 653 0 l 1
 465 0 l 1
 559 440 l 1
 219 440 l 1
 248 578 l 1
 590 578 l 1
 607 657 l 1
 372 1489 l 1
 582 1489 l 1
 741 850 l 1
 1174 1489 l 1
 1375 1489 l 1
EndSplineSet
EndChar
StartChar: brokenbar
Encoding: 103 166 105
Width: 783
Flags: W
VStem: 225 581<-392 1556>
Fore
636 758 m 1
 469 758 l 1
 639 1556 l 1
 806 1556 l 1
 636 758 l 1
392 -392 m 1
 225 -392 l 1
 394 406 l 1
 561 406 l 1
 392 -392 l 1
EndSplineSet
EndChar
StartChar: section
Encoding: 104 167 106
Width: 1118
Flags: W
HStem: -385 165<346.348 544.902> 1355 164<794.356 1007.33>
Fore
844 401 m 0
 865 424 883 447 895 468 c 0
 910 490 920 519 928 555 c 0
 935 588 936 616 932 640 c 0
 927 664 918 684 905 699 c 0
 892 714 876 727 857 738 c 0
 838 748 815 757 789 766 c 0
 758 776 758 776 716 788 c 0
 689 797 659 807 624 819 c 1
 609 811 593 801 576 789 c 0
 559 777 540 760 518 738 c 0
 501 721 484 697 466 668 c 0
 450 639 437 609 431 579 c 0
 420 525 423 482 442 450 c 0
 460 418 503 391 570 369 c 0
 602 359 602 359 644 346 c 0
 684 332 684 332 734 315 c 1
 749 323 765 334 785 348 c 0
 805 362 825 380 844 401 c 0
154 -133 m 1
 169 -142 189 -151 212 -162 c 0
 235 -173 258 -182 281 -190 c 0
 309 -200 337 -208 363 -212 c 0
 389 -218 421 -220 462 -220 c 0
 538 -220 605 -204 663 -174 c 0
 720 -142 755 -97 768 -36 c 0
 776 0 776 29 769 52 c 0
 761 74 745 94 722 111 c 0
 697 128 666 142 627 154 c 0
 569 171 569 171 501 192 c 0
 445 209 400 226 366 243 c 0
 329 260 299 283 274 312 c 0
 250 339 235 371 228 407 c 0
 220 443 222 485 232 533 c 0
 246 596 274 655 319 712 c 0
 364 768 425 817 500 858 c 1
 502 865 l 1
 448 898 414 939 398 986 c 0
 381 1033 379 1087 392 1147 c 0
 416 1259 478 1349 577 1417 c 0
 677 1485 802 1519 951 1519 c 0
 1008 1519 1059 1515 1105 1506 c 0
 1151 1497 1202 1483 1257 1462 c 1
 1216 1268 l 1
 1206 1268 l 1
 1152 1298 1101 1320 1052 1334 c 0
 1004 1348 951 1355 895 1355 c 0
 820 1355 754 1340 696 1310 c 0
 638 1279 603 1235 590 1176 c 0
 582 1138 582 1107 590 1083 c 0
 599 1059 615 1039 638 1024 c 0
 660 1008 690 994 729 981 c 0
 766 968 809 955 857 942 c 0
 973 909 1051 866 1093 814 c 0
 1134 761 1145 690 1126 601 c 0
 1110 529 1079 466 1032 412 c 0
 983 358 926 313 858 277 c 1
 856 270 l 1
 908 239 943 201 961 154 c 0
 978 107 980 53 967 -10 c 0
 956 -59 935 -108 905 -155 c 0
 873 -202 836 -242 790 -274 c 0
 741 -309 685 -337 624 -356 c 0
 562 -375 490 -385 408 -385 c 0
 355 -385 304 -380 254 -371 c 0
 204 -362 153 -347 102 -327 c 1
 144 -133 l 1
 154 -133 l 1
EndSplineSet
EndChar
StartChar: dieresis
Encoding: 105 168 107
Width: 1118
Flags: W
HStem: 1304 195<572 731 985 1144>
VStem: 530 656<1304 1499>
Fore
1144 1304 m 1
 943 1304 l 1
 985 1499 l 1
 1186 1499 l 1
 1144 1304 l 1
731 1304 m 1
 530 1304 l 1
 572 1499 l 1
 773 1499 l 1
 731 1304 l 1
EndSplineSet
EndChar
StartChar: copyright
Encoding: 106 169 108
Width: 1902
Flags: W
HStem: -210 110<661.9 1200.1> 180 147<942.9 1135.59> 996 147<1091.4 1276.96> 1409 110<981.9 1520.1>
Fore
1955 655 m 0
 1904 416 1777 212 1571 44 c 0
 1367 -126 1145 -210 906 -210 c 0
 667 -210 481 -126 349 44 c 0
 215 212 174 416 225 655 c 0
 276 894 403 1097 609 1266 c 0
 813 1435 1035 1519 1274 1519 c 0
 1513 1519 1699 1435 1831 1266 c 0
 1965 1097 2006 894 1955 655 c 0
1840 655 m 0
 1885 864 1849 1042 1735 1188 c 0
 1619 1336 1458 1409 1251 1409 c 0
 1044 1409 853 1336 675 1188 c 0
 497 1042 387 864 342 655 c 0
 298 446 333 268 448 121 c 0
 563 -26 724 -100 931 -100 c 0
 1138 -100 1329 -26 1508 121 c 0
 1685 268 1796 446 1840 655 c 0
1328 255 m 1
 1279 235 1231 218 1183 202 c 0
 1135 188 1081 180 1020 180 c 0
 881 180 780 221 717 304 c 0
 653 386 638 505 671 660 c 0
 704 813 771 932 872 1016 c 0
 973 1101 1091 1143 1225 1143 c 0
 1280 1143 1331 1136 1379 1121 c 0
 1427 1106 1467 1089 1501 1070 c 1
 1463 889 l 1
 1447 889 l 1
 1423 914 1389 938 1343 962 c 0
 1297 984 1249 996 1198 996 c 0
 1116 996 1044 969 984 914 c 0
 923 859 881 775 856 660 c 0
 833 552 839 470 874 412 c 0
 909 356 969 327 1056 327 c 0
 1112 327 1167 339 1222 364 c 0
 1277 388 1320 411 1350 434 c 1
 1366 434 l 1
 1328 255 l 1
EndSplineSet
EndChar
StartChar: ordfeminine
Encoding: 107 170 109
Width: 1010
Flags: W
HStem: 541 155<519 635.086> 1030.26 132.739<612.682 973.857> 1365 154<675.873 884.693>
VStem: 292 836<839 1194>
Fore
994 566 m 1
 828 566 l 1
 848 657 l 1
 825 642 825 642 788 618 c 0
 764 603 740 590 717 581 c 0
 688 568 659 558 631 552 c 0
 603 544 566 541 519 541 c 0
 436 541 373 569 330 624 c 0
 287 680 274 752 292 839 c 0
 307 908 333 965 371 1008 c 0
 410 1052 458 1087 516 1112 c 0
 571 1136 638 1153 716 1163 c 0
 794 1173 876 1180 960 1184 c 1
 964 1203 l 2
 971 1238 971 1266 966 1287 c 0
 958 1308 946 1325 927 1337 c 0
 911 1348 888 1356 860 1360 c 0
 832 1363 803 1365 772 1365 c 0
 720 1365 665 1357 609 1342 c 0
 552 1326 509 1313 481 1304 c 1
 466 1304 l 1
 502 1474 l 1
 533 1483 579 1492 639 1503 c 0
 701 1514 756 1519 806 1519 c 0
 934 1519 1026 1494 1081 1442 c 0
 1137 1392 1152 1309 1128 1194 c 2
 994 566 l 1
878 802 m 1
 930 1045 l 1
 886 1042 835 1038 777 1033 c 0
 719 1028 671 1020 635 1010 c 0
 592 999 556 980 526 954 c 0
 495 929 476 894 466 849 c 0
 456 799 463 761 486 735 c 0
 510 709 551 696 609 696 c 0
 660 696 707 707 753 729 c 0
 798 751 840 775 878 802 c 1
EndSplineSet
EndChar
StartChar: guillemotleft
Encoding: 108 171 110
Width: 1174
Flags: W
HStem: 162 980<647 856>
Fore
1084 191 m 1
 685 610 l 1
 703 695 l 1
 1280 1113 l 1
 1240 925 l 1
 865 652 l 1
 1124 379 l 1
 1084 191 l 1
647 162 m 1
 232 608 l 1
 251 697 l 1
 856 1142 l 1
 814 946 l 1
 421 652 l 1
 689 358 l 1
 647 162 l 1
EndSplineSet
EndChar
StartChar: logicalnot
Encoding: 109 172 111
Width: 1490
Flags: W
HStem: 602 160<319 1280>
Fore
1335 57 m 1
 1164 57 l 1
 1280 602 l 1
 285 602 l 1
 319 762 l 1
 1485 762 l 1
 1335 57 l 1
EndSplineSet
EndChar
StartChar: registered
Encoding: 111 174 113
Width: 1902
Flags: W
HStem: -210 110<661.9 1200.1> 570 126<963 1059> 1005 125<1029 1245.42> 1409 110<981.9 1520.1>
Fore
1955 655 m 0
 1904 416 1777 212 1571 44 c 0
 1367 -126 1145 -210 906 -210 c 0
 667 -210 481 -126 349 44 c 0
 215 212 174 416 225 655 c 0
 276 894 403 1097 609 1266 c 0
 813 1435 1035 1519 1274 1519 c 0
 1513 1519 1699 1435 1831 1266 c 0
 1965 1097 2006 894 1955 655 c 0
1840 655 m 0
 1885 864 1849 1042 1735 1188 c 0
 1619 1336 1458 1409 1251 1409 c 0
 1044 1409 853 1336 675 1188 c 0
 497 1042 387 864 342 655 c 0
 298 446 333 268 448 121 c 0
 563 -26 724 -100 931 -100 c 0
 1138 -100 1329 -26 1508 121 c 0
 1685 268 1796 446 1840 655 c 0
1494 215 m 1
 1267 215 l 1
 1059 570 l 1
 936 570 l 1
 861 215 l 1
 696 215 l 1
 890 1130 l 1
 1169 1130 l 2
 1232 1130 1281 1128 1317 1123 c 0
 1352 1118 1386 1105 1418 1084 c 0
 1454 1061 1477 1034 1488 1002 c 0
 1499 970 1499 929 1489 879 c 0
 1475 812 1445 758 1398 715 c 0
 1353 672 1297 639 1233 615 c 1
 1494 215 l 1
1304 868 m 0
 1310 893 1310 914 1306 932 c 0
 1302 950 1291 965 1274 978 c 0
 1259 989 1243 996 1223 1000 c 0
 1202 1003 1177 1005 1144 1005 c 2
 1029 1005 l 1
 963 696 l 1
 1061 696 l 2
 1093 696 1124 699 1153 706 c 0
 1182 712 1208 723 1228 738 c 0
 1248 753 1265 771 1276 791 c 0
 1288 811 1298 837 1304 868 c 0
EndSplineSet
EndChar
StartChar: macron
Encoding: 112 175 114
Width: 1118
Flags: W
HStem: 1659 130<364 1487>
Fore
1487 1659 m 1
 337 1659 l 1
 364 1789 l 1
 1514 1789 l 1
 1487 1659 l 1
EndSplineSet
EndChar
StartChar: degree
Encoding: 113 176 115
Width: 964
Flags: W
HStem: 755 152<594.4 758.2> 1363 152<688.8 855.2>
VStem: 342 762<1096.15 1172.16 1135 1135>
Fore
1104 1135 m 0
 1082 1028 1025 938 937 865 c 0
 848 792 749 755 642 755 c 0
 536 755 454 791 396 864 c 0
 337 937 319 1027 342 1135 c 0
 365 1242 421 1332 510 1405 c 0
 598 1478 697 1515 804 1515 c 0
 911 1515 994 1478 1052 1405 c 0
 1109 1332 1127 1242 1104 1135 c 0
947 1135 m 0
 961 1199 951 1253 918 1297 c 0
 884 1341 836 1363 772 1363 c 0
 708 1363 650 1341 598 1297 c 0
 545 1253 513 1199 499 1135 c 0
 485 1070 496 1015 531 972 c 0
 564 929 613 907 675 907 c 0
 739 907 796 929 849 974 c 0
 901 1018 934 1072 947 1135 c 0
EndSplineSet
EndChar
StartChar: plusminus
Encoding: 114 177 116
Width: 1490
Flags: W
HStem: 159 158<229 729 895 1362> 739 158<353 819 1019 1485>
Fore
1362 159 m 1
 196 159 l 1
 229 317 l 1
 729 317 l 1
 819 739 l 1
 319 739 l 1
 353 897 l 1
 853 897 l 1
 960 1402 l 1
 1126 1402 l 1
 1019 897 l 1
 1519 897 l 1
 1485 739 l 1
 985 739 l 1
 895 317 l 1
 1395 317 l 1
 1362 159 l 1
EndSplineSet
EndChar
StartChar: uni00B2
Encoding: 115 178 117
Width: 1010
Flags: W
HStem: 566 144<524 986> 1371 148<687.24 817.442>
VStem: 305 762<566 1239>
Fore
986 566 m 1
 305 566 l 1
 338 718 l 1
 427 777 427 777 509 832 c 0
 564 868 609 900 644 929 c 0
 730 997 787 1050 817 1088 c 0
 848 1127 868 1173 880 1227 c 0
 890 1273 883 1308 860 1334 c 0
 836 1358 799 1371 748 1371 c 0
 702 1371 653 1361 603 1341 c 0
 551 1321 509 1300 478 1279 c 1
 463 1279 l 1
 501 1458 l 1
 547 1476 597 1491 649 1502 c 0
 704 1513 755 1519 804 1519 c 0
 908 1519 982 1493 1026 1440 c 0
 1071 1388 1085 1321 1067 1239 c 0
 1055 1182 1031 1128 993 1076 c 0
 955 1023 894 965 808 900 c 0
 767 869 720 837 666 802 c 0
 587 751 587 751 524 710 c 1
 1017 710 l 1
 986 566 l 1
EndSplineSet
EndChar
StartChar: uni00B3
Encoding: 116 179 118
Width: 1010
Flags: W
HStem: 542 139<524.741 699.837> 968 139<569 774.692> 1380 139<693.103 845.777>
VStem: 312 774<600 1281>
Fore
1013 828 m 0
 1003 781 984 738 956 700 c 0
 928 663 896 633 859 611 c 0
 819 586 777 569 733 558 c 0
 690 547 642 542 589 542 c 0
 534 542 484 547 438 557 c 0
 394 567 350 581 312 600 c 1
 349 775 l 1
 366 775 l 1
 386 752 419 730 466 710 c 0
 513 691 563 681 616 681 c 0
 672 681 720 693 763 718 c 0
 805 742 830 778 841 826 c 0
 851 874 843 910 820 933 c 0
 795 956 749 968 680 968 c 2
 540 968 l 1
 569 1107 l 1
 694 1107 l 2
 752 1107 800 1120 837 1145 c 0
 874 1170 897 1205 906 1249 c 0
 915 1289 908 1321 886 1344 c 0
 864 1368 823 1380 765 1380 c 0
 721 1380 671 1370 617 1349 c 0
 560 1328 519 1306 489 1283 c 1
 472 1283 l 1
 509 1458 l 1
 556 1476 605 1491 657 1502 c 0
 710 1513 762 1519 815 1519 c 0
 916 1519 990 1496 1037 1449 c 0
 1084 1402 1100 1346 1086 1281 c 0
 1074 1223 1048 1175 1008 1138 c 0
 967 1100 919 1072 864 1055 c 1
 863 1047 l 1
 913 1036 955 1013 985 976 c 0
 1018 940 1026 891 1013 828 c 0
EndSplineSet
EndChar
StartChar: acute
Encoding: 117 180 119
Width: 1118
Flags: W
HStem: 1302 374<875 1227>
VStem: 726 501<1302 1676>
Fore
1227 1676 m 1
 875 1302 l 1
 726 1302 l 1
 984 1676 l 1
 1227 1676 l 1
EndSplineSet
EndChar
StartChar: mu
Encoding: 118 181 120
Width: 1163
Flags: W
HStem: -17 181<522.571 664.47>
Fore
1027 0 m 1
 855 0 l 1
 880 116 l 1
 874 116 l 1
 825 74 778 41 732 18 c 0
 687 -5 634 -17 574 -17 c 0
 513 -17 467 -5 437 18 c 0
 407 41 377 74 348 115 c 1
 236 -412 l 1
 48 -412 l 1
 373 1117 l 1
 561 1117 l 1
 382 275 l 1
 403 242 433 215 470 194 c 0
 508 174 556 164 613 164 c 0
 673 164 725 174 771 193 c 0
 815 212 858 240 897 275 c 1
 1076 1117 l 1
 1264 1117 l 1
 1027 0 l 1
EndSplineSet
EndChar
StartChar: paragraph
Encoding: 119 182 121
Width: 1118
Flags: W
HStem: 1359 130<944 1131>
VStem: 280 1018<1050 1489>
Fore
905 -363 m 1
 765 -363 l 1
 1131 1359 l 1
 944 1359 l 1
 578 -363 l 1
 438 -363 l 1
 641 593 l 1
 505 596 403 639 336 722 c 0
 270 805 251 914 280 1050 c 0
 310 1188 375 1296 479 1373 c 0
 582 1450 714 1489 876 1489 c 2
 1298 1489 l 1
 905 -363 l 1
EndSplineSet
EndChar
StartChar: periodcentered
Encoding: 120 183 122
Width: 724
Flags: W
VStem: 420 299<832 1117>
Fore
659 832 m 1
 420 832 l 1
 480 1117 l 1
 719 1117 l 1
 659 832 l 1
EndSplineSet
EndChar
StartChar: cedilla
Encoding: 121 184 123
Width: 1118
Flags: W
HStem: -423 150<307.847 468.533>
VStem: 204 567<-399 20>
Fore
771 20 m 1
 770 8 768 -7 764 -26 c 0
 763 -44 759 -65 754 -89 c 0
 731 -197 684 -280 614 -337 c 0
 544 -394 465 -423 376 -423 c 0
 351 -423 323 -421 290 -417 c 0
 258 -413 229 -407 204 -399 c 1
 238 -239 l 1
 247 -239 l 1
 262 -246 281 -254 305 -262 c 0
 330 -269 355 -273 382 -273 c 0
 445 -273 492 -260 524 -234 c 0
 557 -207 579 -165 591 -107 c 0
 595 -90 599 -71 602 -50 c 0
 606 -29 610 -6 614 20 c 1
 771 20 l 1
EndSplineSet
EndChar
StartChar: uni0E01
Encoding: 122 3585 124
Width: 1240
Flags: W
HStem: 0 21G<188 408 862 1082> 929 220<683.2 987.665>
VStem: 1013.04 227.982<705.651 905.178>
Fore
1225 673 m 2
 1082 0 l 1
 862 0 l 1
 1002 657 l 2
 1009.36 692.057 1013.04 723.738 1013.04 752.035 c 0
 1013.04 869.837 949.204 929 821 929 c 0
 715 929 631 896 567 831 c 1
 633 795 673 739 687 663 c 1
 682 661 645 628 576 563 c 0
 536 526 506 460 485 363 c 2
 408 0 l 1
 188 0 l 1
 265 363 l 2
 283 448 306 509 332 546 c 0
 353 575 395 617 459 671 c 1
 424 726 366 767 286 792 c 1
 312 855 362 917 434 979 c 0
 564 1092 708 1149 868 1149 c 0
 1019 1149 1126 1102 1188 1008 c 0
 1223.44 955.807 1241.03 890.742 1241.03 813.073 c 0
 1241.03 770.207 1235.67 723.5 1225 673 c 2
EndSplineSet
EndChar
StartChar: uni0E02
Encoding: 123 3586 125
Width: 1400
Flags: W
HStem: 0 210<802 1042> 1119 20G<1239 1459>
VStem: 830.641 223.49<760.513 874.447>
Fore
443 662 m 1
 461 660 l 1
 485 662 507 676 527 702 c 0
 535 713 541 721 542 726 c 2
 552 765 l 2
 552.18 767.604 552.271 770.128 552.271 772.573 c 0
 552.271 797.348 542.934 813.988 522 824 c 0
 517 827 512 828 506 828 c 1
 489 825 l 1
 479 820 469 812 460 801 c 0
 448 786 439 771 431 755 c 0
 425 738 420 725 418 716 c 2
 417 694 l 1
 418 677 427 667 443 662 c 1
1048 771 m 1
 946 688 889 623 879 575 c 2
 820 298 l 2
 811 256 811 256 802 210 c 1
 885 210 885 210 921 210 c 0
 999 210 999 210 1042 210 c 1
 1056 276 1056 276 1060 298 c 2
 1239 1139 l 5
 1459 1139 l 1
 1280 298 l 2
 1240 110 1240 110 1217 0 c 1
 994 0 994 0 875 0 c 0
 722 0 722 0 537 0 c 1
 573 168 573 168 600 298 c 2
 659 575 l 2
 669 623 722 686 818 763 c 2
 828 771 l 1
 829.766 784.118 830.641 796.664 830.641 808.62 c 0
 830.641 844.059 822.955 874.325 808 899 c 0
 787 935 752 953 702 953 c 0
 694 953 687 953 682 952 c 0
 648 949 622 940 603 923 c 2
 602 922 l 1
 602 921 601 920 601 920 c 1
 651 914 679 881 684 820 c 0
 684.606 813.339 684.936 806.495 684.936 799.467 c 0
 684.936 783.283 683.183 766.128 679 748 c 0
 666 685 633 632 582 590 c 2
 552 568 l 2
 512 543 468 531 420 531 c 0
 409 531 401 531 395 532 c 0
 315 539 268 582 253 660 c 0
 250.278 674 248.917 689.059 248.917 705.176 c 0
 248.917 730.503 252.278 758.444 259 789 c 0
 261 800 263 809 265 815 c 0
 296 912 348 988 421 1043 c 0
 506 1107 594 1142 685 1148 c 0
 692 1149 704 1149 720 1149 c 0
 812 1149 888 1128 947 1086 c 0
 962 1076 975 1064 987 1049 c 0
 1017 1012 1038 961 1049 894 c 0
 1052.38 873.217 1054.13 852.902 1054.13 833.054 c 0
 1054.13 811.835 1052.13 791.151 1048 771 c 1
EndSplineSet
EndChar
StartChar: uni0E03
Encoding: 124 3587 126
Width: 1450
Flags: W
HStem: 0 210<855 1095> 1119 20G<1292 1512>
Fore
405 588 m 1
 424 586 l 1
 447 588 469 602 489 628 c 0
 498 639 503 647 505 652 c 2
 514 691 l 2
 514.346 694.346 514.519 697.559 514.519 700.642 c 0
 514.519 724.278 504.346 740.269 484 750 c 0
 480 753 474 754 468 754 c 1
 452 751 l 1
 441 746 432 738 423 727 c 0
 411 712 401 697 394 681 c 0
 387 664 382 651 380 642 c 0
 379.045 636.655 378.565 631.674 378.565 627.057 c 0
 378.565 607.492 387.2 594.473 405 588 c 1
860 929 m 1
 804.5 893 751.5 875 701 875 c 0
 650.5 875 602.5 893 557 929 c 1
 534 904 518 883 509 866 c 2
 508 865 508 864 507 862 c 1
 587 862 632 827 644 756 c 0
 645.6 745.2 646.4 734.4 646.4 723.536 c 0
 646.4 707.24 644.6 690.8 641 674 c 0
 628 611 596 558 545 516 c 0
 497 477 443 457 383 457 c 0
 372 457 363 457 357 458 c 0
 291 464 247 500 227 567 c 0
 219.792 589.734 216.273 614.004 216.273 639.471 c 0
 216.273 659.934 218.545 681.169 223 703 c 0
 225 712 229 725 234 741 c 0
 262 822 290 882 317 923 c 0
 335 948 356 974 380 999 c 0
 429 1048 485 1090 548 1124 c 0
 573 1137 591 1145 604 1149 c 1
 740 1041 l 1
 907 1149 l 1
 950 1137 988 1112 1021 1073 c 0
 1028 1065 1034 1057 1040 1049 c 0
 1070 1012 1091 961 1102 894 c 0
 1105.38 873.217 1107.13 852.902 1107.13 833.054 c 0
 1107.13 811.835 1105.13 791.151 1101 771 c 1
 999 688 942 623 932 575 c 2
 873 298 l 2
 864 256 864 256 855 210 c 1
 938 210 938 210 974 210 c 0
 1052 210 1052 210 1095 210 c 1
 1109 276 1109 276 1113 298 c 2
 1292 1139 l 1
 1512 1139 l 1
 1333 298 l 2
 1293 110 1293 110 1270 0 c 1
 1047 0 1047 0 929 0 c 0
 776 0 776 0 590 0 c 1
 626 168 626 168 653 298 c 2
 712 575 l 2
 723 624 772 680 859 745 c 0
 866 750 878 759 895 771 c 1
 895.9 778.876 896.345 786.955 896.345 795.225 c 0
 896.345 823.705 891.075 854.451 881 887 c 0
 875 903 869 917 860 929 c 1
EndSplineSet
EndChar
StartChar: uni0E04
Encoding: 125 3588 127
Width: 1370
Flags: W
HStem: 0 21G<251 491 980 1200> 929 220<828.903 960.341>
VStem: 288 221<346 576.104>
Fore
895 565 m 1
 886 571 878 574 869 574 c 0
 848 574 823 559 796 528 c 0
 774 503 760 481 757 464 c 0
 753 448 757 435 769 425 c 0
 777 418 786 415 798 415 c 0
 825 415 852 429 879 457 c 0
 893 472 902 488 905 505 c 0
 910 526 906 546 895 565 c 1
503 384 m 1
 556 476 591 533 608 555 c 0
 616 566 625 578 635 590 c 0
 680 643 734 680 796 702 c 0
 824 711 850 716 872 716 c 0
 885 716 898 714 912 711 c 0
 949 701 980 676 1005 637 c 0
 1019 615 1026 595 1027 577 c 2
 1031 557 1031 536 1026 514 c 0
 1017 471 992 429 949 388 c 0
 902 342 857 315 813 308 c 2
 772 305 l 1
 767 305 l 2
 736 306 711 314 694 331 c 0
 692 334 690 337 690 338 c 1
 670 320 627 254 562 141 c 0
 521 68 497 21 491 0 c 1
 251 0 l 1
 274 108 l 2
 282 147 287 227 288 346 c 0
 289 492 297 603 314 680 c 0
 322 722 334 761 350 798 c 0
 396 909 470 995 572 1056 c 0
 657 1107 750 1137 850 1146 c 0
 873 1148 898 1149 925 1149 c 2
 995 1146 l 2
 1077 1137 1150 1113 1213 1074 c 0
 1265 1043 1301 1004 1324 958 c 0
 1347.58 911.607 1359.59 860.587 1359.59 804.059 c 0
 1359.59 786.261 1358.39 767.917 1356 749 c 0
 1354 727 1349 703 1344 677 c 2
 1200 0 l 1
 980 0 l 1
 1121 664 l 2
 1126.89 691.318 1129.92 715.481 1129.92 736.179 c 0
 1129.92 754.122 1127.64 769.463 1123 782 c 0
 1103 839 1060 881 994 908 c 0
 958 922 920 929 882 929 c 0
 807 929 734 905 663 857 c 0
 626 833 598 805 578 774 c 0
 554 738 537 696 527 647 c 0
 519 610 513 548 509 459 c 0
 507 422 505 397 503 384 c 1
EndSplineSet
EndChar
StartChar: uni0E05
Encoding: 126 3589 128
Width: 1370
Flags: W
HStem: 0 21G<238 478 967 1187>
Fore
882 565 m 1
 873 571 864 574 855 574 c 0
 834 574 809 559 782 528 c 0
 760 503 747 482 744 464 c 0
 740 448 744 435 756 425 c 0
 764 418 773 415 784 415 c 0
 812 415 840 429 866 457 c 0
 881 472 889 488 891 505 c 0
 896 528 893 548 882 565 c 1
569 802 m 0
 546 765 529 721 518 668 c 0
 510 632 503 561 496 456 c 0
 494 426 491 402 490 384 c 1
 542 473 577 530 594 555 c 0
 607 571 616 583 622 590 c 0
 668 643 721 680 782 702 c 0
 810 711 836 716 858 716 c 0
 872 716 885 714 899 711 c 0
 936 701 967 676 992 637 c 0
 1005 616 1011 596 1013 577 c 0
 1017 555 1018 534 1013 514 c 0
 1004 471 978 429 935 388 c 0
 888 342 843 315 799 308 c 2
 759 305 l 1
 754 305 l 2
 721 306 697 314 681 331 c 0
 679 334 677 337 677 338 c 1
 655 318 612 252 549 141 c 0
 505 65 482 18 478 0 c 1
 238 0 l 1
 261 108 l 2
 268 143 273 226 276 356 c 0
 278 510 288 627 305 706 c 0
 315 751 327 791 343 826 c 0
 389 937 464 1023 565 1084 c 0
 625 1120 689 1142 757 1149 c 1
 897 1033 l 1
 1094 1149 l 1
 1201 1124 1275 1069 1317 986 c 0
 1338.2 944.171 1348.9 892.493 1348.9 830.965 c 0
 1348.9 785.113 1342.96 733.792 1331 677 c 2
 1187 0 l 1
 967 0 l 1
 1108 664 l 2
 1117.14 706.666 1121.83 741.531 1121.83 768.367 c 0
 1121.83 785.56 1119.9 799.457 1116 810 c 0
 1103 849 1078 882 1043 909 c 1
 846 795 l 1
 706 909 l 1
 647 886 601 850 569 802 c 0
EndSplineSet
EndChar
StartChar: uni0E06
Encoding: 127 3590 129
Width: 1520
Flags: W
HStem: -10 21G<598 614> 1119 20G<1381 1601>
Fore
395 588 m 1
 414 586 l 1
 437 588 459 602 479 628 c 0
 488 639 493 647 495 652 c 2
 504 691 l 2
 504.346 694.346 504.519 697.559 504.519 700.642 c 0
 504.519 724.278 494.346 740.269 474 750 c 0
 470 753 464 754 458 754 c 1
 442 751 l 1
 431 746 422 738 413 727 c 0
 401 712 391 697 384 681 c 0
 377 664 372 651 370 642 c 0
 369.045 636.655 368.565 631.674 368.565 627.057 c 0
 368.565 607.492 377.2 594.473 395 588 c 1
891 430 m 1
 947 363 1003 312 1062 277 c 0
 1094 260 1120 251 1140 250 c 0
 1147 250 1155 252 1164 255 c 0
 1183 263 1195 278 1202 299 c 0
 1203 304 1209 330 1219 377 c 2
 1381 1139 l 1
 1601 1139 l 1
 1405 218 l 2
 1385 121 1344 55 1283 21 c 0
 1244 -2 1203 -13 1160 -13 c 0
 1128 -13 1098 -7 1070 6 c 0
 1026 25 970 59 905 106 c 0
 872 130 848 149 834 164 c 1
 824 116 797 75 755 42 c 0
 714 11 667 -7 614 -10 c 2
 598 -10 l 2
 532 -8 483 12 449 49 c 0
 444 55 439 61 434 68 c 0
 418.68 90.1288 411.328 124.572 411.328 171.947 c 0
 411.328 180.234 411.553 188.918 412 198 c 2
 419 249 l 2
 421 257 422 263 424 267 c 0
 448 345 491 407 553 453 c 0
 593 482 638 500 688 507 c 1
 702 575 l 2
 713 624 762 680 849 745 c 0
 856 750 868 759 885 771 c 1
 885.9 778.876 886.345 786.955 886.345 795.225 c 0
 886.345 823.705 881.075 854.451 871 887 c 0
 865 903 859 917 850 929 c 1
 794.5 893 741.5 875 691 875 c 0
 640.5 875 592.5 893 547 929 c 1
 524 904 508 883 499 866 c 2
 498 865 498 864 497 862 c 1
 577 862 622 827 634 756 c 0
 635.6 745.2 636.4 734.4 636.4 723.536 c 0
 636.4 707.24 634.6 690.8 631 674 c 0
 618 611 586 558 535 516 c 0
 487 477 433 457 373 457 c 0
 362 457 353 457 347 458 c 0
 281 464 237 500 217 567 c 0
 209.792 589.734 206.273 614.004 206.273 639.471 c 0
 206.273 659.934 208.545 681.169 213 703 c 0
 215 712 219 725 224 741 c 0
 252 822 280 882 307 923 c 0
 325 948 346 974 370 999 c 0
 419 1048 475 1090 538 1124 c 0
 563 1137 581 1145 594 1149 c 1
 730 1041 l 1
 897 1149 l 1
 940 1137 978 1112 1011 1073 c 2
 1030 1049 l 2
 1060 1012 1081 961 1092 894 c 0
 1095.38 873.217 1097.13 852.902 1097.13 833.054 c 0
 1097.13 811.835 1095.13 791.151 1091 771 c 1
 989 689 933 624 922 575 c 2
 891 430 l 1
662 317 m 1
 648 317 635 313 623 304 c 0
 595 285 577 256 569 219 c 0
 566.326 206.524 564.977 195.9 564.977 187.13 c 0
 564.977 166.377 572.535 156 588 156 c 0
 609 156 625 167 633 190 c 0
 637 201 640 211 642 222 c 2
 662 317 l 1
EndSplineSet
EndChar
StartChar: uni0E07
Encoding: 128 3591 130
Width: 1000
Flags: W
HStem: -10 21G<470 585.5>
VStem: 284.586 229.121<234.446 483.259> 298 224<507.067 640>
Fore
913 272 m 2xc0
 889 158 829 77 733 30 c 0
 681 3 620 -10 551 -10 c 0
 389 -10 301 68 286 223 c 0
 285.293 232.899 284.586 243.799 284.586 256.052 c 0xc0
 284.586 261.127 284.707 266.435 285 272 c 2
 298 719 l 1
 522 640 l 1xa0
 514 312 l 2
 513.804 308.217 513.707 304.541 513.707 300.971 c 0
 513.707 249.798 533.804 220.413 574 212 c 0
 583 211 590 210 595 210 c 0
 651 210 686 244 701 312 c 2
 796 759 l 1
 788 754 771 752 745 752 c 2
 734 752 l 2
 706 755 681 769 659 792 c 0
 639.112 814.019 628.81 842.597 628.81 877.016 c 0
 628.81 891.055 630.523 906.066 634 922 c 0
 639 945 648 973 662 1004 c 0
 683 1047 718 1084 767 1114 c 0
 805 1137 848 1149 895 1149 c 0
 950 1148 991 1130 1020 1095 c 0
 1042.59 1068.02 1053.76 1029.62 1053.76 980.295 c 0
 1053.76 951.013 1049.82 917.88 1042 881 c 2
 913 272 l 2xc0
837 1026 m 0
 818 1026 799 1015 779 994 c 0
 766 977 758 959 754 941 c 0
 752.627 934.137 751.961 927.51 751.961 921.077 c 0
 751.961 908.764 754.402 897.167 759 886 c 0
 769 867 783 857 802 857 c 0
 820 857 836 865 850 882 c 0
 861 895 869 916 875 945 c 0
 877.785 958.923 879.277 970.908 879.277 980.954 c 0
 879.277 992.554 877.287 1001.57 873 1008 c 0
 866 1020 854 1026 837 1026 c 0
EndSplineSet
EndChar
StartChar: uni0E08
Encoding: 129 3592 131
Width: 1200
Flags: W
HStem: -10 21G<669.435 839.5> 929 220<677.608 812.163>
Fore
528 283 m 2
 547 373 l 1
 536 363 522 355 504 350 c 0
 490 346 475 344 462 344 c 0
 423 345 391 361 367 392 c 0
 348.115 415.082 339.014 443.546 339.014 477.392 c 0
 339.014 491.934 340.694 507.47 344 524 c 0
 365 621 416 687 497 723 c 0
 521 734 548 741 576 745 c 0
 592.696 747.161 608.621 748.241 623.767 748.241 c 0
 685.725 748.241 734.643 730.161 770 694 c 0
 793.871 666.037 805.648 629.701 805.648 584.993 c 0
 805.648 564.149 803.088 541.484 798 517 c 2
 748 283 l 2
 746 273.2 745 264.4 745 256.592 c 0
 745 225.36 761 210 793 210 c 0
 833 210 858 233 867 279 c 2
 956 695 l 2
 961.387 720.78 964.109 743.895 964.109 764.345 c 0
 964.109 797.043 957.15 822.928 943 842 c 0
 904 890 855 918 797 926 c 0
 780 928 762 929 743 929 c 0
 656 929 571 901 488 846 c 0
 457 825 430 802 407 775 c 1
 301 929 l 1
 356 998 435 1054 539 1097 c 0
 623 1132 706 1149 788 1149 c 0
 974 1149 1098 1095 1162 987 c 0
 1185.35 947.243 1197.15 899.919 1197.15 844.778 c 0
 1197.15 812.541 1193.12 777.631 1185 740 c 2
 1087 279 l 2
 1046 86 933 -10 746 -10 c 0
 592.87 -10 516.855 55.7144 516.855 186.594 c 0
 516.855 215.543 520.574 247.681 528 283 c 2
547 625 m 0
 526 625 505 613 484 590 c 0
 474 577 467 564 464 552 c 0
 463 547 463 543 463 540 c 0
 463 498 470 472 484 463 c 0
 491 458 500 456 511 456 c 0
 547 459 571 484 581 532 c 2
 584 545 l 2
 586.617 557.609 587.932 568.746 587.932 578.398 c 0
 587.932 609.318 574.436 625 547 625 c 0
EndSplineSet
EndChar
StartChar: uni0E09
Encoding: 130 3593 132
Width: 1395
Flags: W
HStem: 934 215<753.706 915.45>
VStem: 232.407 117.144<497.455 563.935> 1050.87 226.788<727.303 851.465>
Fore
1045 714 m 2
 1048.91 733.121 1050.87 751.016 1050.87 767.694 c 0
 1050.87 832.134 1021.58 878.402 962 907 c 2
 921 922 l 2
 893 930 862 934 828 934 c 0
 738 934 651 907 569 853 c 0
 539 834 512 813 489 788 c 1
 380 942 l 1
 432 1006 510 1058 611 1098 c 0
 697 1132 783 1149 869 1149 c 0
 1045 1149 1165 1101 1229 1004 c 2
 1249 966 l 2
 1268.18 925.252 1277.66 878.758 1277.66 826.303 c 0
 1277.66 791.223 1273.42 753.477 1265 713 c 2
 1221 507 l 1
 1267 500 1304 482 1332 453 c 0
 1361.06 422.001 1376.05 374.11 1376.05 310.237 c 0
 1376.05 308.175 1376.03 306.096 1376 304 c 0
 1375 284 1373 264 1369 244 c 0
 1354 176 1331 123 1298 84 c 0
 1294 79 1289 73 1282 68 c 0
 1232 25 1180 0 1126 -7 c 0
 1111 -8 1099 -9 1091 -10 c 2
 1051 -8 l 2
 1010 -1 978 16 956 42 c 0
 935.368 66.3158 925.053 94.9751 925.053 127.578 c 0
 925.053 139.222 926.368 151.368 929 164 c 1
 865 119 788 75 698 30 c 2
 645 6 l 2
 613 -7 580 -13 547 -13 c 0
 505 -13 468 -2 438 21 c 0
 406.237 44.4768 390.685 83.2106 390.685 136.872 c 0
 390.685 160.925 393.81 187.978 400 218 c 2
 438 393 l 1
 415 374 387 365 354 365 c 0
 298 365 261 389 243 438 c 0
 236.004 457.239 232.407 477.838 232.407 499.994 c 0
 232.407 515.842 234.247 532.486 238 550 c 0
 243 574 251 598 262 623 c 0
 281 663 314 698 362 727 c 0
 404 753 446 766 488 766 c 0
 564 766 621 746 658 706 c 0
 682.853 678.307 695.1 643.05 695.1 600.23 c 0
 695.1 582.748 693.059 564.004 689 544 c 2
 653 377 l 2
 641 322 636 290 636 282 c 0
 636 269 643 260 656 255 c 1
 675 253 l 1
 718 256 793 294 901 368 c 0
 941 396 968 417 984 430 c 1
 1045 714 l 2
435 645 m 0
 411 645 390 631 370 604 c 0
 361 591 354 576 351 560 c 0
 350.031 552.831 349.551 546.113 349.551 539.838 c 0
 349.551 513.725 357.875 495.287 374 484 c 0
 382 479 391 476 400 476 c 0
 436 479 459 505 470 553 c 2
 472 564 l 2
 474.617 576.847 475.932 588.165 475.932 597.956 c 0
 475.932 629.318 462.436 645 435 645 c 0
1163 317 m 1
 1143 222 l 2
 1140.39 208.931 1139.03 197.814 1139.03 188.701 c 0
 1139.03 173.409 1142.85 163.76 1151 160 c 0
 1155 157 1161 156 1169 156 c 0
 1191 156 1207 177 1216 219 c 0
 1217.88 228.962 1218.83 238.343 1218.83 247.106 c 0
 1218.83 270.891 1211.88 290.115 1198 304 c 0
 1189 313 1177 317 1163 317 c 1
EndSplineSet
EndChar
StartChar: uni0E0A
Encoding: 131 3594 133
Width: 1390
Flags: W
HStem: 0 210<796 1036> 1129 20G<706 760>
Fore
437 662 m 1
 455 660 l 1
 479 662 501 676 521 702 c 0
 529 713 535 721 536 726 c 2
 546 765 l 2
 546.18 767.604 546.271 770.128 546.271 772.573 c 0
 546.271 797.348 536.934 813.988 516 824 c 0
 511 827 506 828 500 828 c 1
 483 825 l 1
 473 820 463 812 454 801 c 0
 442 786 433 771 425 755 c 0
 419 738 414 725 412 716 c 0
 410.724 710.045 410.081 704.543 410.081 699.493 c 0
 410.081 680.796 418.891 668.299 437 662 c 1
1031 719 m 1
 979 690 937 654 903 613 c 0
 883 588 871 566 867 545 c 2
 814 298 l 2
 805 256 805 256 796 210 c 1
 915 210 l 1
 1036 210 l 1
 1050 276 1050 276 1054 298 c 2
 1107 546 l 2
 1112.13 569.606 1114.63 589.788 1114.63 606.682 c 0
 1114.63 622.709 1112.38 635.776 1108 646 c 0
 1102 659 1092 671 1078 684 c 2
 1037 715 l 1
 1036 715 1035 716 1034 716 c 0
 1033 718 1032 718 1031 719 c 1
1037 924 m 1
 1127 936 1200 970 1257 1025 c 0
 1297 1064 1322 1110 1333 1163 c 2
 1339 1188 l 1
 1574 1188 l 1
 1568 1164 l 2
 1552 1087 1510 1014 1444 945 c 0
 1386 885 1325 845 1259 825 c 1
 1319.05 782.672 1350.02 733.562 1350.02 675.76 c 0
 1350.02 666.408 1349.89 656.725 1345 629 c 2
 1274 298 l 2
 1234 110 1234 110 1211 0 c 1
 870 0 l 1
 531 0 l 1
 567 168 567 168 594 298 c 2
 653 575 l 2
 663 623 716 686 812 763 c 2
 822 771 l 1
 823.766 784.118 824.641 796.664 824.641 808.62 c 0
 824.641 844.059 816.955 874.325 802 899 c 0
 781 935 746 953 696 953 c 0
 688 953 681 953 676 952 c 0
 642 949 616 940 597 923 c 2
 596 922 l 1
 596 921 595 920 595 920 c 1
 645 914 673 881 678 820 c 0
 678.606 813.339 678.936 806.495 678.936 799.467 c 0
 678.936 783.283 677.183 766.128 673 748 c 0
 660 685 627 632 576 590 c 0
 529 551 475 531 415 531 c 0
 404 531 395 531 389 532 c 0
 309 539 262 582 247 660 c 0
 244.278 674 242.917 689.059 242.917 705.176 c 0
 242.917 730.503 246.278 758.444 253 789 c 0
 255 800 257 809 259 815 c 0
 290 912 342 988 415 1043 c 0
 500 1107 588 1142 679 1148 c 0
 686 1149 698 1149 714 1149 c 0
 806 1149 882 1128 941 1086 c 0
 956 1076 969 1064 981 1049 c 0
 1006 1017 1025 975 1037 924 c 1
EndSplineSet
EndChar
StartChar: uni0E0B
Encoding: 132 3595 134
Width: 1450
Flags: W
HStem: 0 210<868 1108>
Fore
405 588 m 1
 424 586 l 1
 447 588 469 602 489 628 c 0
 498 639 503 647 505 652 c 2
 514 691 l 2
 514.346 694.346 514.519 697.559 514.519 700.642 c 0
 514.519 724.278 504.346 740.269 484 750 c 0
 480 753 474 754 468 754 c 1
 452 751 l 1
 441 746 432 738 423 727 c 0
 411 712 401 697 394 681 c 0
 387 664 382 651 380 642 c 0
 379.045 636.655 378.565 631.674 378.565 627.057 c 0
 378.565 607.492 387.2 594.473 405 588 c 1
1044 1050 m 2
 1071 1018 1093 976 1109 924 c 1
 1199 936 1272 970 1329 1025 c 0
 1369 1064 1394 1110 1405 1163 c 2
 1411 1188 l 1
 1646 1188 l 1
 1640 1164 l 2
 1624 1087 1582 1014 1516 945 c 0
 1488 916 1461 892 1434 875 c 0
 1408 857 1380 843 1351 832 c 0
 1346 830 1340 828 1331 825 c 1
 1391.05 782.672 1422.02 733.562 1422.02 675.76 c 0
 1422.02 666.408 1421.89 656.725 1417 629 c 2
 1346 298 l 2
 1306 110 1306 110 1283 0 c 1
 942 0 l 1
 603 0 l 1
 639 168 639 168 666 298 c 2
 725 575 l 2
 735 623 788 686 884 763 c 2
 894 771 l 1
 895.283 779.98 895.907 789.224 895.907 798.714 c 0
 895.907 826.211 890.664 855.777 881 887 c 0
 875 903 869 917 860 929 c 1
 804.5 893 751.5 875 701 875 c 0
 650.5 875 602.5 893 557 929 c 1
 534 904 518 883 509 866 c 2
 508 865 508 864 507 862 c 1
 587 862 632 827 644 756 c 0
 645.6 745.2 646.4 734.4 646.4 723.536 c 0
 646.4 707.24 644.6 690.8 641 674 c 0
 628 611 596 558 545 516 c 0
 497 477 443 457 383 457 c 0
 372 457 363 457 357 458 c 0
 291 464 247 500 227 567 c 0
 219.792 589.734 216.273 614.004 216.273 639.471 c 0
 216.273 659.934 218.545 681.169 223 703 c 0
 225 712 229 725 234 741 c 0
 262 822 290 882 317 923 c 0
 335 948 356 974 380 999 c 0
 429 1048 485 1090 548 1124 c 0
 573 1137 591 1145 604 1149 c 1
 740 1041 l 1
 907 1149 l 1
 943 1139 983 1112 1026 1068 c 2
 1044 1050 l 2
1103 719 m 1
 1051 690 1009 654 975 613 c 0
 955 588 943 566 939 545 c 2
 886 298 l 2
 877 256 877 256 868 210 c 1
 987 210 l 1
 1108 210 l 1
 1122 276 1122 276 1126 298 c 2
 1179 546 l 2
 1184.13 569.606 1186.63 589.788 1186.63 606.682 c 0
 1186.63 622.709 1184.38 635.776 1180 646 c 0
 1174 659 1164 671 1150 684 c 2
 1109 715 l 1
 1108 715 1107 716 1106 716 c 0
 1105 718 1104 718 1103 719 c 1
EndSplineSet
EndChar
StartChar: uni0E0C
Encoding: 133 3596 135
Width: 1750
Flags: W
HStem: 0 21G<1374 1593> 929 220<681.2 985.665>
VStem: 557.808 131.815<191.921 262.451> 1011.04 227.028<706.064 905.178>
Fore
1000 657 m 2
 1007.36 692.057 1011.04 723.738 1011.04 752.035 c 0
 1011.04 869.837 947.204 929 819 929 c 0
 713 929 629 896 565 831 c 1
 631 795 671 739 685 663 c 1
 680 661 643 628 574 563 c 0
 534 526 505 464 486 376 c 2
 483 363 l 1
 504 382 529 391 560 391 c 0
 578 392 596 388 615 380 c 0
 634 371 650 359 661 344 c 0
 680.3 320.564 689.623 291.427 689.623 256.588 c 0
 689.623 240.884 687.729 224.021 684 206 c 0
 680 185 671 160 658 133 c 0
 629 76 585 35 527 10 c 0
 494 -3 461 -10 427 -10 c 0
 378 -9 342 -2 318 9 c 0
 297 20 278 36 260 56 c 0
 240.536 77.976 230.927 112.173 230.927 158.592 c 0
 230.927 186.102 234.302 217.905 241 254 c 0
 242 264 246 280 250 303 c 2
 264 366 l 2
 282 449 304 509 330 546 c 0
 351 575 393 617 457 671 c 1
 422 726 364 767 284 792 c 1
 310 855 360 917 432 979 c 0
 562 1092 706 1149 866 1149 c 0
 1017 1149 1124 1102 1186 1008 c 0
 1220.71 955.929 1238.07 891.459 1238.07 814.06 c 0
 1238.07 771.061 1232.71 724.071 1222 673 c 2
 1170 430 l 1
 1437 299 l 1
 1438 304 1444 330 1454 377 c 2
 1616 1139 l 1
 1835 1139 l 1
 1639 218 l 2
 1608 72 1608 72 1593 0 c 1
 1374 0 l 1
 1114 164 l 1
 1104 116 1077 75 1035 42 c 0
 994 11 947 -7 894 -10 c 2
 878 -10 l 2
 812 -8 763 12 729 49 c 0
 724 55 719 61 714 68 c 0
 698.68 90.1288 691.328 124.572 691.328 171.947 c 0
 691.328 180.234 691.553 188.918 692 198 c 2
 699 249 l 2
 701 257 702 263 704 267 c 0
 728 345 771 407 833 453 c 0
 873 482 918 500 968 507 c 1
 1000 657 l 2
942 317 m 1
 928 317 915 313 903 304 c 0
 875 285 857 256 849 219 c 0
 846.326 206.524 844.977 195.9 844.977 187.13 c 0
 844.977 166.377 852.535 156 868 156 c 0
 889 156 905 167 913 190 c 0
 917 201 920 211 922 222 c 2
 942 317 l 1
472 110 m 0
 497 110 519 124 538 152 c 0
 547 165 553 180 556 195 c 0
 557.208 203.658 557.808 211.668 557.808 219.028 c 0
 557.808 248.224 548.369 267.215 530 276 c 0
 524 279 517 280 509 280 c 0
 478 280 456 260 444 220 c 0
 442 217 441 211 439 204 c 0
 435.479 186.938 433.719 172.222 433.719 159.834 c 0
 433.719 126.482 446.479 110 472 110 c 0
EndSplineSet
EndChar
StartChar: uni0E0D
Encoding: 134 3597 136
Width: 1745
Flags: HW
HStem: 0 210<1180 1405> 929 220<736.2 1040.67>
VStem: 612.808 131.815<191.921 262.451> 1066.04 227.982<705.651 905.178>
Fore
1099 -22 m 2
 1159 -25 1197 -48 1214 -92 c 0
 1219.74 -105.199 1222.51 -120.373 1222.51 -137.334 c 0
 1222.51 -149.93 1220.98 -163.511 1218 -178 c 0
 1216 -187 1215 -193 1213 -198 c 0
 1206 -223 1190 -245 1165 -265 c 1
 1267 -246 1345 -196 1399 -113 c 0
 1416 -88 1428 -61 1437 -34 c 1
 1604 -48 l 1
 1581 -138 1532 -217 1456 -286 c 2
 1416 -319 l 2
 1357 -363 1291 -393 1218 -408 c 0
 1188 -414 1157 -417 1125 -417 c 0
 997 -417 919 -378 890 -300 c 2
 885 -282 l 2
 882.248 -269.617 880.969 -257.235 880.969 -244.659 c 0
 880.969 -229.814 882.752 -214.7 886 -199 c 0
 900 -138 930 -91 977 -58 c 0
 1010 -34 1047 -22 1089 -22 c 2
 1099 -22 l 2
1021 -235 m 1
 1040 -237 l 1
 1063 -235 1080 -224 1093 -204 c 1
 1093 -203 1094 -201 1094 -200 c 0
 1096 -198 1096 -198 1097 -196 c 1
 1102 -176 l 2
 1103 -155 1095 -140 1076 -133 c 1
 1074 -133 1072 -133 1072 -132 c 1
 1050 -130 l 1
 1031 -136 l 2
 1022 -140 1014 -146 1007 -155 c 2
 998 -171 l 1
 992 -191 l 1
 991.82 -192.894 991.729 -194.738 991.729 -196.534 c 0
 991.729 -214.648 1000.98 -227.721 1021 -235 c 1
EndSplineSet
Refer: 256 63247 S 1 0 0 1 0 0 2
Substitution: 0 65534 'nds1' uni0E0D.descless
Substitution: 0 65534 'ndsc' uni0E0D.descless
EndChar
StartChar: uni0E0E
Encoding: 135 3598 137
Width: 1375
Flags: W
HStem: -132 142<510.975 616.076> -10 120<281.365 349.59> 929 220<827.2 1131.67>
VStem: 136 125.375<130.118 202.096> 1157.04 227.982<705.651 905.178>
Fore
1146 657 m 2xb8
 1153.36 692.057 1157.04 723.738 1157.04 752.035 c 0
 1157.04 869.837 1093.2 929 965 929 c 0
 859 929 775 896 711 831 c 1
 777 795 817 739 831 663 c 1
 826 661 789 628 720 563 c 0
 680 526 651 464 632 376 c 2
 616 303 l 2
 593 194 563 119 526 78 c 0
 521 73 513 65 502 56 c 0
 450 16 396 -6 340 -9 c 0
 335 -10 324 -10 307 -10 c 0x78
 233 -10 182 18 154 73 c 0
 144 91 138 111 136 133 c 0
 135.833 137.5 135.75 141.944 135.75 146.324 c 0
 135.75 168.222 137.833 188.5 142 206 c 0
 154 264 181 310 223 344 c 0
 261 375 301 391 343 391 c 0
 355 392 367 390 379 386 c 0
 392 381 402 373 409 363 c 1
 414 384 l 2
 429 455 450 509 476 546 c 0
 497 575 539 617 603 671 c 1
 568 726 510 767 430 792 c 1
 456 855 506 917 578 979 c 0
 708 1092 852 1149 1012 1149 c 0
 1163 1149 1270 1102 1332 1008 c 0
 1367.44 955.807 1385.03 890.742 1385.03 813.073 c 0
 1385.03 770.207 1379.67 723.5 1369 673 c 2
 1139 -410 l 1
 919 -410 l 1
 877 -322 826 -259 765 -220 c 1
 705 -302 638 -360 565 -395 c 0
 563 -396 560 -397 557 -398 c 0
 508 -419 456 -430 401 -430 c 0
 315 -430 256 -405 225 -355 c 0
 223 -353 222 -351 222 -350 c 0
 211.333 -332 206 -311.778 206 -289.63 c 0
 206 -278.556 207.333 -267 210 -255 c 0
 214 -234 222 -213 233 -193 c 0
 265 -133 311 -84 371 -47 c 0
 395 -33 417 -23 437 -16 c 0
 487 1 538 10 591 10 c 0
 640 10 689 3 735 -12 c 1
 850 142 l 1
 975 88 l 1
 864 -67 l 1
 896 -80 927 -104 959 -137 c 2
 973 -155 l 1
 1146 657 l 2xb8
312 110 m 0
 348 110 372 141 385 204 c 0
 387.632 215.842 388.947 226.299 388.947 235.371 c 0
 388.947 260.773 378.632 275.316 358 279 c 0
 356 280 353 280 349 280 c 0
 320 280 296 262 277 226 c 0
 273 217 268 207 264 195 c 0
 262.25 185.75 261.375 177.25 261.375 169.469 c 0
 261.375 146.125 269.25 129.25 285 118 c 0
 293 113 302 110 312 110 c 0
401 -252 m 0
 407 -266 420 -273 441 -273 c 0
 464 -273 496 -263 535 -243 c 0
 549 -236 571 -218 600 -187 c 0
 613 -174 622 -163 628 -154 c 1
 615 -139 591 -132 558 -132 c 2
 551 -132 l 2xb8
 515 -134 480 -145 447 -164 c 0
 427 -178 412 -196 403 -218 c 1
 399 -237 l 1
 398 -242 399 -247 401 -252 c 0
EndSplineSet
EndChar
StartChar: uni0E0F
Encoding: 136 3599 138
Width: 1375
Flags: W
HStem: -429 136<310.975 394.853> -10 120<280.365 348.59> 929 220<826.2 1130.26>
VStem: 134.75 125.625<130.118 202.096> 1155.58 228.448<705.651 904.99>
Fore
311 110 m 0
 347 110 371 141 384 204 c 0
 386.632 215.842 387.947 226.299 387.947 235.371 c 0
 387.947 260.773 377.632 275.316 357 279 c 0
 355 280 352 280 348 280 c 0
 318 280 294 262 276 226 c 0
 272 217 267 207 263 195 c 0
 261.25 185.75 260.375 177.25 260.375 169.469 c 0
 260.375 146.125 268.25 129.25 284 118 c 0
 292 113 301 110 311 110 c 0
1145 657 m 2
 1152.05 691.487 1155.58 722.706 1155.58 750.651 c 0
 1155.58 869.374 1091.9 929 964 929 c 0
 858 929 774 896 710 831 c 1
 776 795 816 739 830 663 c 1
 825 661 788 628 719 563 c 0
 679 526 650 464 631 376 c 2
 615 303 l 2
 592 194 562 119 525 78 c 0
 520 73 512 65 501 56 c 0
 449 16 395 -6 339 -9 c 0
 334 -10 323 -10 306 -10 c 0
 232 -10 181 18 153 73 c 0
 144 91 138 111 135 133 c 0
 134.833 137.5 134.75 141.944 134.75 146.324 c 0
 134.75 168.222 136.833 188.5 141 206 c 0
 153 264 180 310 222 344 c 0
 260 375 300 391 342 391 c 0
 354 392 366 390 378 386 c 0
 391 381 401 373 408 363 c 1
 413 384 l 2
 428 455 449 509 475 546 c 0
 496 575 538 617 602 671 c 1
 567 726 509 767 429 792 c 1
 455 855 505 917 577 979 c 0
 707 1092 851 1149 1011 1149 c 0
 1161 1149 1268 1102 1331 1008 c 0
 1366.44 955.807 1384.03 890.742 1384.03 813.073 c 0
 1384.03 770.207 1378.67 723.5 1368 673 c 2
 1138 -410 l 1
 921 -410 l 1
 921.024 -407.742 921.036 -405.506 921.036 -403.294 c 0
 921.036 -312.409 900.954 -259.691 858 -247 c 1
 841 -245 l 2
 810 -245 766 -283 711 -360 c 0
 698 -379 688 -393 682 -403 c 1
 660 -342 640 -303 624 -284 c 2
 615 -276 l 1
 573 -323 532 -359 492 -384 c 0
 443 -414 385 -429 319 -429 c 0
 303 -429 287 -428 271 -426 c 0
 212 -419 171 -391 149 -341 c 0
 139.678 -321.734 135.377 -300.923 135.377 -278.086 c 0
 135.377 -264.178 136.972 -249.519 140 -234 c 0
 156 -162 201 -103 278 -57 c 0
 341 -20 409 -0 482 1 c 2
 532 -3 l 2
 566 -8 596 -18 623 -32 c 1
 741 119 l 1
 859 73 l 1
 741 -90 l 1
 748 -97 754 -108 758 -122 c 1
 792 -77 826 -44 859 -23 c 0
 872 -14 882 -10 891 -10 c 0
 921 -10 955 -27 992 -61 c 1
 1145 657 l 2
301 -268 m 0
 310 -285 326 -293 349 -293 c 0
 372 -293 404 -283 444 -263 c 0
 460 -253 481 -234 506 -205 c 0
 518 -192 526 -182 531 -173 c 1
 520 -159 491 -152 446 -152 c 0
 410 -152 378 -160 350 -176 c 0
 331 -187 315 -203 304 -224 c 1
 297 -245 l 1
 296.732 -246.876 296.608 -248.679 296.608 -250.412 c 0
 296.608 -255.144 297.536 -259.34 299 -263 c 0
 300 -266 301 -267 301 -268 c 0
EndSplineSet
EndChar
StartChar: uni0E10
Encoding: 137 3600 139
Width: 1130
Flags: HW
HStem: -541 106<114 182.971> -346 112<157.234 274.653> -10 21<530.5 717.5> 1064 21<1094 1138.5> 1129 20<702.5 788.5>
VStem: 195 1007<742 1072>
Fore
679 -319 m 1
 689 -273 l 1
 661 -276 l 2
 628 -275 602 -265 583 -246 c 0
 566.174 -230.704 557.537 -211.897 557.537 -189.581 c 0
 557.537 -182.719 558.354 -175.526 560 -168 c 0
 563 -153 570 -139 579 -124 c 0
 593 -95 620 -72 661 -53 c 0
 687 -40 713 -34 739 -34 c 0
 794 -34 836 -45 864 -66 c 0
 886.132 -82.7895 897.197 -110.062 897.197 -148.263 c 0
 897.197 -160.118 896.132 -173.026 894 -187 c 0
 893 -194 891 -206 888 -223 c 2
 822 -530 l 1
 639 -530 l 1
 630 -479 607 -453 569 -450 c 0
 539 -450 501 -473 456 -520 c 2
 448 -529 l 1
 431 -495 405 -458 368 -418 c 1
 333 -454 293 -484 248 -508 c 0
 202 -530 157 -541 114 -541 c 0
 71 -541 38 -531 13 -510 c 0
 1 -501 -8 -490 -15 -478 c 0
 -20.542 -468.763 -23.4297 -457.252 -23.4297 -443.232 c 0
 -23.4297 -434.483 -22.3054 -424.758 -20 -414 c 0
 -13 -383 1 -353 22 -326 c 0
 32 -313 42 -302 52 -294 c 0
 103 -255 163 -235 230 -234 c 0
 272 -234 304 -239 326 -249 c 2
 347 -258 l 1
 387 -217 l 2
 394 -209 401 -201 407 -192 c 1
 517 -239 l 1
 460 -306 l 1
 467 -309 478 -319 493 -336 c 1
 524 -300 562 -282 605 -282 c 0
 637 -282 662 -294 679 -319 c 1
709 -106 m 1
 687 -106 669 -116 655 -136 c 0
 651 -141 649 -148 647 -155 c 0
 646 -162 645 -168 646 -174 c 0
 650 -193 662 -204 683 -205 c 2
 687 -205 l 2
 709 -205 725 -195 737 -176 c 1
 743 -158 l 1
 743.969 -152.769 744.45 -147.913 744.45 -143.44 c 0
 744.45 -124.825 736.125 -112.837 720 -108 c 2
 709 -106 l 1
111 -418 m 1
 120 -429 132 -435 146 -435 c 0
 153 -435 163 -433 175 -430 c 0
 185 -427 195 -423 207 -418 c 0
 220 -412 239 -397 264 -374 c 2
 269 -370 274 -365 277 -360 c 1
 266 -351 247 -346 220 -346 c 0
 193 -346 168 -351 145 -362 c 0
 124 -374 112 -387 109 -402 c 0
 108.292 -403.771 107.959 -405.668 107.959 -407.601 c 0
 107.959 -411.125 109.063 -414.771 111 -418 c 1
EndSplineSet
Refer: 241 63232 S 1 0 0 1 0 0 2
Substitution: 0 65534 'nds1' uni0E10.descless
Substitution: 0 65534 'ndsc' uni0E10.descless
EndChar
StartChar: uni0E11
Encoding: 138 3601 140
Width: 1700
Flags: W
HStem: 0 21G<645 919 1323 1543>
Fore
460 588 m 1
 479 586 l 1
 502 588 524 602 544 628 c 0
 553 639 558 647 560 652 c 2
 569 691 l 2
 569.346 694.346 569.519 697.559 569.519 700.642 c 0
 569.519 724.278 559.346 740.269 539 750 c 0
 535 753 529 754 523 754 c 1
 507 751 l 1
 497 746 487 738 478 727 c 0
 466 712 456 697 449 681 c 0
 442 664 437 651 435 642 c 0
 434.045 636.655 433.565 631.674 433.565 627.057 c 0
 433.565 607.492 442.2 594.473 460 588 c 1
645 0 m 1
 767 575 l 2
 778 624 827 680 914 745 c 0
 921 750 933 759 950 771 c 1
 950.9 778.876 951.345 786.955 951.345 795.225 c 0
 951.345 823.705 946.075 854.451 936 887 c 0
 930 903 924 917 915 929 c 1
 859.5 893 806.5 875 756 875 c 0
 705.5 875 657.5 893 612 929 c 1
 589 904 573 883 564 866 c 2
 563 865 563 864 562 862 c 1
 642 862 687 827 699 756 c 0
 700.6 745.2 701.4 734.4 701.4 723.536 c 0
 701.4 707.24 699.6 690.8 696 674 c 0
 683 611 651 558 600 516 c 0
 552 477 498 457 438 457 c 0
 427 457 418 457 412 458 c 0
 346 464 302 500 282 567 c 0
 274.792 589.734 271.273 614.004 271.273 639.471 c 0
 271.273 659.934 273.545 681.169 278 703 c 0
 280 712 284 725 289 741 c 0
 317 822 345 882 372 923 c 0
 390 948 411 974 435 999 c 0
 484 1048 540 1090 603 1124 c 0
 628 1137 646 1145 659 1149 c 1
 795 1041 l 1
 962 1149 l 1
 1005 1137 1043 1112 1076 1073 c 2
 1095 1049 l 2
 1125 1012 1146 961 1157 894 c 0
 1160.38 873.217 1162.13 852.902 1162.13 833.054 c 0
 1162.13 811.835 1160.13 791.151 1156 771 c 1
 1054 688 997 623 987 575 c 2
 952 410 l 1
 1351 990 l 2
 1402 1068 1466 1115 1542 1131 c 0
 1560 1134 1575 1136 1588 1136 c 0
 1611 1135 1629 1132 1642 1128 c 0
 1702 1110 1736 1067 1743 1000 c 0
 1743.87 992.421 1744.32 984.502 1744.32 976.243 c 0
 1744.32 956.17 1741.67 934.089 1736 910 c 2
 1543 0 l 1
 1323 0 l 1
 1463 659 l 2
 1471.64 699.071 1475.96 726.179 1475.96 740.321 c 0
 1475.96 744.179 1475.64 747.071 1475 749 c 0
 1474 753 1471 757 1466 761 c 0
 1463 764 1459 765 1455 765 c 1
 1440 761 l 1
 1426 753 l 1
 1423 750 1420 747 1418 742 c 1
 919 0 l 1
 645 0 l 1
EndSplineSet
EndChar
StartChar: uni0E12
Encoding: 139 3602 141
Width: 1850
Flags: W
HStem: 0 21G<224 464 1468 1687> 1119 20G<1710 1929>
VStem: 263 216.661<276.58 568.513> 814.328 124.648<156.156 227.802>
Fore
1317 677 m 2
 1264 430 l 1
 1531 299 l 1
 1532 304 1538 330 1548 377 c 2
 1710 1139 l 1
 1929 1139 l 1
 1733 218 l 2
 1702 72 1702 72 1687 0 c 1
 1468 0 l 1
 1208 164 l 1
 1198 116 1171 75 1129 42 c 0
 1086 8 1039 -9 990 -10 c 2
 972 -10 l 2
 926 -7 891 7 867 32 c 2
 840 63 l 1
 840 64 839 66 837 68 c 0
 821.68 90.1288 814.328 124.572 814.328 171.947 c 0
 814.328 180.234 814.553 188.918 815 198 c 2
 822 249 l 2
 824 257 825 263 827 267 c 0
 851 344 891 404 947 447 c 2
 956 453 l 2
 987 474 1022 492 1061 507 c 1
 1094 664 l 2
 1103.14 706.666 1107.83 741.531 1107.83 768.367 c 0
 1107.83 785.56 1105.9 799.457 1102 810 c 0
 1090 848 1065 881 1029 909 c 1
 832 793 l 1
 692 909 l 1
 633 886 588 850 556 802 c 0
 529 762 509 711 496 650 c 0
 485.212 598.758 479.661 536.46 479.661 463.263 c 0
 479.661 400.757 483.709 330.303 492 252 c 2
 493 234 l 1
 527 247 563 273 600 312 c 0
 613 327 623 339 629 349 c 1
 609 349 l 1
 587 353 568 363 550 378 c 0
 519.579 405.737 504.368 441.479 504.368 484.511 c 0
 504.368 489.573 504.579 494.737 505 500 c 2
 513 547 l 2
 531 628 574 685 642 716 c 1
 671 735 710 744 757 744 c 0
 790 744 818 738 840 727 c 0
 886.937 702.065 910.208 657.229 910.208 592.888 c 0
 910.208 569.497 907.132 543.528 901 515 c 0
 898 498 895 486 892 477 c 0
 854 339 774 220 652 120 c 0
 645 114 634 106 620 95 c 0
 565 53 513 21 464 0 c 1
 224 0 l 1
 247 108 l 2
 255 147 261 230 263 356 c 0
 265 510 275 627 292 706 c 0
 301 749 313 789 329 826 c 0
 375 937 450 1023 551 1084 c 0
 611 1120 675 1142 743 1149 c 1
 883 1033 l 1
 1080 1149 l 1
 1187 1124 1261 1069 1303 986 c 0
 1324.2 944.171 1334.9 892.493 1334.9 830.965 c 0
 1334.9 785.113 1328.96 733.792 1317 677 c 2
1036 317 m 1
 1022 317 1009 313 997 304 c 0
 969 285 951 256 943 219 c 0
 940.326 206.524 938.977 195.9 938.977 187.13 c 0
 938.977 166.377 946.535 156 962 156 c 0
 983 156 999 167 1007 190 c 0
 1011 201 1014 211 1016 222 c 2
 1036 317 l 1
701 624 m 1
 682 620 l 2
 662 613 648 606 641 597 c 0
 625 580 614 563 610 546 c 0
 606.752 534.631 604.969 523.848 604.969 513.652 c 0
 604.969 505.014 606.248 496.797 609 489 c 0
 617 467 630 456 648 455 c 0
 649.125 454.938 650.246 454.906 651.363 454.906 c 0
 668.117 454.906 683.938 461.938 698 476 c 0
 709 487 719 508 728 537 c 0
 733.949 554.846 736.713 569.862 736.713 581.835 c 0
 736.713 589.99 735.431 596.733 733 602 c 0
 726 615 715 622 701 624 c 1
EndSplineSet
EndChar
StartChar: uni0E13
Encoding: 140 3603 142
Width: 1900
Flags: W
HStem: 0 21G<873 1092> 929 220<694.2 998.665>
VStem: 570.808 131.815<191.921 262.451> 1024.04 227.028<706.064 905.178>
Fore
1235 673 m 2
 1172 377 l 1
 1152 281 l 1
 1478 430 l 1
 1629 1139 l 1
 1848 1139 l 1
 1714 507 l 1
 1760 500 1797 482 1825 453 c 0
 1860.56 414.962 1878.34 365.982 1878.34 306.062 c 0
 1878.34 293.521 1877.56 280.5 1876 267 c 2
 1866 220 l 2
 1849 161 1824 114 1792 79 c 2
 1780 68 l 2
 1730 23 1674 -2 1612 -8 c 2
 1584 -10 l 1
 1545 -7 l 2
 1503 0 1471 17 1449 42 c 0
 1428.37 66.3158 1418.05 94.9751 1418.05 127.578 c 0
 1418.05 139.222 1419.37 151.368 1422 164 c 1
 1092 0 l 1
 873 0 l 1
 888 72 888 72 919 218 c 2
 1013 657 l 2
 1020.36 692.057 1024.04 723.738 1024.04 752.035 c 0
 1024.04 869.837 960.204 929 832 929 c 0
 726 929 642 896 578 831 c 1
 644 795 684 739 698 663 c 1
 693 661 656 628 587 563 c 0
 547 526 518 464 499 376 c 2
 496 363 l 1
 517 382 542 391 573 391 c 0
 591 392 609 388 628 380 c 0
 646 371 662 359 674 344 c 0
 693.3 320.564 702.623 291.427 702.623 256.588 c 0
 702.623 240.884 700.729 224.021 697 206 c 0
 693 185 684 160 671 133 c 0
 643 76 599 35 540 10 c 0
 507 -3 474 -10 440 -10 c 0
 391 -9 355 -2 331 9 c 0
 310 20 291 36 273 56 c 0
 253.536 77.976 243.927 112.173 243.927 158.592 c 0
 243.927 186.102 247.302 217.905 254 254 c 0
 255 264 259 280 263 303 c 2
 277 366 l 2
 295 449 317 509 343 546 c 0
 364 575 406 617 470 671 c 1
 435 726 377 767 297 792 c 1
 323 855 373 917 445 979 c 0
 575 1092 719 1149 879 1149 c 0
 1029 1149 1136 1102 1199 1008 c 0
 1233.71 955.929 1251.07 891.459 1251.07 814.06 c 0
 1251.07 771.061 1245.71 724.071 1235 673 c 2
1658 317 m 1
 1638 222 l 2
 1635.39 208.931 1634.03 197.814 1634.03 188.701 c 0
 1634.03 173.409 1637.85 163.76 1646 160 c 0
 1650 157 1656 156 1664 156 c 0
 1686 156 1702 177 1711 219 c 0
 1712.88 228.962 1713.83 238.343 1713.83 247.106 c 0
 1713.83 270.891 1706.88 290.115 1693 304 c 0
 1684 313 1672 317 1658 317 c 1
485 110 m 0
 511 110 533 124 551 152 c 0
 560 165 566 180 569 195 c 0
 570.208 203.658 570.808 211.668 570.808 219.028 c 0
 570.808 248.224 561.369 267.215 543 276 c 0
 537 279 530 280 522 280 c 0
 491 280 469 260 457 220 c 0
 455 217 454 211 452 204 c 0
 448.479 186.938 446.719 172.222 446.719 159.834 c 0
 446.719 126.482 459.479 110 485 110 c 0
EndSplineSet
EndChar
StartChar: uni0E14
Encoding: 141 3604 143
Width: 1330
Flags: W
HStem: 0 21G<222 462 951 1171> 929 220<799.904 931.797>
VStem: 259 215.851<299.531 576.104>
Fore
712 624 m 1
 675 618 648 599 630 568 c 0
 627 564 624 557 620 546 c 1
 616 517 l 2
 615 485 626 465 647 457 c 0
 652 456 656 455 659 455 c 2
 679 457 l 1
 705 464 725 490 739 537 c 2
 747 573 l 2
 747.143 575.148 747.215 577.23 747.215 579.245 c 0
 747.215 605.368 735.21 620.286 712 624 c 1
462 0 m 1
 222 0 l 1
 245 108 l 2
 253 147 258 227 259 346 c 0
 260 492 268 603 285 680 c 0
 293 722 305 761 321 798 c 0
 367 909 442 995 543 1056 c 0
 628 1107 721 1137 821 1146 c 0
 844 1148 870 1149 896 1149 c 2
 966 1146 l 2
 1049 1137 1122 1113 1184 1074 c 0
 1236 1043 1272 1004 1295 958 c 0
 1318.58 911.607 1330.59 860.587 1330.59 804.059 c 0
 1330.59 786.261 1329.39 767.917 1327 749 c 0
 1325 727 1320 703 1315 677 c 2
 1171 0 l 1
 951 0 l 1
 1092 664 l 2
 1097.89 691.318 1100.92 715.481 1100.92 736.179 c 0
 1100.92 754.122 1098.64 769.463 1094 782 c 0
 1074 839 1031 881 965 908 c 0
 929 922 892 929 853 929 c 0
 777 929 704 905 633 856 c 0
 595 830 567 803 549 774 c 0
 521 734 502 685 489 627 c 0
 479.615 582.68 474.851 529.931 474.851 468.471 c 0
 474.851 412.06 478.864 348.309 487 277 c 2
 491 234 l 1
 525 247 561 273 598 312 c 0
 611 327 621 339 627 349 c 1
 607 349 l 1
 585 353 566 363 548 378 c 0
 517.579 405.737 502.368 441.479 502.368 484.511 c 0
 502.368 489.573 502.579 494.737 503 500 c 2
 511 547 l 2
 529 628 572 685 640 716 c 1
 669 735 708 744 755 744 c 0
 788 744 816 738 838 727 c 0
 885.341 701.85 908.607 657.002 908.607 592.051 c 0
 908.607 569.196 905.726 543.851 900 516 c 0
 896 499 893 486 890 477 c 0
 852 339 772 220 650 120 c 0
 643 114 632 106 618 95 c 0
 563 53 511 21 462 0 c 1
EndSplineSet
EndChar
StartChar: uni0E15
Encoding: 142 3605 144
Width: 1330
Flags: W
HStem: 0 21G<222 462 951 1171>
VStem: 261 216.661<276.58 568.513>
Fore
712 624 m 1
 675 618 648 599 630 568 c 0
 627 564 624 557 620 546 c 1
 616 517 l 2
 615 485 626 465 647 457 c 0
 652 456 656 455 659 455 c 2
 679 457 l 1
 705 464 725 490 739 537 c 2
 747 573 l 2
 747.143 575.148 747.215 577.23 747.215 579.245 c 0
 747.215 605.368 735.21 620.286 712 624 c 1
462 0 m 1
 222 0 l 1
 245 108 l 2
 253 147 259 230 261 356 c 0
 263 510 273 627 290 706 c 0
 299 749 311 789 327 826 c 0
 373 937 448 1023 549 1084 c 0
 609 1120 673 1142 741 1149 c 1
 881 1033 l 1
 1078 1149 l 1
 1185 1124 1259 1069 1301 986 c 0
 1322.2 944.171 1332.9 892.493 1332.9 830.965 c 0
 1332.9 785.113 1326.96 733.792 1315 677 c 2
 1171 0 l 1
 951 0 l 1
 1092 664 l 2
 1101.14 706.666 1105.83 741.531 1105.83 768.367 c 0
 1105.83 785.56 1103.9 799.457 1100 810 c 0
 1088 848 1063 881 1027 909 c 1
 830 793 l 1
 690 909 l 1
 631 886 586 850 554 802 c 0
 527 762 507 711 494 650 c 0
 483.212 598.758 477.661 536.46 477.661 463.263 c 0
 477.661 400.757 481.709 330.303 490 252 c 2
 491 234 l 1
 525 247 561 273 598 312 c 0
 611 327 621 339 627 349 c 1
 607 349 l 1
 585 353 566 363 548 378 c 0
 517.579 405.737 502.368 441.479 502.368 484.511 c 0
 502.368 489.573 502.579 494.737 503 500 c 2
 511 547 l 2
 529 628 572 685 640 716 c 1
 669 735 708 744 755 744 c 0
 788 744 816 738 838 727 c 0
 885.341 701.85 908.607 657.002 908.607 592.051 c 0
 908.607 569.196 905.726 543.851 900 516 c 0
 896 499 893 486 890 477 c 0
 852 339 772 220 650 120 c 0
 643 114 632 106 618 95 c 0
 563 53 511 21 462 0 c 1
EndSplineSet
EndChar
StartChar: uni0E16
Encoding: 143 3606 145
Width: 1240
Flags: W
HStem: 0 21G<862 1082> 929 220<683.2 987.665>
VStem: 559.808 131.815<191.921 262.451> 1013.04 227.982<705.651 905.178>
Fore
488 376 m 2
 485 363 l 1
 506 382 531 391 562 391 c 0
 580 392 598 388 617 380 c 0
 636 371 652 359 663 344 c 0
 682.3 320.564 691.623 291.427 691.623 256.588 c 0
 691.623 240.884 689.729 224.021 686 206 c 0
 682 185 673 160 660 133 c 0
 631 76 587 35 529 10 c 0
 496 -3 463 -10 429 -10 c 0
 380 -9 344 -2 320 9 c 0
 299 20 280 36 262 56 c 0
 242.536 77.976 232.927 112.173 232.927 158.592 c 0
 232.927 186.102 236.302 217.905 243 254 c 0
 244 264 248 280 252 303 c 2
 266 366 l 2
 284 449 306 509 332 546 c 0
 353 575 395 617 459 671 c 1
 424 726 366 767 286 792 c 1
 312 855 362 917 434 979 c 0
 564 1092 708 1149 868 1149 c 0
 1019 1149 1126 1102 1188 1008 c 0
 1223.44 955.807 1241.03 890.742 1241.03 813.073 c 0
 1241.03 770.207 1235.67 723.5 1225 673 c 2
 1082 0 l 1
 862 0 l 1
 1002 657 l 2
 1009.36 692.057 1013.04 723.738 1013.04 752.035 c 0
 1013.04 869.837 949.204 929 821 929 c 0
 715 929 631 896 567 831 c 1
 633 795 673 739 687 663 c 1
 682 661 645 628 576 563 c 0
 536 526 507 464 488 376 c 2
474 110 m 0
 499 110 521 124 540 152 c 0
 549 165 555 180 558 195 c 0
 559.208 203.658 559.808 211.668 559.808 219.028 c 0
 559.808 248.224 550.369 267.215 532 276 c 0
 526 279 519 280 511 280 c 0
 480 280 458 260 446 220 c 2
 441 204 l 2
 437.479 186.938 435.719 172.222 435.719 159.834 c 0
 435.719 126.482 448.479 110 474 110 c 0
EndSplineSet
EndChar
StartChar: uni0E17
Encoding: 144 3607 146
Width: 1350
Flags: W
HStem: 0 21G<318 592 996 1216>
Fore
625 410 m 1
 1024 990 l 2
 1075 1068 1139 1115 1215 1131 c 0
 1233 1134 1248 1136 1261 1136 c 0
 1284 1135 1302 1132 1315 1128 c 0
 1375 1110 1409 1067 1416 1000 c 0
 1416.87 992.421 1417.32 984.502 1417.32 976.243 c 0
 1417.32 956.17 1414.67 934.089 1409 910 c 2
 1216 0 l 1
 996 0 l 1
 1136 659 l 2
 1144.64 699.071 1148.96 726.179 1148.96 740.321 c 0
 1148.96 744.179 1148.64 747.071 1148 749 c 0
 1147 753 1144 757 1139 761 c 0
 1136 764 1132 765 1128 765 c 1
 1113 761 l 2
 1105 758 1098 752 1091 742 c 2
 592 0 l 1
 318 0 l 1
 479 759 l 1
 471 754 454 752 428 752 c 2
 417 752 l 2
 389 755 364 769 342 792 c 0
 322.112 814.019 311.81 842.597 311.81 877.016 c 0
 311.81 891.055 313.523 906.066 317 922 c 0
 322 945 331 973 345 1004 c 0
 366 1047 401 1084 450 1114 c 0
 488 1137 531 1149 578 1149 c 0
 633 1148 674 1130 703 1095 c 0
 725.589 1068.02 736.76 1029.62 736.76 980.295 c 0
 736.76 951.013 732.823 917.88 725 881 c 2
 625 410 l 1
520 1026 m 0
 501 1026 482 1015 462 994 c 0
 449 977 441 959 437 941 c 0
 435.627 934.137 434.961 927.51 434.961 921.077 c 0
 434.961 908.764 437.402 897.167 442 886 c 0
 452 867 466 857 485 857 c 0
 503 857 519 865 533 882 c 0
 544 895 552 916 558 945 c 0
 560.785 958.923 562.277 970.908 562.277 980.954 c 0
 562.277 992.554 560.287 1001.57 556 1008 c 0
 549 1020 537 1026 520 1026 c 0
EndSplineSet
EndChar
StartChar: uni0E18
Encoding: 145 3608 147
Width: 1250
Flags: W
HStem: 0 210<515 849> 1064 21G<1212 1255.5> 1129 20G<821 907>
Fore
916 529 m 2
 917.789 536.379 918.678 543.358 918.678 549.926 c 0
 918.678 572.731 907.962 590.578 887 603 c 2
 815 636 l 2
 715 671 548 707 313 742 c 1
 349 829 392 901 439 957 c 0
 488 1015 550 1062 625 1099 c 0
 693 1132 774 1149 868 1149 c 0
 946 1149 1014 1134 1073 1103 c 0
 1125 1077 1181 1064 1243 1064 c 0
 1268 1064 1294 1067 1320 1072 c 1
 1236 862 l 1
 1219 858 1199 856 1176 856 c 0
 1172.57 855.828 1169.08 855.745 1165.53 855.745 c 0
 1148.39 855.745 1129.88 857.686 1110 861 c 0
 1070 867 1038 876 1015 889 c 0
 960 918 900 935 833 940 c 2
 813 941 l 2
 740 941 690 925 665 892 c 1
 860 853 988 815 1048 778 c 0
 1116.93 736.968 1150.85 683.813 1150.85 617.984 c 0
 1150.85 603.597 1149.23 588.604 1146 573 c 2
 1088 303 l 2
 1045 99 1045 99 1024 0 c 1
 788 0 788 0 624 0 c 0
 305 0 305 0 250 0 c 1
 307 266 307 266 317 314 c 2
 388 650 l 1
 608 650 l 1
 537 314 l 2
 523 248 523 248 515 210 c 1
 669 210 l 1
 849 210 l 1
 866 290 866 290 871 314 c 2
 916 529 l 2
EndSplineSet
EndChar
StartChar: uni0E19
Encoding: 146 3609 148
Width: 1400
Flags: W
HStem: 0 21G<360 579> 1119 20G<1161 1381>
VStem: 319.477 119.073<880.455 946.685>
Fore
525 776 m 1
 502 757 474 748 441 748 c 0
 386 748 349 772 331 821 c 0
 323.318 840.5 319.477 861.397 319.477 883.896 c 0
 319.477 899.473 321.318 915.818 325 933 c 0
 330 956 338 981 350 1006 c 0
 368 1046 401 1081 449 1110 c 0
 491 1136 533 1149 575 1149 c 0
 652 1149 709 1129 745 1089 c 0
 769.789 1061.38 782.539 1026.23 782.539 983.559 c 0
 782.539 965.983 780.376 947.13 776 927 c 2
 659 377 l 1
 639 281 l 1
 1010 430 l 1
 1161 1139 l 1
 1381 1139 l 1
 1247 507 l 1
 1293 500 1330 482 1358 453 c 0
 1387.76 421.63 1402.64 377.968 1402.64 321.493 c 0
 1402.64 307.756 1401.76 293.261 1400 278 c 0
 1398 263 1397 252 1395 244 c 0
 1376 155 1350 95 1316 66 c 0
 1265 22 1207 -3 1143 -9 c 0
 1137 -10 1128 -10 1117 -10 c 2
 1077 -7 l 2
 1035 0 1003 17 982 42 c 0
 961.368 66.3158 951.053 94.9751 951.053 127.578 c 0
 951.053 139.222 952.368 151.368 955 164 c 1
 579 0 l 1
 360 0 l 1
 406 218 l 1
 525 776 l 1
525 1028 m 0
 501 1028 479 1014 460 987 c 1
 446 962 l 1
 443 954 441 948 440 943 c 0
 439.031 935.831 438.551 929.113 438.551 922.838 c 0
 438.551 896.725 446.875 878.287 463 867 c 0
 471 862 480 859 490 859 c 0
 526 862 549 888 559 936 c 2
 561 947 l 2
 564 960.5 565.5 972.312 565.5 982.438 c 0
 565.5 1012.81 552 1028 525 1028 c 0
1191 317 m 1
 1171 222 l 2
 1168.39 208.931 1167.03 197.814 1167.03 188.701 c 0
 1167.03 173.409 1170.85 163.76 1179 160 c 0
 1183 157 1189 156 1197 156 c 0
 1219 156 1235 177 1244 219 c 0
 1245.88 228.962 1246.83 238.343 1246.83 247.106 c 0
 1246.83 270.891 1239.88 290.115 1226 304 c 0
 1217 313 1205 317 1191 317 c 1
EndSplineSet
EndChar
StartChar: uni0E1A
Encoding: 147 3610 149
Width: 1300
Flags: W
HStem: 0 210<592 978> 1119 20G<1175 1395>
VStem: 289.224 121.697<878.753 941.545>
Fore
628 379 m 2
 598 242 598 242 592 210 c 1
 787 210 l 1
 978 210 l 1
 1008 352 1008 352 1014 379 c 2
 1175 1139 l 1
 1395 1139 l 1
 1211 273 l 2
 1171 84 1171 84 1153 0 c 1
 737 0 l 1
 327 0 l 1
 379 244 379 244 384 268 c 2
 488 759 l 1
 473 754 454 750 432 749 c 0
 400 749 371 756 348 770 c 0
 335 778 325 786 318 795 c 0
 298.816 819.868 289.224 849.28 289.224 883.954 c 0
 289.224 898.08 290.816 913.079 294 929 c 0
 300 954 308 979 321 1005 c 0
 342 1051 377 1088 425 1117 c 0
 452 1134 479 1144 507 1148 c 2
 556 1151 l 2
 623 1151 674 1135 708 1104 c 0
 711 1101 714 1099 715 1097 c 0
 735.147 1073.5 745.372 1037.36 745.372 988.904 c 0
 745.372 965.205 742.927 938.559 738 909 c 2
 724 835 l 1
 628 379 l 2
497 1028 m 0
 472 1028 450 1015 432 988 c 0
 423 975 416 960 412 943 c 0
 411.284 936.38 410.921 930.113 410.921 924.203 c 0
 410.921 897.081 418.578 877.495 435 866 c 0
 441 861 450 859 461 859 c 0
 497 862 521 888 531 935 c 2
 534 948 l 2
 536.617 960.609 537.932 971.746 537.932 981.398 c 0
 537.932 1012.32 524.436 1028 497 1028 c 0
EndSplineSet
EndChar
StartChar: uni0E1B
Encoding: 148 3611 150
Width: 1300
Flags: W
HStem: 0 210<592 978>
VStem: 289.224 121.697<878.753 941.545>
Fore
628 379 m 2
 598 242 598 242 592 210 c 1
 757 210 757 210 787 210 c 2
 978 210 l 1
 1008 352 1008 352 1014 379 c 2
 1248 1480 l 1
 1468 1480 l 1
 1211 273 l 2
 1171 84 1171 84 1153 0 c 1
 737 0 l 1
 327 0 l 1
 379 244 379 244 384 268 c 2
 488 759 l 1
 473 754 454 750 432 749 c 0
 400 749 371 756 348 770 c 0
 335 778 325 786 318 795 c 0
 298.816 819.868 289.224 849.28 289.224 883.954 c 0
 289.224 898.08 290.816 913.079 294 929 c 0
 300 954 308 979 321 1005 c 0
 342 1051 377 1088 425 1117 c 0
 452 1134 479 1144 507 1148 c 2
 556 1151 l 2
 623 1151 674 1135 708 1104 c 0
 711 1101 714 1099 715 1097 c 0
 735.147 1073.5 745.372 1037.36 745.372 988.904 c 0
 745.372 965.205 742.927 938.559 738 909 c 2
 724 835 l 1
 628 379 l 2
497 1028 m 0
 472 1028 450 1015 432 988 c 0
 423 975 416 960 412 943 c 0
 411.284 936.38 410.921 930.113 410.921 924.203 c 0
 410.921 897.081 418.578 877.495 435 866 c 0
 441 861 450 859 461 859 c 0
 497 862 521 888 531 935 c 2
 534 948 l 2
 536.617 960.609 537.932 971.746 537.932 981.398 c 0
 537.932 1012.32 524.436 1028 497 1028 c 0
EndSplineSet
EndChar
StartChar: uni0E1C
Encoding: 149 3612 151
Width: 1200
Flags: W
HStem: 0 21G<133 353 823 1043> 749 110<555.141 622.7> 1028 123<574.2 650>
VStem: 671.219 115.781<935.582 1007.14>
Fore
310 835 m 2
 333 942 361 1016 393 1059 c 0
 404 1072 417 1085 431 1097 c 0
 474 1130 531 1148 601 1151 c 2
 650 1150 l 1
 652 1149 653 1149 656 1148 c 0
 658 1148 660 1148 661 1148 c 0
 708 1141 744 1115 769 1069 c 0
 780 1046 786 1025 787 1005 c 0
 787.167 1000.67 787.25 996.361 787.25 992.083 c 0
 787.25 970.694 785.167 950 781 930 c 2
 768 888 l 2
 752 851 730 820 700 795 c 0
 664 766 620 750 567 749 c 0
 550 749 534 752 519 757 c 2
 514 759 l 1
 423 330 l 1
 725 698 l 1
 767 698 l 1
 896 330 l 1
 1065 1139 l 1
 1285 1139 l 1
 1100 268 l 2
 1064 100 1064 100 1043 0 c 1
 823 0 l 1
 675 354 l 1
 353 0 l 1
 133 0 l 1
 178 214 178 214 190 268 c 2
 310 835 l 2
621 1028 m 0
 585 1028 561 1001 550 948 c 2
 544 911 l 1
 546 888 l 1
 551 869 564 860 585 859 c 0
 614 859 638 876 656 911 c 0
 661 922 666 933 668 943 c 0
 670.153 952.687 671.219 961.577 671.219 969.691 c 0
 671.219 991.73 663.349 1008.04 648 1019 c 0
 640 1025 631 1028 621 1028 c 0
EndSplineSet
EndChar
StartChar: uni0E1D
Encoding: 150 3613 152
Width: 1200
Flags: W
HStem: 0 21G<133 353 823 1043> 749 110<555.141 622.7> 1028 123<574.2 650>
VStem: 671.219 115.781<935.582 1007.14>
Fore
310 835 m 2
 333 942 361 1016 393 1059 c 0
 404 1072 417 1085 431 1097 c 0
 474 1130 531 1148 601 1151 c 2
 650 1150 l 1
 652 1149 653 1149 656 1148 c 0
 658 1148 660 1148 661 1148 c 0
 708 1141 744 1115 769 1069 c 0
 780 1046 786 1025 787 1005 c 0
 787.167 1000.67 787.25 996.361 787.25 992.083 c 0
 787.25 970.694 785.167 950 781 930 c 2
 768 888 l 2
 752 851 730 820 700 795 c 0
 664 766 620 750 567 749 c 0
 550 749 534 752 519 757 c 2
 514 759 l 1
 423 330 l 1
 725 698 l 1
 767 698 l 1
 896 330 l 1
 1141 1480 l 1
 1358 1480 l 1
 1100 268 l 2
 1064 100 1064 100 1043 0 c 1
 823 0 l 1
 675 354 l 1
 353 0 l 1
 133 0 l 1
 178 214 178 214 190 268 c 2
 310 835 l 2
621 1028 m 0
 585 1028 561 1001 550 948 c 2
 544 911 l 1
 546 888 l 1
 551 869 564 860 585 859 c 0
 614 859 638 876 656 911 c 0
 661 922 666 933 668 943 c 0
 670.153 952.687 671.219 961.577 671.219 969.691 c 0
 671.219 991.73 663.349 1008.04 648 1019 c 0
 640 1025 631 1028 621 1028 c 0
EndSplineSet
EndChar
StartChar: uni0E1E
Encoding: 151 3614 153
Width: 1350
Flags: W
HStem: 0 21G<297 517 987 1207> 1119 20G<1229 1449>
VStem: 259.224 121.697<878.753 941.545>
Fore
354 268 m 1
 458 759 l 1
 443 754 424 750 402 749 c 0
 370 749 341 756 318 770 c 0
 305 778 295 786 288 795 c 0
 268.816 819.868 259.224 849.28 259.224 883.954 c 0
 259.224 898.08 260.816 913.079 264 929 c 0
 270 954 278 979 291 1005 c 0
 312 1051 347 1088 395 1117 c 0
 422 1134 449 1144 477 1148 c 2
 526 1151 l 2
 593 1151 644 1135 678 1104 c 0
 681 1101 684 1099 685 1097 c 0
 705.147 1073.5 715.372 1037.36 715.372 988.904 c 0
 715.372 965.205 712.927 938.559 708 909 c 2
 694 835 l 1
 623 500 l 1
 942 1039 l 1
 999 1039 l 1
 1093 500 l 1
 1229 1139 l 1
 1449 1139 l 1
 1264 268 l 2
 1228 100 1228 100 1207 0 c 1
 987 0 l 1
 883 600 l 1
 517 0 l 1
 297 0 l 1
 354 268 l 1
467 1028 m 0
 442 1028 420 1015 402 988 c 0
 393 975 386 960 382 943 c 0
 381.284 936.38 380.921 930.113 380.921 924.203 c 0
 380.921 897.081 388.578 877.495 405 866 c 0
 411 861 420 859 431 859 c 0
 467 862 491 888 501 935 c 2
 504 948 l 2
 506.617 960.609 507.932 971.746 507.932 981.398 c 0
 507.932 1012.32 494.436 1028 467 1028 c 0
EndSplineSet
EndChar
StartChar: uni0E1F
Encoding: 152 3615 154
Width: 1450
Flags: W
HStem: 0 21G<348 568 1038 1258>
VStem: 310.224 121.697<878.753 941.545>
Fore
405 268 m 1
 509 759 l 1
 494 754 475 750 453 749 c 0
 421 749 392 756 369 770 c 0
 356 778 346 786 339 795 c 0
 319.816 819.868 310.224 849.28 310.224 883.954 c 0
 310.224 898.08 311.816 913.079 315 929 c 0
 321 954 329 979 342 1005 c 0
 363 1051 398 1088 446 1117 c 0
 473 1134 500 1144 528 1148 c 2
 577 1151 l 2
 644 1151 695 1135 729 1104 c 0
 732 1101 735 1099 736 1097 c 0
 756.147 1073.5 766.372 1037.36 766.372 988.904 c 0
 766.372 965.205 763.927 938.559 759 909 c 2
 745 835 l 1
 674 500 l 1
 993 1039 l 1
 1050 1039 l 1
 1144 500 l 1
 1353 1480 l 1
 1573 1480 l 1
 1315 268 l 2
 1279 100 1279 100 1258 0 c 1
 1038 0 l 1
 934 600 l 1
 568 0 l 1
 348 0 l 1
 405 268 l 1
518 1028 m 0
 493 1028 471 1015 453 988 c 0
 444 975 437 960 433 943 c 0
 432.284 936.38 431.921 930.113 431.921 924.203 c 0
 431.921 897.081 439.578 877.495 456 866 c 0
 462 861 471 859 482 859 c 0
 518 862 542 888 552 935 c 2
 555 948 l 2
 557.617 960.609 558.932 971.746 558.932 981.398 c 0
 558.932 1012.32 545.436 1028 518 1028 c 0
EndSplineSet
EndChar
StartChar: uni0E20
Encoding: 153 3616 155
Width: 1350
Flags: W
HStem: -10 120<267.365 335.59> 929 220<813.2 1117.67>
VStem: 122 125.375<130.118 202.096> 1143.04 227.982<705.651 905.178>
Fore
618 376 m 2
 602 303 l 2
 579 194 549 119 512 78 c 0
 507 73 499 65 488 56 c 0
 436 16 382 -6 326 -9 c 0
 321 -10 310 -10 293 -10 c 0
 219 -10 168 18 140 73 c 0
 130 91 124 111 122 133 c 0
 121.833 137.5 121.75 141.944 121.75 146.324 c 0
 121.75 168.222 123.833 188.5 128 206 c 0
 140 264 167 310 209 344 c 0
 247 375 287 391 329 391 c 0
 341 392 353 390 365 386 c 0
 378 381 388 373 395 363 c 1
 400 384 l 2
 415 455 436 509 462 546 c 0
 483 575 525 617 589 671 c 1
 554 726 496 767 416 792 c 1
 442 855 492 917 564 979 c 0
 694 1092 838 1149 998 1149 c 0
 1149 1149 1256 1102 1318 1008 c 0
 1353.44 955.807 1371.03 890.742 1371.03 813.073 c 0
 1371.03 770.207 1365.67 723.5 1355 673 c 2
 1212 0 l 1
 992 0 l 1
 1132 657 l 2
 1139.36 692.057 1143.04 723.738 1143.04 752.035 c 0
 1143.04 869.837 1079.2 929 951 929 c 0
 845 929 761 896 697 831 c 1
 763 795 803 739 817 663 c 1
 812 661 775 628 706 563 c 0
 666 526 637 464 618 376 c 2
298 110 m 0
 334 110 358 141 371 204 c 0
 373.632 215.842 374.947 226.299 374.947 235.371 c 0
 374.947 260.773 364.632 275.316 344 279 c 2
 335 280 l 2
 306 280 282 262 263 226 c 0
 259 217 254 207 250 195 c 0
 248.25 185.75 247.375 177.25 247.375 169.469 c 0
 247.375 146.125 255.25 129.25 271 118 c 0
 279 113 288 110 298 110 c 0
EndSplineSet
EndChar
StartChar: uni0E21
Encoding: 154 3617 156
Width: 1350
Flags: W
HStem: 0 21G<934 1153> 1028 121<513.6 589>
Fore
1395 1139 m 1
 1199 218 l 2
 1168 72 1168 72 1153 0 c 1
 934 0 l 1
 628 164 l 1
 618 116 591 75 549 42 c 0
 516 17 477 0 433 -7 c 2
 392 -10 l 2
 385 -10 376 -9 364 -8 c 0
 305 -2 260 23 228 68 c 2
 222 79 l 2
 210.294 103.1 204.278 132.89 204.278 168.37 c 0
 204.278 184.416 205.509 201.626 208 220 c 2
 218 267 l 2
 242 345 285 407 347 453 c 0
 387 482 432 500 482 507 c 1
 539 776 l 1
 516 757 488 748 455 748 c 0
 420 748 393 758 372 779 c 0
 346.08 804.2 333.12 837.694 333.12 879.483 c 0
 333.12 895.734 335.08 913.24 339 932 c 0
 344 956 352 981 364 1006 c 0
 377 1032 396 1057 423 1080 c 0
 476 1126 531 1149 589 1149 c 0
 666 1149 723 1129 759 1089 c 0
 783.789 1061.38 796.539 1026.23 796.539 983.559 c 0
 796.539 965.983 794.376 947.13 790 927 c 2
 684 430 l 1
 994 281 l 1
 1014 377 l 1
 1176 1139 l 1
 1395 1139 l 1
539 1028 m 0
 528 1028 516 1024 504 1017 c 0
 478 1000 461 976 454 943 c 0
 453 930 453 918 454 908 c 0
 460 875 476 859 504 859 c 0
 533 862 554 879 565 910 c 2
 575 947 l 2
 578 960.5 579.5 972.312 579.5 982.438 c 0
 579.5 1012.81 566 1028 539 1028 c 0
456 317 m 1
 442 317 429 313 417 304 c 0
 389 285 371 256 363 219 c 0
 360.326 206.524 358.977 195.9 358.977 187.13 c 0
 358.977 166.377 366.535 156 382 156 c 0
 390 156 397 157 402 160 c 0
 417 166 429 187 436 222 c 2
 456 317 l 1
EndSplineSet
EndChar
StartChar: uni0E22
Encoding: 155 3618 157
Width: 1200
Flags: W
HStem: 0 210<484 852> 1119 20G<1049 1269>
Fore
654 1028 m 1
 634 1025 l 1
 622 1021 611 1012 602 999 c 1
 590 974 l 1
 586 963 584 954 582 947 c 0
 579 932.25 577.5 919.375 577.5 908.359 c 0
 577.5 875.312 591 859 618 859 c 2
 636 861 l 1
 662 870 683 895 699 936 c 0
 700 938 701 940 701 943 c 2
 705 966 l 1
 706 993 696 1011 675 1022 c 0
 669 1026 662 1028 654 1028 c 1
325 477 m 0
 348 503 373 525 403 544 c 2
 429 562 l 1
 400 580 378 601 363 624 c 0
 351.117 643.116 345.106 670.775 345.106 706.975 c 0
 345.106 740.841 350.367 782.183 361 831 c 0
 377 906 391 957 403 983 c 0
 422 1024 453 1061 493 1093 c 0
 528 1120 567 1138 608 1146 c 0
 617 1148 627 1149 635 1149 c 0
 717 1149 772 1131 802 1094 c 0
 827.07 1061.22 840.054 1021.92 840.054 977.019 c 0
 840.054 975.354 840.036 973.681 840 972 c 0
 839 960 838 948 835 936 c 0
 822 873 787 823 731 786 c 2
 709 773 l 2
 682 759 647 752 605 752 c 0
 588 752 578 753 574 756 c 1
 572.55 749.579 571.829 743.243 571.829 736.993 c 0
 571.829 713.071 582.386 690.407 603 669 c 0
 604 668 608 664 616 657 c 0
 631 642 663 632 713 629 c 0
 721 628 736 628 757 628 c 1
 729 495 l 1
 657 494 l 2
 593 487 550 452 526 390 c 0
 521 379 516 364 513 347 c 2
 484 210 l 1
 663 210 l 2
 851 210 851 210 852 210 c 1
 1049 1139 l 1
 1269 1139 l 1
 1084 269 l 1
 1027 0 l 1
 650 0 l 1
 626 0 l 1
 201 0 l 1
 257 264 l 1
 275 349 l 1
 289 410 l 2
 298 437 310 459 325 477 c 0
EndSplineSet
EndChar
StartChar: uni0E23
Encoding: 156 3619 158
Width: 1100
Flags: W
HStem: -10 120<663.907 736> 280 121<691 764.727> 1064 21G<1161.5 1204.5> 1129 20G<770 856>
VStem: 524.6 118.958<130.378 200.735>
Fore
1007 303 m 2
 987 206 967 141 947 109 c 0
 921 62 880 28 825 7 c 0
 795 -4 765 -10 736 -10 c 0
 609 -10 540 32 527 117 c 0
 525.4 127.8 524.6 138.92 524.6 150.232 c 0
 524.6 167.2 526.4 184.6 530 202 c 0
 542 259 568 306 608 342 c 0
 647 378 692 398 742 401 c 2
 785 399 l 2
 795 398 803 396 808 393 c 1
 836 529 l 2
 837.8 536.426 838.689 543.549 838.689 550.356 c 0
 838.689 573.797 828.149 593.501 808 609 c 2
 769 634 l 1
 766 634 l 0
 765 635 765 635 764 636 c 1
 664 671 497 707 262 742 c 1
 298 829 341 901 388 957 c 0
 437 1015 499 1062 574 1099 c 0
 642 1132 723 1149 817 1149 c 0
 895 1149 963 1134 1022 1103 c 0
 1074 1077 1131 1064 1192 1064 c 0
 1217 1064 1243 1067 1269 1072 c 1
 1185 862 l 1
 1167 858 1147 856 1125 856 c 0
 1121.57 855.828 1118.08 855.745 1114.53 855.745 c 0
 1097.39 855.745 1078.88 857.686 1059 861 c 0
 1026 866 998 874 976 883 c 0
 973 884 969 886 964 889 c 0
 909 918 849 935 782 940 c 2
 762 941 l 2
 689 941 639 925 614 892 c 1
 769 861 870 836 918 818 c 0
 952 805 979 791 997 778 c 0
 1046 742.125 1070.5 692.469 1070.5 629.031 c 0
 1070.5 619.969 1070 610.625 1069 601 c 0
 1068 589 1066 580 1065 573 c 2
 1007 303 l 2
765 192 m 0
 768.096 207.221 769.661 220.445 769.661 231.689 c 0
 769.661 264.033 756.713 280 730 280 c 0
 700 280 677 263 659 229 c 2
 646 197 l 1
 645 195 l 2
 644.038 187.692 643.558 180.828 643.558 174.401 c 0
 643.558 147.407 652.038 128.115 669 116 c 0
 674 112 681 110 687 110 c 1
 707 113 l 1
 735 126 754 153 765 192 c 0
EndSplineSet
EndChar
StartChar: uni0E24
Encoding: 157 3620 159
Width: 1240
Flags: W
HStem: 929 220<683.2 987.665>
VStem: 559.808 131.815<191.921 262.451> 1013.04 227.982<705.651 905.178>
Fore
488 376 m 2
 485 363 l 1
 506 382 531 391 562 391 c 0
 580 392 598 388 617 380 c 0
 636 371 652 359 663 344 c 0
 682.3 320.564 691.623 291.427 691.623 256.588 c 0
 691.623 240.884 689.729 224.021 686 206 c 0
 682 185 673 160 660 133 c 0
 631 76 587 35 529 10 c 0
 496 -3 463 -10 429 -10 c 0
 380 -9 344 -2 320 9 c 0
 299 20 280 36 262 56 c 0
 242.536 77.976 232.927 112.173 232.927 158.592 c 0
 232.927 186.102 236.302 217.905 243 254 c 0
 244 264 248 280 252 303 c 2
 266 366 l 2
 284 449 306 509 332 546 c 0
 353 575 395 617 459 671 c 1
 424 726 366 767 286 792 c 1
 312 855 362 917 434 979 c 0
 564 1092 708 1149 868 1149 c 0
 1019 1149 1126 1102 1188 1008 c 0
 1223.44 955.807 1241.03 890.742 1241.03 813.073 c 0
 1241.03 770.207 1235.67 723.5 1225 673 c 2
 1001 -380 l 1
 781 -380 l 1
 1002 657 l 2
 1009.36 692.057 1013.04 723.738 1013.04 752.035 c 0
 1013.04 869.837 949.204 929 821 929 c 0
 715 929 631 896 567 831 c 1
 633 795 673 739 687 663 c 1
 682 661 645 628 576 563 c 0
 536 526 507 464 488 376 c 2
474 110 m 0
 499 110 521 124 540 152 c 0
 549 165 555 180 558 195 c 0
 559.208 203.658 559.808 211.668 559.808 219.028 c 0
 559.808 248.224 550.369 267.215 532 276 c 0
 526 279 519 280 511 280 c 0
 480 280 458 260 446 220 c 2
 441 204 l 2
 437.479 186.938 435.719 172.222 435.719 159.834 c 0
 435.719 126.482 448.479 110 474 110 c 0
EndSplineSet
EndChar
StartChar: uni0E25
Encoding: 158 3621 160
Width: 1250
Flags: W
HStem: 0 21G<833 1053> 520 220<614 805.2> 929 220<700.5 852.922>
VStem: 571.808 121.815<191.921 262.451>
Fore
1214 915 m 2
 1218.8 896.2 1221.2 874.04 1221.2 848.648 c 0
 1221.2 810.56 1215.8 765.2 1205 713 c 2
 1053 0 l 1
 833 0 l 1
 889 263 l 2
 895.938 295.262 899.386 324.515 899.386 350.802 c 0
 899.386 400.291 887.165 439.264 863 468 c 0
 836 503 780 520 696 520 c 2
 681 520 l 2
 614 519 563 498 527 457 c 0
 510 435 499 410 491 383 c 2
 487 363 l 1
 508 382 533 391 564 391 c 0
 582 392 600 388 619 380 c 0
 638 371 654 359 665 344 c 0
 684.3 320.564 693.623 291.427 693.623 256.588 c 0
 693.623 240.884 691.729 224.021 688 206 c 0
 684 185 675 160 662 133 c 0
 633 76 589 35 531 10 c 0
 498 -3 465 -10 431 -10 c 0
 382 -9 346 -2 322 9 c 0
 301 20 282 36 264 56 c 0
 244.536 77.976 234.927 112.173 234.927 158.592 c 0
 234.927 186.102 238.302 217.905 245 254 c 0
 246 264 250 280 254 303 c 2
 283 438 l 2
 307 551 375 635 485 688 c 0
 556 723 635 740 723 740 c 0
 817 740 888 724 939 691 c 0
 954 682 965 671 972 658 c 1
 984 714 l 2
 988.28 734.331 990.398 753.135 990.398 770.367 c 0
 990.398 801.448 983.51 827.414 970 848 c 2
 967 852 l 2
 947 882 910 904 857 918 c 0
 827 925 797 929 767 929 c 0
 677 929 592 902 512 849 c 0
 481 828 454 803 431 775 c 1
 323 929 l 1
 376 995 452 1049 551 1092 c 0
 639 1130 726 1149 811 1149 c 0
 923 1149 1018 1124 1098 1074 c 0
 1101 1073 1108 1067 1121 1058 c 0
 1149 1037 1174 1004 1196 960 c 2
 1213 922 l 1
 1214 915 l 2
486 110 m 0
 511 110 533 124 552 152 c 0
 561 165 567 180 570 195 c 0
 571.208 203.658 571.808 211.668 571.808 219.028 c 0
 571.808 248.224 562.369 267.215 544 276 c 0
 538 279 531 280 523 280 c 0
 492 280 470 260 458 220 c 2
 453 204 l 2
 449.479 186.938 447.719 172.222 447.719 159.834 c 0
 447.719 126.482 460.479 110 486 110 c 0
EndSplineSet
EndChar
StartChar: uni0E26
Encoding: 159 3622 161
Width: 1350
Flags: W
HStem: -10 120<267.365 335.59> 929 220<813.2 1117.67>
VStem: 122 125.375<130.118 202.096> 1143.04 227.982<705.651 905.178>
Fore
618 376 m 2
 602 303 l 2
 579 194 549 119 512 78 c 0
 507 73 499 65 488 56 c 0
 436 16 382 -6 326 -9 c 0
 321 -10 310 -10 293 -10 c 0
 219 -10 168 18 140 73 c 0
 130 91 124 111 122 133 c 0
 121.833 137.5 121.75 141.944 121.75 146.324 c 0
 121.75 168.222 123.833 188.5 128 206 c 0
 140 264 167 310 209 344 c 0
 247 375 287 391 329 391 c 0
 341 392 353 390 365 386 c 0
 378 381 388 373 395 363 c 1
 400 384 l 2
 415 455 436 509 462 546 c 0
 483 575 525 617 589 671 c 1
 554 726 496 767 416 792 c 1
 442 855 492 917 564 979 c 0
 694 1092 838 1149 998 1149 c 0
 1149 1149 1256 1102 1318 1008 c 0
 1353.44 955.807 1371.03 890.742 1371.03 813.073 c 0
 1371.03 770.207 1365.67 723.5 1355 673 c 2
 1131 -380 l 1
 911 -380 l 1
 1132 657 l 2
 1139.36 692.057 1143.04 723.738 1143.04 752.035 c 0
 1143.04 869.837 1079.2 929 951 929 c 0
 845 929 761 896 697 831 c 1
 763 795 803 739 817 663 c 1
 812 661 775 628 706 563 c 0
 666 526 637 464 618 376 c 2
298 110 m 0
 334 110 358 141 371 204 c 0
 373.632 215.842 374.947 226.299 374.947 235.371 c 0
 374.947 260.773 364.632 275.316 344 279 c 2
 335 280 l 2
 306 280 282 262 263 226 c 0
 259 217 254 207 250 195 c 0
 248.25 185.75 247.375 177.25 247.375 169.469 c 0
 247.375 146.125 255.25 129.25 271 118 c 0
 279 113 288 110 298 110 c 0
EndSplineSet
EndChar
StartChar: uni0E27
Encoding: 160 3623 162
Width: 1150
Flags: W
HStem: -11 21G<761 805.5> 280 115<786.2 854.727> 929 220<635.7 862.4>
VStem: 618.643 114.716<134.703 202.368>
Fore
1184 714 m 2
 1096 303 l 2
 1075 204 1055 139 1036 108 c 0
 1022 84 1001 62 975 42 c 0
 937 13 886 -5 822 -10 c 0
 817 -11 810 -11 801 -11 c 0
 721 -11 666 18 636 75 c 0
 624.429 98.7857 618.643 126.291 618.643 156.984 c 0
 618.643 174.036 620.429 192.071 624 211 c 0
 638 270 667 317 713 354 c 0
 748 381 784 395 820 395 c 0
 853 395 877 390 890 381 c 1
 892 379 893 378 894 377 c 1
 957 675 l 2
 966.389 719.056 971.083 752.679 971.083 776.624 c 0
 971.083 785.833 970.389 793.611 969 800 c 0
 965 816 958 830 949 842 c 0
 907 900 827 929 709 929 c 0
 620 929 536 903 458 852 c 0
 423 829 395 803 373 775 c 1
 265 929 l 1
 306 970 358 1012 424 1053 c 0
 449 1069 472 1082 495 1093 c 0
 577 1130 663 1149 754 1149 c 0
 862 1149 956 1129 1038 1090 c 0
 1055 1083 1073 1072 1091 1059 c 0
 1144 1021 1177 974 1190 918 c 0
 1195.63 894.6 1198.45 868.571 1198.45 839.913 c 0
 1198.45 802.438 1193.63 760.467 1184 714 c 2
855 192 m 2
 858.096 207.221 859.661 220.445 859.661 231.689 c 0
 859.661 264.033 846.713 280 820 280 c 0
 794 280 772 264 752 233 c 0
 745 223 740 211 736 196 c 0
 734.234 187.927 733.359 180.3 733.359 173.134 c 0
 733.359 151.895 741.045 134.711 756 122 c 0
 763 117 770 113 778 111 c 1
 802 113 l 1
 825 119 842 142 853 182 c 2
 855 192 l 2
EndSplineSet
EndChar
StartChar: uni0E28
Encoding: 161 3624 163
Width: 1300
Flags: W
HStem: 0 21G<186 419 954 1134> 313 104<708.245 772.792> 969 180<754.518 928.673>
VStem: 224.698 184.864<381.265 609.205> 225.108 192.892<316 433.32> 1108.23 182.826<698.899 810.921>
Fore
1164 1061 m 1xf4
 1218 1094 1271 1148 1322 1224 c 1
 1540 1224 l 1
 1478 1108 1388 1012 1268 937 c 1
 1283.28 901.707 1291.06 858.367 1291.06 807.273 c 0
 1291.06 761.37 1284.78 709.208 1272 651 c 2
 1134 0 l 1
 954 0 l 1
 1103 702 l 2
 1106.48 718.178 1108.23 734.046 1108.23 749.574 c 0
 1108.23 796.434 1092.3 840.191 1060 880 c 0
 1046 898 1028 914 1006 928 c 0
 961 955 903 969 830 969 c 2
 823 969 l 2
 758 968 697 955 641 930 c 0
 576 903 525 863 486 808 c 0
 458 767 437 713 422 646 c 0
 414.328 607.638 409.562 572.184 409.562 540.875 c 0xf4
 409.562 535.457 409.705 530.163 410 525 c 2
 418 316 l 1
 461 419 515 510 582 587 c 0
 629 643 679 682 732 705 c 0
 754.769 714.846 778.675 719.769 803.25 719.769 c 0
 818.609 719.769 834.231 717.846 850 714 c 0
 888 704 919 679 944 640 c 0
 957 620 964 601 965 582 c 0
 965.536 575.837 965.785 569.818 965.785 563.904 c 0
 965.785 547.746 963.928 532.373 961 517 c 0
 953 479 929 438 889 395 c 2
 884 389 l 2
 835 338 785 313 733 313 c 0
 720 313 708 314 698 317 c 0
 677 321 657 333 637 353 c 0
 632 358 628 363 625 369 c 1
 575 300 519 204 457 81 c 0
 443 52 430 25 419 0 c 1
 186 0 l 1
 209 108 l 2
 219.206 157.175 225.108 251.115 225.108 390.618 c 0xec
 225.108 401.47 225.072 412.597 225 424 c 0
 224.798 433.395 224.698 442.698 224.698 451.909 c 0
 224.698 533.88 232.616 608.577 247 676 c 0
 256 721 269 763 285 800 c 0
 332 907 413 992 528 1057 c 0
 633 1114 737 1145 839 1149 c 2
 861 1149 l 2
 959 1148 1039 1131 1102 1098 c 2
 1108 1095 l 2
 1127 1085 1146 1074 1164 1061 c 1xf4
792 574 m 2
 777 570 758 555 735 530 c 0
 713 507 701 488 697 472 c 0
 695.632 466.801 694.938 461.902 694.938 457.302 c 0
 694.938 445.091 699.831 434.99 710 427 c 0
 717 420 726 417 737 417 c 0
 746 417 755 419 765 423 c 0
 782 430 800 442 818 460 c 0
 831 473 840 491 846 512 c 0
 847.857 518.501 848.757 524.715 848.757 530.612 c 0
 848.757 543.762 844.285 555.334 836 565 c 0
 830 572 820 576 806 576 c 1
 792 574 l 2
EndSplineSet
EndChar
StartChar: uni0E29
Encoding: 162 3625 164
Width: 1350
Flags: W
HStem: 0 210<561 947> 1119 20G<1144 1364>
VStem: 258.224 121.697<878.753 941.545>
Fore
466 1028 m 0
 441 1028 419 1015 401 988 c 0
 392 975 385 960 381 943 c 0
 380.284 936.38 379.921 930.113 379.921 924.203 c 0
 379.921 897.081 387.578 877.495 404 866 c 0
 410 861 419 859 430 859 c 0
 466 862 490 888 500 935 c 2
 503 948 l 2
 505.617 960.609 506.932 971.746 506.932 981.398 c 0
 506.932 1012.32 493.436 1028 466 1028 c 0
1220 463 m 1
 1180 273 l 2
 1140 84 1140 84 1122 0 c 1
 706 0 l 1
 296 0 l 1
 348 244 348 244 353 268 c 2
 457 759 l 1
 442 754 423 750 401 749 c 0
 369 749 341 756 317 770 c 0
 304 778 294 786 287 795 c 0
 267.816 819.868 258.224 849.28 258.224 883.954 c 0
 258.224 898.08 259.816 913.079 263 929 c 0
 269 954 277 979 290 1005 c 0
 311 1051 346 1088 394 1117 c 0
 421 1134 448 1144 476 1148 c 2
 525 1151 l 2
 592 1151 643 1135 677 1104 c 0
 680 1101 683 1099 684 1097 c 0
 704.147 1073.5 714.372 1037.36 714.372 988.904 c 0
 714.372 965.205 711.927 938.559 707 909 c 2
 693 835 l 1
 597 379 l 2
 567 242 567 242 561 210 c 1
 756 210 l 1
 947 210 l 1
 977 352 977 352 983 379 c 2
 991 421 l 1
 978 418 958 417 933 417 c 2
 929 417 l 2
 879 418 836 431 797 457 c 0
 764 480 744 513 736 556 c 0
 733 577 733 598 737 618 c 2
 739 625 l 2
 762 714 811 766 888 781 c 0
 893 782 901 783 912 784 c 1
 945 783 l 2
 983 777 1008 757 1022 723 c 0
 1025.63 714.173 1027.38 703.997 1027.38 692.193 c 0
 1027.38 681.265 1025.88 668.941 1023 655 c 0
 1021 644 1018 634 1014 625 c 0
 1006 608 991 592 969 575 c 1
 971 568 982 564 1003 564 c 0
 1011 563 1017 564 1022 566 c 1
 1144 1139 l 1
 1364 1139 l 1
 1258 642 l 1
 1290 668 1312 711 1325 771 c 1
 1458 771 l 1
 1442 697 1421 641 1394 603 c 0
 1388 592 1378 579 1366 566 c 0
 1333 527 1285 493 1220 463 c 1
932 651 m 1
 933 679 921 694 897 697 c 1
 882 696 l 1
 868 692 857 683 849 669 c 2
 842 653 l 1
 841.192 649.161 840.792 645.527 840.792 642.096 c 0
 840.792 628.547 847.031 618.182 859 611 c 0
 864 608 871 607 878 607 c 0
 897 607 912 616 925 635 c 0
 929 640 931 645 932 651 c 1
EndSplineSet
EndChar
StartChar: uni0E2A
Encoding: 163 3626 165
Width: 1250
Flags: W
HStem: 0 21G<833 1053> 520 220<614 805.2> 929 220<700.5 852.922>
VStem: 571.808 121.815<191.921 262.451>
Fore
1214 915 m 1
 1218.32 894.179 1220.48 871.196 1220.48 845.993 c 0
 1220.48 807.042 1215.32 762.786 1205 713 c 2
 1053 0 l 1
 833 0 l 1
 889 263 l 2
 895.938 295.262 899.386 324.515 899.386 350.802 c 0
 899.386 400.291 887.165 439.264 863 468 c 0
 836 503 780 520 696 520 c 2
 681 520 l 2
 614 519 563 498 527 457 c 0
 510 435 499 410 491 383 c 2
 487 363 l 1
 508 382 533 391 564 391 c 0
 582 392 600 388 619 380 c 0
 638 371 654 359 665 344 c 0
 684.3 320.564 693.623 291.427 693.623 256.588 c 0
 693.623 240.884 691.729 224.021 688 206 c 0
 684 185 675 160 662 133 c 0
 633 76 589 35 531 10 c 0
 498 -3 465 -10 431 -10 c 0
 382 -9 346 -2 322 9 c 0
 301 20 282 36 264 56 c 0
 244.536 77.976 234.927 112.173 234.927 158.592 c 0
 234.927 186.102 238.302 217.905 245 254 c 0
 246 264 250 280 254 303 c 2
 283 438 l 2
 307 551 375 635 485 688 c 0
 556 723 635 740 723 740 c 0
 817 740 888 724 939 691 c 0
 954 682 965 671 972 658 c 1
 984 714 l 2
 988.28 734.331 990.398 753.135 990.398 770.367 c 0
 990.398 801.448 983.51 827.414 970 848 c 2
 967 852 l 2
 947 882 910 904 857 918 c 0
 827 925 797 929 767 929 c 0
 677 929 592 902 512 849 c 0
 481 828 454 803 431 775 c 1
 323 929 l 1
 376 995 452 1049 551 1092 c 0
 639 1130 726 1149 811 1149 c 0
 947 1149 1045 1119 1105 1059 c 1
 1164 1094 1215 1144 1259 1209 c 1
 1527 1209 l 1
 1500 1138 1431 1063 1320 985 c 2
 1217 916 l 1
 1214 915 l 1
486 110 m 0
 511 110 533 124 552 152 c 0
 561 165 567 180 570 195 c 0
 571.208 203.658 571.808 211.668 571.808 219.028 c 0
 571.808 248.224 562.369 267.215 544 276 c 0
 538 279 531 280 523 280 c 0
 492 280 470 260 458 220 c 2
 453 204 l 2
 449.479 186.938 447.719 172.222 447.719 159.834 c 0
 447.719 126.482 460.479 110 486 110 c 0
EndSplineSet
EndChar
StartChar: uni0E2B
Encoding: 164 3627 166
Width: 1350
Flags: W
HStem: 0 21G<332 606 978 1198> 1129 20G<1195 1262>
VStem: 291.407 118.359<877.027 946.263>
Fore
635 385 m 1
 731 510 l 2
 765 551 795 584 821 611 c 0
 885 680 946 735 1004 776 c 1
 976.231 813.269 962.346 854.277 962.346 898.242 c 0
 962.346 914.439 964.231 931.038 968 948 c 0
 980 1006 1013 1055 1067 1095 c 0
 1114 1131 1167 1149 1223 1149 c 0
 1301 1149 1353 1122 1382 1068 c 2
 1394 1038 l 1
 1400 1002 l 2
 1400.17 999.083 1400.25 996.137 1400.25 993.151 c 0
 1400.25 978.735 1398.31 963.397 1395 946 c 0
 1377 863 1335 802 1269 764 c 1
 1297 747 1316 719 1327 680 c 0
 1329.75 667.361 1331.29 654.421 1331.29 641.51 c 0
 1331.29 630.926 1330.25 620.361 1328 610 c 2
 1198 0 l 1
 978 0 l 1
 1092 538 l 2
 1094.04 547.513 1095.04 556.449 1095.04 564.768 c 0
 1095.04 580.936 1091.26 594.776 1084 606 c 1
 1022 571 946 494 854 376 c 0
 757 251 675 125 606 0 c 1
 332 0 l 1
 493 759 l 1
 476 750 449 745 413 745 c 0
 359 745 322 769 302 818 c 0
 295.004 837.239 291.407 858.178 291.407 880.816 c 0
 291.407 897.008 293.247 914.069 297 932 c 0
 302 955 310 979 321 1003 c 0
 345 1055 387 1095 446 1122 c 0
 484 1139 524 1148 567 1149 c 2
 609 1146 l 2
 672 1135 715 1102 738 1049 c 0
 748.849 1024.11 754.404 998 754.404 970.147 c 0
 754.404 954.356 752.618 938.005 749 921 c 2
 635 385 l 1
496 1025 m 0
 472 1025 451 1012 432 987 c 1
 419 963 l 1
 412 940 l 2
 410.515 931.834 409.765 924.158 409.765 916.987 c 0
 409.765 895.179 416.702 878.041 431 866 c 0
 438 859 448 856 460 856 c 0
 492 858 515 879 527 919 c 0
 529 924 531 932 534 944 c 0
 534.472 950.021 534.708 955.707 534.708 961.059 c 0
 534.708 1001.04 521.576 1022.35 496 1025 c 0
1165 863 m 0
 1194 863 1217 876 1235 902 c 0
 1241 911 1246 921 1248 932 c 0
 1249.63 939.933 1250.45 947.322 1250.45 954.167 c 0
 1250.45 976.656 1241.63 993.267 1224 1004 c 0
 1218 1008 1208 1011 1195 1012 c 1
 1171 1009 l 1
 1149 1002 1132 988 1121 967 c 1
 1111 941 l 1
 1110 938 l 2
 1108.71 931.357 1108.07 925.082 1108.07 919.193 c 0
 1108.07 897.602 1116.71 881.214 1134 871 c 0
 1144 866 1154 863 1165 863 c 0
EndSplineSet
EndChar
StartChar: uni0E2C
Encoding: 165 3628 167
Width: 1400
Flags: W
HStem: 0 21G<311 531 1001 1221>
VStem: 273.224 121.697<878.753 941.545> 1366 147.987<1342.1 1416.46>
Fore
1455 1100 m 1
 1235 1100 l 1
 1247 1158 l 1
 1191 1168 1152 1193 1130 1234 c 0
 1117.41 1257.2 1110.96 1283.04 1110.96 1311.51 c 0
 1110.96 1325.99 1112.63 1341.16 1116 1357 c 0
 1121 1380 1129 1403 1140 1426 c 0
 1166 1481 1209 1519 1267 1541 c 0
 1294 1552 1324 1557 1356 1557 c 0
 1418 1557 1464 1534 1494 1489 c 0
 1501 1478 1505 1468 1508 1459 c 0
 1511.96 1445.35 1513.99 1428.99 1513.99 1409.99 c 0
 1513.99 1385.85 1510.72 1357.46 1504 1325 c 2
 1499 1301 l 1
 1534 1304 1567 1316 1595 1338 c 0
 1631 1367 1658 1416 1675 1487 c 1
 1809 1487 l 1
 1796 1436 l 2
 1786 1403 1774 1375 1761 1350 c 0
 1730 1291 1687 1244 1631 1207 c 0
 1588 1180 1539 1163 1483 1156 c 2
 1466 1154 l 1
 1455 1100 l 1
1290 1302 m 0
 1313 1302 1334 1313 1352 1335 c 0
 1359 1344 1364 1354 1366 1365 c 0
 1371 1388 1364 1406 1346 1419 c 0
 1337 1425 1327 1428 1317 1428 c 0
 1293 1428 1272 1417 1254 1396 c 0
 1246 1386 1240 1376 1238 1365 c 0
 1233 1340 1240 1322 1260 1310 c 0
 1270 1305 1280 1302 1290 1302 c 0
368 268 m 1
 472 759 l 1
 457 754 438 750 416 749 c 0
 384 749 355 756 332 770 c 0
 319 778 309 786 302 795 c 0
 282.816 819.868 273.224 849.28 273.224 883.954 c 0
 273.224 898.08 274.816 913.079 278 929 c 0
 284 954 292 979 305 1005 c 0
 326 1051 361 1088 409 1117 c 0
 436 1134 463 1144 491 1148 c 2
 540 1151 l 2
 607 1151 658 1135 692 1104 c 0
 695 1101 698 1099 699 1097 c 0
 719.147 1073.5 729.372 1037.36 729.372 988.904 c 0
 729.372 965.205 726.927 938.559 722 909 c 2
 708 835 l 1
 637 500 l 1
 956 1039 l 1
 1013 1039 l 1
 1107 500 l 1
 1235 1099 l 1
 1455 1099 l 1
 1278 268 l 2
 1242 100 1242 100 1221 0 c 1
 1001 0 l 1
 897 600 l 1
 531 0 l 1
 311 0 l 1
 368 268 l 1
481 1028 m 0
 456 1028 434 1015 416 988 c 0
 407 975 400 960 396 943 c 0
 395.284 936.38 394.921 930.113 394.921 924.203 c 0
 394.921 897.081 402.578 877.495 419 866 c 0
 425 861 434 859 445 859 c 0
 481 862 505 888 515 935 c 2
 518 948 l 2
 520.617 960.609 521.932 971.746 521.932 981.398 c 0
 521.932 1012.32 508.436 1028 481 1028 c 0
EndSplineSet
EndChar
StartChar: uni0E2D
Encoding: 166 3629 168
Width: 1230
Flags: W
HStem: 0 210<488 875> 625 123<544.2 619.236> 929 220<605.1 856.812>
Fore
280 270 m 1
 315 434 l 2
 336 530 357 596 379 631 c 0
 413 684 459 719 518 737 c 0
 543 744 567 748 590 748 c 0
 603 748 617 747 630 745 c 0
 688 736 726 704 746 649 c 0
 752.75 630.25 756.125 609.812 756.125 587.688 c 0
 756.125 580.312 755.75 572.75 755 565 c 0
 754 552 753 539 750 525 c 0
 741 483 715 443 674 404 c 0
 637 371 597 354 553 354 c 0
 540 354 529 355 519 358 c 1
 512 325 l 2
 494 239 494 239 488 210 c 1
 664 210 l 1
 875 210 l 1
 894 303 894 303 907 360 c 2
 982 715 l 2
 986.082 733.98 988.122 751.71 988.122 768.199 c 0
 988.122 832.506 957.082 877.939 895 905 c 0
 859 921 816 929 765 929 c 0
 642 928 540 887 459 808 c 2
 428 775 l 1
 315 936 l 1
 447 1078 612 1149 809 1149 c 0
 938 1149 1040 1118 1117 1057 c 0
 1152 1030 1178 998 1195 959 c 0
 1211.51 922.932 1219.42 882.752 1219.42 838.919 c 0
 1219.42 811.05 1216.22 781.705 1210 751 c 2
 1108 273 l 2
 1067 82 1067 82 1050 0 c 1
 615 0 l 1
 223 0 l 1
 280 270 l 1
591 625 m 0
 555 625 531 598 520 545 c 0
 516.61 529.59 514.929 516.175 514.929 504.755 c 0
 514.929 479.119 523.397 463.534 540 458 c 1
 542 458 545 458 548 457 c 0
 551 456 554 456 555 456 c 0
 582 456 604 472 623 504 c 0
 629 513 634 525 639 540 c 0
 640.5 547.75 641.25 555.062 641.25 561.953 c 0
 641.25 582.625 634.5 599.5 621 613 c 0
 612 621 602 625 591 625 c 0
EndSplineSet
EndChar
StartChar: uni0E2E
Encoding: 167 3630 169
Width: 1250
Flags: W
HStem: 0 210<495 882> 625 123<551.2 626.236> 746 148<725.931 861> 972 177<736.847 891.7>
Fore
995 741 m 2xd0
 1001 770 1004 793 1005 808 c 1
 923 767 831 746 731 746 c 2
 713 746 l 2xb0
 609 748 527 769 466 809 c 0
 421.023 839.818 398.245 876.185 398.245 918.103 c 0
 398.245 926.512 399.162 935.144 401 944 c 2
 409 970 l 2
 429 1011 469 1048 530 1079 c 0
 535 1081 541 1083 546 1086 c 0
 634 1126 728 1147 829 1149 c 0
 947 1149 1045 1121 1124 1064 c 1
 1159 1099 1183 1131 1196 1158 c 1
 1309 1116 l 1
 1275 1061 1239 1014 1201 975 c 1
 1220.71 933.552 1230.71 891.18 1230.71 847.884 c 0
 1230.71 827.462 1228.49 806.834 1224 786 c 2
 1115 273 l 2
 1074 82 1074 82 1057 0 c 1
 622 0 l 1
 230 0 l 1
 287 270 l 1
 322 434 l 2
 343 530 364 596 386 631 c 0
 420 684 466 719 525 737 c 0
 550 744 574 748 597 748 c 0
 610 748 624 747 637 745 c 0
 695 736 733 704 753 649 c 0
 759.75 630.25 763.125 609.812 763.125 587.688 c 0
 763.125 580.312 762.75 572.75 762 565 c 0
 761 552 760 539 757 525 c 0
 748 483 722 443 681 404 c 0
 644 371 604 354 560 354 c 0
 547 354 536 355 526 358 c 1
 519 325 l 2
 501 239 501 239 495 210 c 1
 671 210 l 1
 882 210 l 1
 901 303 901 303 914 360 c 2
 995 741 l 2xd0
598 625 m 0xd0
 562 625 538 598 527 545 c 0
 523.61 529.59 521.929 516.175 521.929 504.755 c 0
 521.929 479.119 530.397 463.534 547 458 c 1
 549 458 551 458 554 457 c 0
 557 456 560 456 562 456 c 0
 589 456 611 472 630 504 c 0
 636 513 641 525 646 540 c 0
 647.5 547.75 648.25 555.062 648.25 561.953 c 0
 648.25 582.625 641.5 599.5 628 613 c 0
 619 621 609 625 598 625 c 0xd0
935 935 m 1
 915 957 871 969 802 972 c 2
 787 972 l 2
 755 972 724 965 694 950 c 0
 673.337 938.874 672.52 932.413 672.52 928.017 c 0
 672.52 913.118 693.68 902.52 736 897 c 0
 748 895 760 894 772 894 c 0xb0
 831 894 880 905 921 927 c 0
 929 931 933 934 935 935 c 1
EndSplineSet
EndChar
StartChar: uni0E2F
Encoding: 168 3631 170
Width: 1150
Flags: W
HStem: 0 21G<805 1025> 665 224<503.2 628> 1129 20G<1049 1269>
Fore
1269 1149 m 1
 1025 0 l 1
 805 0 l 1
 970 776 l 1
 915 722 833 687 724 672 c 0
 694 667 662 665 628 665 c 0
 532 665 454 683 396 719 c 0
 358 743 333 782 321 836 c 0
 317.593 850.194 315.799 864.711 315.799 879.549 c 0
 315.799 890.846 316.839 902.33 319 914 c 2
 331 958 l 2
 353 1023 392 1074 450 1110 c 0
 479 1129 510 1140 543 1144 c 2
 591 1147 l 2
 666 1146 718 1117 749 1061 c 1
 750 1056 752 1052 753 1050 c 1
 757.399 1039.55 759.681 1026.99 759.681 1012.31 c 0
 759.681 1000.29 758.151 986.855 755 972 c 0
 750 945 740 920 725 895 c 0
 718 881 708 869 697 860 c 1
 731 857 l 2
 780 858 826 870 868 895 c 2
 869 895 872 897 877 900 c 0
 946 943 998 1011 1033 1103 c 0
 1040 1118 1045 1134 1049 1149 c 1
 1269 1149 l 1
464 958 m 1
 461 936 l 2
 460 911 473 896 498 890 c 0
 501 889 506 889 513 889 c 0
 538 889 560 899 580 920 c 0
 590 932 597 945 600 958 c 0
 601.042 962.792 601.562 967.41 601.562 971.836 c 0
 601.562 988.656 594.042 1002.71 579 1013 c 0
 570 1020 559 1023 547 1023 c 0
 513 1023 488 1008 472 978 c 2
 464 958 l 1
EndSplineSet
EndChar
StartChar: uni0E30
Encoding: 169 3632 171
Width: 1100
Flags: W
HStem: 79 190<393.023 509> 388 110<399.175 472> 603 190<505.022 620> 912 110<511.135 583>
Fore
237 312 m 0
 260 413 318 472 410 491 c 0
 428 494 448 497 472 498 c 2
 510 495 l 2
 567 484 600 450 609 391 c 0
 612 374 613 357 610 340 c 2
 601 303 l 2
 593 276 579 252 561 233 c 1
 594 235 l 2
 648 243 702 272 758 322 c 0
 787 347 809 373 824 399 c 0
 838 424 849 451 858 480 c 1
 1024 480 l 1
 1000 369 941 275 847 199 c 0
 754 124 650 85 534 80 c 0
 528 79 519 79 509 79 c 0
 413 79 340 102 290 149 c 0
 256 180 237 219 234 268 c 0
 233.75 271.75 233.625 275.438 233.625 279.094 c 0
 233.625 290.062 234.75 300.75 237 312 c 0
357 327 m 1
 356 307 l 1
 360 286 373 273 395 270 c 0
 397 269 400 269 402 269 c 2
 426 272 l 1
 451 280 469 296 479 319 c 0
 480 321 481 325 482 330 c 1
 482 350 l 1
 479 371 466 383 443 387 c 0
 441 388 438 388 433 388 c 0
 406 388 384 376 368 352 c 0
 362 345 359 337 357 327 c 1
349 836 m 0
 371 937 429 996 522 1015 c 0
 539 1018 560 1021 583 1022 c 2
 622 1019 l 2
 678 1008 711 974 720 915 c 0
 724 898 724 881 722 864 c 2
 713 827 l 1
 697 792 l 2
 689 778 681 766 672 757 c 1
 705 759 l 2
 759 767 814 796 870 846 c 0
 899 871 920 897 935 923 c 0
 949 948 961 975 969 1004 c 1
 1135 1004 l 1
 1112 893 1053 799 959 723 c 0
 865 648 761 609 645 604 c 0
 639 603 631 603 620 603 c 0
 525 603 452 626 401 673 c 0
 367 704 348 743 345 792 c 0
 344.823 794.657 344.74 797.282 344.74 799.888 c 0
 344.74 811.991 346.531 823.657 349 836 c 0
468 851 m 1
 468 831 l 1
 471 810 484 797 507 794 c 0
 509 793 511 793 514 793 c 2
 537 796 l 1
 562 804 580 820 590 843 c 0
 591 845 592 849 594 854 c 1
 594 874 l 1
 590 895 577 907 555 911 c 0
 553 912 550 912 545 912 c 0
 518 912 496 900 479 876 c 0
 474 869 470 861 468 851 c 1
EndSplineSet
EndChar
StartChar: uni0E31
Encoding: 170 3633 172
Width: 0
Flags: W
HStem: 1233 190<-265.678 -151> 1542 110<-257.154 -202>
Fore
-422 1466 m 0
 -400 1567 -342 1626 -249 1645 c 0
 -232 1648 -211 1651 -188 1652 c 2
 -149 1649 l 2
 -93 1638 -60 1604 -51 1545 c 0
 -47 1528 -46 1511 -49 1494 c 2
 -58 1457 l 1
 -74 1422 l 2
 -82 1408 -91 1396 -99 1387 c 1
 -66 1389 l 2
 -12 1397 43 1426 99 1476 c 0
 127 1501 149 1527 164 1553 c 0
 178 1578 190 1605 198 1634 c 1
 364 1634 l 1
 341 1523 282 1429 188 1353 c 0
 94 1278 -10 1239 -126 1234 c 0
 -132 1233 -140 1233 -151 1233 c 0
 -246 1233 -319 1256 -370 1303 c 0
 -404 1334 -423 1373 -426 1422 c 0
 -426.236 1425.54 -426.361 1429.03 -426.361 1432.48 c 0
 -426.361 1443.67 -425.056 1454.54 -422 1466 c 0
-303 1481 m 1
 -303 1461 l 1
 -300 1440 -287 1427 -264 1424 c 0
 -262 1423 -260 1423 -258 1423 c 2
 -234 1426 l 1
 -209 1434 -191 1450 -181 1473 c 0
 -180 1475 -179 1479 -178 1484 c 1
 -177 1504 l 2
 -179 1519 -187 1530 -202 1537 c 1
 -222 1542 l 1
 -226 1542 l 2
 -254 1542 -276 1530 -292 1506 c 2
 -302 1486 l 1
 -303 1481 l 1
EndSplineSet
EndChar
StartChar: uni0E32
Encoding: 171 3634 173
Width: 1150
Flags: W
HStem: 0 21G<736 956> 929 220<655.5 809.047>
Fore
1116 753 m 2
 956 0 l 1
 736 0 l 1
 891 729 l 2
 895.379 749.864 897.568 769.135 897.568 786.831 c 0
 897.568 837.838 879.379 875.758 843 901 c 0
 816 920 778 929 730 929 c 0
 670 929 612 904 554 853 c 0
 522 825 498 795 480 764 c 1
 300 846 l 1
 350 927 417 997 502 1056 c 0
 593 1118 681 1149 766 1149 c 0
 914 1149 1018 1107 1078 1022 c 2
 1099 987 l 2
 1117.99 948.413 1127.6 904.198 1127.6 854.356 c 0
 1127.6 822.823 1123.75 789.038 1116 753 c 2
EndSplineSet
EndChar
StartChar: uni0E33
Encoding: 172 3635 174
Width: 1050
Flags: W
HStem: 0 21G<682 902> 929 220<601.5 755.047>
Fore
1062 753 m 1
 902 0 l 1
 682 0 l 1
 837 729 l 2
 841.379 749.864 843.568 769.135 843.568 786.831 c 0
 843.568 837.838 825.379 875.758 789 901 c 0
 762 920 724 929 676 929 c 0
 616 929 558 904 500 853 c 0
 468 825 444 795 426 764 c 1
 246 846 l 1
 296 927 363 997 448 1056 c 0
 539 1118 627 1149 712 1149 c 0
 860 1149 964 1107 1024 1022 c 0
 1057.06 975.281 1073.59 919.264 1073.59 853.947 c 0
 1073.59 828.389 1071.06 801.406 1066 773 c 2
 1062 753 l 1
55 1668 m 0
 125 1668 178 1643 214 1594 c 0
 231 1569 241 1542 243 1512 c 0
 243.962 1504.31 244.41 1496.61 244.41 1488.95 c 0
 244.41 1472.72 242.397 1456.63 239 1441 c 0
 224 1370 185 1312 122 1267 c 0
 72 1232 17 1213 -42 1212 c 2
 -87 1216 l 2
 -153 1227 -196 1262 -216 1321 c 0
 -223.682 1341.68 -227.523 1364.11 -227.523 1388.28 c 0
 -227.523 1405.02 -225.682 1422.59 -222 1441 c 0
 -208 1506 -171 1562 -112 1607 c 0
 -61 1648 -5 1668 55 1668 c 0
22 1509 m 2
 -12 1509 -39 1496 -59 1470 c 0
 -66 1458 -72 1446 -74 1435 c 0
 -75.4591 1428.54 -76.1795 1422.42 -76.1795 1416.68 c 0
 -76.1795 1394.85 -65.789 1378.29 -46 1368 c 0
 -36 1362 -24 1359 -10 1359 c 0
 28 1359 57 1374 76 1404 c 0
 83 1413 87 1423 90 1435 c 0
 91.3685 1441.26 92.0491 1447.13 92.0491 1452.63 c 0
 92.0491 1475.26 80.5258 1491.54 58 1502 c 2
 34 1509 l 1
 22 1509 l 2
EndSplineSet
MultipleSubs: 0 65534 'G017' uni0E4B uni0E32
MultipleSubs: 0 65534 'G016' uni0E4A uni0E32
MultipleSubs: 0 65534 'G015' uni0E49 uni0E32
MultipleSubs: 0 65534 'G014' uni0E48 uni0E32
MultipleSubs: 0 65534 'G012' uni0E4D uni0E32
EndChar
StartChar: uni0E34
Encoding: 173 3636 175
Width: 0
Flags: W
HStem: 1331 110<-898 -588> 1519 160<-453.9 -281.772>
VStem: -898 979.211<1247.16 1331>
Fore
81 1228 m 5
 -39 1255 -226 1281 -482 1306 c 0
 -650 1323 -789 1331 -898 1331 c 1
 -864 1398 -805 1466 -720 1534 c 0
 -675 1569 -634 1597 -597 1616 c 0
 -514 1658 -426 1679 -333 1679 c 0
 -312 1679 -290 1678 -267 1676 c 0
 -182 1666 -106 1632 -41 1575 c 2
 -8 1542 l 2
 52.0512 1474.32 81.2107 1375.75 81.2107 1247.16 c 0
 81.2107 1240.85 81.1404 1234.46 81 1228 c 5
-139 1392 m 1
 -149 1433 -180 1466 -231 1491 c 0
 -264 1507 -297 1516 -332 1519 c 2
 -388 1520 l 2
 -470 1516 -537 1490 -588 1441 c 1
 -488 1441 -375 1432 -249 1413 c 0
 -203 1406 -166 1399 -139 1392 c 1
EndSplineSet
EndChar
StartChar: uni0E35
Encoding: 174 3637 176
Width: 0
Flags: W
HStem: 1323 106<-844 -540> 1498 144<-437 -263.246>
Fore
80 1260 m 1
 80 1255 80 1244 80 1228 c 1
 -33 1253 -214 1278 -464 1301 c 0
 -617 1316 -743 1323 -844 1323 c 1
 -802 1406 -735 1477 -644 1537 c 0
 -538 1607 -427 1642 -310 1642 c 0
 -204 1642 -122 1617 -64 1568 c 0
 -54 1559 -46 1551 -41 1546 c 1
 -1 1735 l 1
 181 1735 l 1
 80 1260 l 1
-134 1387 m 1
 -143 1420 -171 1448 -218 1471 c 0
 -247 1486 -277 1495 -310 1498 c 2
 -363 1499 l 2
 -437 1494 -495 1470 -540 1429 c 1
 -448 1429 -342 1420 -223 1403 c 0
 -195 1399 -165 1394 -134 1387 c 1
EndSplineSet
EndChar
StartChar: uni0E36
Encoding: 175 3638 177
Width: 0
Flags: W
HStem: 1323 96<-844 -537> 1500 140<-402 -266.206> 1559 122<91.6436 166.552>
Fore
-50 1562 m 1xc0
 -26 1606 11 1639 61 1661 c 0
 92 1674 122 1681 151 1681 c 2
 158 1681 l 2xa0
 218 1679 261 1656 288 1613 c 0
 301.644 1591.85 308.307 1567.91 308.307 1541.18 c 0
 308.307 1528.73 306.86 1515.67 304 1502 c 0
 292 1442 258 1395 205 1360 c 0
 166 1334 123 1321 78 1321 c 1
 79.4641 1310.02 80.3923 1290.46 80.3923 1262.33 c 0
 80.3923 1252.04 80.2679 1240.59 80 1228 c 1
 -33 1253 -214 1278 -464 1301 c 0
 -617 1316 -743 1323 -844 1323 c 1
 -801 1408 -731 1481 -634 1540 c 0
 -527 1607 -411 1640 -287 1640 c 0
 -271 1640 -258 1640 -251 1639 c 0
 -162 1634 -97 1611 -57 1570 c 1
 -57 1569 -56 1567 -54 1566 c 0
 -52 1565 -51 1563 -50 1562 c 1xc0
132 1559 m 0
 105 1559 84 1548 68 1526 c 1
 58 1507 l 1
 57 1500 l 2
 55.7043 1494.39 55.0615 1489.1 55.0615 1484.15 c 0
 55.0615 1466.17 63.535 1452.62 80 1444 c 0
 88 1439 96 1437 106 1437 c 0
 138 1437 161 1450 177 1476 c 0
 181 1482 184 1490 186 1500 c 0xc0
 187.2 1505.4 187.8 1510.44 187.8 1515.12 c 0
 187.8 1533.84 178.2 1546.8 159 1554 c 0
 150 1557 141 1559 132 1559 c 0
-140 1376 m 1
 -150 1410 -175 1440 -215 1467 c 0
 -245 1486 -277 1497 -309 1500 c 2
 -348 1499 l 2
 -402 1494 -453 1477 -501 1447 c 0
 -517 1438 -529 1429 -537 1419 c 1
 -450 1419 -348 1410 -230 1393 c 0
 -196 1388 -165 1383 -140 1376 c 1
EndSplineSet
EndChar
StartChar: uni0E37
Encoding: 176 3639 178
Width: 0
Flags: W
HStem: 1299 102.422<-681.116 -107.257> 1323 91<-825 -560> 1506 128<-436 -248.078>
VStem: -825 1003<1323 1722>
Fore
-67 1587 m 1x70
 -52 1583 -39 1571 -28 1551 c 1
 8 1722 l 1
 178 1722 l 1
 85 1285 l 1
 75 1228 l 1
 -34 1253 -206 1276 -443 1299 c 0xb0
 -603 1315 -730 1323 -825 1323 c 1
 -777 1409 -708 1481 -617 1539 c 0
 -516 1602 -411 1634 -301 1634 c 2
 -295 1634 l 2
 -279 1634 -259 1631 -235 1625 c 1
 -214 1723 l 1
 -38 1723 l 1
 -67 1587 l 1x70
-109 1370 m 1
 -125 1432 -166 1474 -232 1495 c 0
 -253 1502 -274 1505 -297 1506 c 2
 -357 1506 l 2
 -436 1500 -503 1470 -558 1417 c 2
 -560 1414 l 1x70
 -416 1408 -283 1396 -160 1379 c 0
 -136 1376 -119 1373 -109 1370 c 1
EndSplineSet
EndChar
StartChar: uni0E38
Encoding: 177 3640 179
Width: 0
Flags: W
VStem: -580.245 93.1536<-283.734 -232.121>
Fore
-475 -534 m 1
 -440 -370 l 1
 -453 -375 -465 -378 -477 -378 c 0
 -510 -377 -537 -364 -558 -341 c 0
 -573.157 -325.154 -580.245 -303.613 -580.245 -277.03 c 0
 -580.245 -265.028 -578.8 -251.998 -576 -238 c 0
 -573 -225 -568 -212 -562 -197 c 0
 -559 -190 -556 -183 -552 -177 c 0
 -523 -129 -478 -100 -416 -89 c 0
 -402 -86 -387 -85 -370 -85 c 0
 -321 -85 -283 -97 -256 -120 c 0
 -251 -124 -248 -127 -246 -129 c 0
 -226.554 -154.118 -216.299 -187.114 -216.299 -227.987 c 0
 -216.299 -237.56 -216.861 -247.564 -218 -258 c 0
 -221 -281 -225 -299 -228 -313 c 2
 -275 -534 l 1
 -475 -534 l 1
-420 -176 m 0
 -442 -176 -461 -187 -475 -209 c 0
 -481 -219 -484 -228 -486 -236 c 0
 -486.727 -240.909 -487.091 -245.554 -487.091 -249.928 c 0
 -487.091 -269.612 -479.727 -283.818 -465 -292 c 0
 -461 -295 -455 -296 -446 -296 c 0
 -418 -296 -399 -275 -391 -233 c 0
 -388.855 -223.943 -387.789 -215.966 -387.789 -209.067 c 0
 -387.789 -187.022 -398.673 -176 -420 -176 c 0
EndSplineSet
EndChar
StartChar: uni0E39
Encoding: 178 3641 180
Width: 0
Flags: W
HStem: -504 129<-505 -389>
VStem: -797.627 88.2483<-261.325 -214.353>
Fore
-505 -375 m 1
 -389 -375 l 1
 -330 -98 l 1
 -181 -98 l 1
 -267 -504 l 1
 -681 -504 l 1
 -645 -335 l 1
 -656 -344 -667 -348 -679 -349 c 0
 -686.273 -350.064 -693.263 -350.594 -699.97 -350.594 c 0
 -731.07 -350.594 -756.08 -339.21 -775 -317 c 0
 -790.127 -300.36 -797.627 -280.161 -797.627 -256.402 c 0
 -797.627 -233.042 -790.377 -206.242 -776 -176 c 0
 -760 -144 -734 -118 -697 -97 c 0
 -671 -82 -645 -75 -619 -75 c 0
 -570 -75 -534 -85 -510 -106 c 0
 -486.395 -127.977 -474.053 -159.892 -474.053 -201.746 c 0
 -474.053 -211.311 -474.698 -221.396 -476 -232 c 0
 -480 -253 -483 -273 -487 -290 c 2
 -505 -375 l 1
-648 -161 m 0
 -662 -161 -676 -168 -690 -182 c 0
 -699 -193 -706 -205 -708 -218 c 0
 -708.929 -222.644 -709.378 -227 -709.378 -231.098 c 0
 -709.378 -240.238 -707.143 -248.096 -703 -255 c 0
 -696.497 -268.005 -686.543 -274.107 -674.741 -274.107 c 0
 -673.838 -274.107 -672.924 -274.071 -672 -274 c 0
 -658 -274 -646 -268 -636 -257 c 0
 -630 -250 -624 -236 -620 -215 c 0
 -618.33 -206.234 -617.532 -198.688 -617.532 -192.361 c 0
 -617.532 -183.532 -619.087 -177.078 -622 -173 c 0
 -627 -165 -636 -161 -648 -161 c 0
EndSplineSet
EndChar
StartChar: uni0E3A
Encoding: 179 3642 181
Width: 0
Flags: W
VStem: -424.219 274.844<-222.994 -169.312 -222.994 -169.312>
Fore
-259 -60 m 0
 -222 -60 -194 -73 -173 -99 c 0
 -157.25 -120.75 -149.375 -144.188 -149.375 -169.312 c 0
 -149.375 -177.688 -150.25 -186.25 -152 -195 c 0
 -160 -232 -181 -263 -213 -289 c 0
 -245 -316 -279 -330 -316 -330 c 0
 -351 -330 -380 -316 -401 -289 c 0
 -416.349 -269.265 -424.219 -247.393 -424.219 -222.994 c 0
 -424.219 -214.012 -423.153 -204.687 -421 -195 c 0
 -414 -160 -394 -128 -361 -99 c 0
 -329 -73 -295 -60 -259 -60 c 0
EndSplineSet
EndChar
StartChar: uni0E3F
Encoding: 180 3647 182
Width: 1250
Flags: W
HStem: 0 190<408 541> 689 227<563 687 897 947.126> 1291 198<642 815 1018 1051.24>
VStem: 1056.21 253.768<471.562 626.432>
Fore
1138 827 m 1
 1228 800 1283 739 1303 644 c 0
 1307.65 621.154 1309.98 596.876 1309.98 571.09 c 0
 1309.98 535.928 1305.65 497.962 1297 457 c 0
 1267 314 1192 200 1072 117 c 2
 1023 86 l 2
 928 33 821 5 702 2 c 1
 674 -133 l 1
 513 -133 l 1
 541 0 l 1
 132 0 l 1
 448 1489 l 1
 857 1489 l 1
 880 1595 l 1
 1041 1595 l 1
 1018 1489 l 1
 1209 1486 1325 1431 1367 1323 c 0
 1378.29 1295.34 1383.84 1264.5 1383.84 1230.12 c 0
 1383.84 1203.58 1380.53 1174.93 1374 1144 c 0
 1352 1040 1318 964 1272 915 c 0
 1257 900 1246 890 1237 884 c 2
 1202 862 l 2
 1189 855 1173 848 1155 841 c 0
 1147 838 1142 837 1140 836 c 1
 1138 827 l 1
736 916 m 1
 815 1291 l 1
 642 1291 l 1
 563 916 l 1
 736 916 l 1
897 916 m 1
 978 917 1037 943 1072 992 c 0
 1094 1023 1112 1067 1124 1124 c 0
 1128 1143 1130 1160.31 1130 1175.95 c 0
 1130 1222.88 1112 1254.75 1076 1272 c 0
 1053 1283 1020 1289 976 1291 c 1
 897 916 l 1
581 190 m 1
 687 689 l 1
 514 689 l 1
 408 190 l 1
 581 190 l 1
743 194 m 1
 840 199 917 234 974 298 c 0
 1011 339 1036 390 1048 449 c 0
 1053.47 475.922 1056.21 500.544 1056.21 522.867 c 0
 1056.21 602.532 1021.3 652.91 951 674 c 0
 925 683 891 687 848 687 c 1
 743 194 l 1
EndSplineSet
EndChar
StartChar: uni0E40
Encoding: 181 3648 183
Width: 700
Flags: W
HStem: 1126 20G<388 608>
VStem: 516.8 130.823<192.921 263.423>
Fore
388 1146 m 1
 608 1146 l 1
 441 364 l 1
 462 383 488 392 518 392 c 0
 536 393 555 389 573 381 c 0
 592 372 608 360 619 345 c 0
 638.3 321.564 647.623 292.427 647.623 257.588 c 0
 647.623 241.884 645.729 225.021 642 207 c 0
 638 186 630 161 616 134 c 0
 587 77 543 36 485 11 c 0
 453 -2 419 -9 385 -9 c 0
 336 -8 300 -1 276 10 c 0
 255 21 236 37 218 57 c 0
 198.536 78.976 188.927 113.173 188.927 159.592 c 0
 188.927 187.102 192.302 218.905 199 255 c 0
 201 265 204 281 209 304 c 2
 388 1146 l 1
431 111 m 0
 455 111 477 125 497 153 c 0
 505 166 511 180 515 196 c 0
 516.2 204.6 516.8 212.56 516.8 219.88 c 0
 516.8 249.16 507.2 268.2 488 277 c 0
 482 280 475 281 467 281 c 0
 436 281 414 261 402 221 c 0
 401 218 399 212 398 205 c 0
 394.08 187.36 392.12 172.229 392.12 159.584 c 0
 392.12 127.07 405.08 111 431 111 c 0
EndSplineSet
EndChar
StartChar: uni0E41
Encoding: 182 3649 184
Width: 1320
Flags: W
HStem: 1126 20G<420 640 1013 1233>
VStem: 548.8 130.823<192.921 263.423> 1141.8 130.823<192.921 263.423>
Fore
1013 1146 m 1
 1233 1146 l 1
 1066 364 l 1
 1087 383 1113 392 1143 392 c 0
 1161 393 1180 389 1198 381 c 0
 1217 372 1232 360 1244 345 c 0
 1263.3 321.564 1272.62 292.427 1272.62 257.588 c 0
 1272.62 241.884 1270.73 225.021 1267 207 c 0
 1263 186 1255 161 1241 134 c 0
 1213 77 1169 36 1110 11 c 0
 1078 -2 1044 -9 1010 -9 c 0
 961 -8 925 -1 901 10 c 0
 880 21 861 37 843 57 c 0
 823.536 78.976 813.927 113.173 813.927 159.592 c 0
 813.927 187.102 817.302 218.905 824 255 c 0
 826 265 829 281 834 304 c 2
 1013 1146 l 1
1056 111 m 0
 1081 111 1103 125 1122 153 c 0
 1130 166 1136 180 1140 196 c 0
 1141.2 204.6 1141.8 212.56 1141.8 219.88 c 0
 1141.8 249.16 1132.2 268.2 1113 277 c 1
 1094 281 l 1
 1092 281 l 2
 1061 281 1039 261 1027 221 c 0
 1026 218 1024 212 1023 205 c 0
 1019.08 187.36 1017.12 172.229 1017.12 159.584 c 0
 1017.12 127.07 1030.08 111 1056 111 c 0
420 1146 m 1
 640 1146 l 1
 473 364 l 1
 494 383 520 392 550 392 c 0
 568 393 587 389 605 381 c 0
 624 372 640 360 651 345 c 0
 670.3 321.564 679.623 292.427 679.623 257.588 c 0
 679.623 241.884 677.729 225.021 674 207 c 0
 670 186 662 161 648 134 c 0
 619 77 575 36 517 11 c 0
 485 -2 451 -9 417 -9 c 0
 368 -8 332 -1 308 10 c 0
 287 21 268 37 250 57 c 0
 230.536 78.976 220.927 113.173 220.927 159.592 c 0
 220.927 187.102 224.302 218.905 231 255 c 0
 233 265 236 281 241 304 c 2
 420 1146 l 1
463 111 m 0
 487 111 509 125 529 153 c 0
 537 166 543 180 547 196 c 0
 548.2 204.6 548.8 212.56 548.8 219.88 c 0
 548.8 249.16 539.2 268.2 520 277 c 0
 514 280 507 281 499 281 c 0
 468 281 446 261 434 221 c 0
 433 218 431 212 430 205 c 0
 426.08 187.36 424.12 172.229 424.12 159.584 c 0
 424.12 127.07 437.08 111 463 111 c 0
EndSplineSet
EndChar
StartChar: uni0E42
Encoding: 183 3650 185
Width: 1100
Flags: W
VStem: 913.8 130.627<191.43 263.423>
Fore
942 850 m 2
 843 388 l 1
 865 394 887 397 907 397 c 0
 955 397 991 380 1016 345 c 0
 1034.84 319.185 1044.43 288.988 1044.43 253.73 c 0
 1044.43 238.455 1042.63 222.23 1039 205 c 0
 1033 180 1025 156 1013 134 c 0
 985 77 941 36 882 11 c 0
 850 -2 816 -9 782 -9 c 0
 733 -8 697 -1 673 10 c 0
 652 21 633 37 615 57 c 0
 595.536 78.976 585.927 113.173 585.927 159.592 c 0
 585.927 187.102 589.302 218.905 596 255 c 0
 598 265 601 281 606 304 c 2
 722 850 l 2
 731.458 895.064 736.273 932.39 736.273 961.634 c 0
 736.273 984.954 733.211 1003.13 727 1016 c 0
 697 1084 580 1132 377 1161 c 0
 360 1164 325 1168 271 1175 c 1
 275 1196 302 1240 350 1309 c 0
 369 1336 385 1357 396 1370 c 0
 464 1451 542 1507 630 1539 c 0
 675 1556 717 1564 755 1564 c 0
 768 1564 778 1564 784 1563 c 0
 816 1561 874 1545 958 1516 c 0
 1056 1482 1131 1464 1183 1463 c 0
 1261 1463 1327 1483 1380 1524 c 1
 1280 1297 l 1
 1217 1267 1152 1252 1084 1252 c 0
 1036 1252 974 1268 898 1301 c 0
 831 1328 784 1344 756 1347 c 2
 721 1347 l 2
 709 1346 698 1343 686 1338 c 0
 668 1329 650 1315 633 1295 c 1
 744 1276 831 1236 894 1177 c 0
 896 1175 897 1174 898 1173 c 0
 941.237 1132.58 963.27 1078.91 963.27 1011.16 c 0
 963.27 1006.83 963.18 1002.45 963 998 c 2
 957 930 l 2
 951 899 946 873 942 850 c 2
828 111 m 0
 853 111 875 125 894 153 c 0
 902 166 908 180 912 196 c 0
 913.2 204.6 913.8 212.56 913.8 219.88 c 0
 913.8 249.16 904.2 268.2 885 277 c 0
 879 280 872 281 864 281 c 0
 833 281 811 261 799 221 c 0
 798 218 796 212 795 205 c 0
 791.08 187.36 789.12 172.229 789.12 159.584 c 0
 789.12 127.07 802.08 111 828 111 c 0
EndSplineSet
EndChar
StartChar: uni0E43
Encoding: 184 3651 186
Width: 1000
Flags: W
VStem: 866.8 130.627<191.43 263.423>
Fore
629 633 m 2
 647 720 672 787 703 834 c 0
 724 863 745 889 768 910 c 2
 824 962 l 2
 892 1025 935 1078 954 1121 c 0
 960 1134 965 1148 970 1165 c 2
 976 1206 l 2
 976.349 1210.7 976.522 1215.3 976.522 1219.79 c 0
 976.522 1266.86 957.428 1302.27 920 1326 c 0
 895 1342 860 1350 815 1350 c 1
 844 1344 862 1317 869 1268 c 2
 871 1225 l 2
 870 1205 868 1188 865 1173 c 0
 862 1156 857 1141 852 1130 c 0
 824 1059 773 1008 699 975 c 0
 649 953 595 942 536 942 c 0
 438 942 371 979 338 1052 c 0
 324.269 1081.33 317.16 1113.79 317.16 1149.35 c 0
 317.16 1170.77 319.738 1193.32 325 1217 c 0
 353 1345 428 1439 552 1499 c 0
 612 1530 682 1549 761 1557 c 0
 783 1560 807 1561 833 1561 c 0
 949 1560 1041 1531 1111 1474 c 0
 1129 1459 1143 1444 1154 1428 c 0
 1177.3 1394.18 1188.73 1347.37 1188.73 1286.72 c 0
 1188.73 1266.67 1187.48 1245.11 1185 1222 c 0
 1183 1203 1180 1185 1176 1166 c 0
 1158 1083 1110 1009 1034 942 c 0
 990 902 954 864 926 829 c 2
 915 815 l 2
 891 782 872 739 860 685 c 2
 849 633 l 1
 796 388 l 1
 819 394 840 397 860 397 c 0
 908 397 944 380 969 345 c 0
 987.838 319.185 997.427 288.988 997.427 253.73 c 0
 997.427 238.455 995.627 222.23 992 205 c 0
 986 180 978 156 966 134 c 0
 937 77 893 36 835 11 c 0
 803 -2 769 -9 735 -9 c 0
 686 -8 650 -1 626 10 c 0
 605 21 586 37 568 57 c 0
 548.536 78.976 538.927 113.173 538.927 159.592 c 0
 538.927 187.102 542.302 218.905 549 255 c 0
 551 265 554 281 559 304 c 2
 629 633 l 2
781 111 m 0
 805 111 827 125 847 153 c 0
 855 166 861 180 865 196 c 0
 866.2 204.6 866.8 212.56 866.8 219.88 c 0
 866.8 249.16 857.2 268.2 838 277 c 0
 832 280 825 281 817 281 c 0
 786 281 764 261 752 221 c 0
 751 218 749 212 748 205 c 0
 744.08 187.36 742.12 172.229 742.12 159.584 c 0
 742.12 127.07 755.08 111 781 111 c 0
512 1188 m 0
 510.43 1179.68 509.649 1171.95 509.649 1164.82 c 0
 509.649 1126.53 532.165 1105.53 576 1103 c 1
 603 1106 l 2
 636 1113 660 1132 676 1162 c 0
 680 1170 684 1179 686 1190 c 0
 687.059 1196.18 687.588 1201.98 687.588 1207.42 c 0
 687.588 1232.81 676.059 1250.29 653 1261 c 2
 630 1268 l 2
 626 1269 621 1269 615 1269 c 0
 577 1269 547 1254 526 1224 c 0
 519 1214 514 1202 512 1188 c 0
EndSplineSet
EndChar
StartChar: uni0E44
Encoding: 185 3652 187
Width: 1140
Flags: W
VStem: 354 191.932<1285.27 1504.32> 1001.8 130.627<191.43 263.423>
Fore
883 1194 m 2
 885.421 1205.03 886.612 1214.61 886.612 1222.72 c 0
 886.612 1244.78 877.814 1256 861 1256 c 0
 846 1256 828 1242 809 1215 c 2
 760 1148 l 2
 706 1081 635 1048 549 1047 c 0
 535 1047 521 1049 507 1052 c 0
 421 1075 370 1179 354 1366 c 2
 346 1521 l 1
 543 1521 l 1
 551 1407 563 1335 579 1305 c 0
 588 1290 598 1282 608 1282 c 0
 632 1282 658 1302 687 1343 c 2
 764 1454 l 2
 819 1525 875 1564 934 1571 c 0
 939 1572 947 1572 958 1572 c 0
 1060 1567 1120 1526 1136 1450 c 0
 1139.65 1435.86 1141.42 1420.69 1141.42 1404.38 c 0
 1141.42 1384.92 1138.9 1363.85 1134 1341 c 2
 931 388 l 1
 953 394 975 397 995 397 c 0
 1043 397 1079 380 1104 345 c 0
 1122.84 319.185 1132.43 288.988 1132.43 253.73 c 0
 1132.43 238.455 1130.63 222.23 1127 205 c 0
 1121 180 1113 156 1101 134 c 0
 1073 77 1029 36 970 11 c 0
 938 -2 904 -9 870 -9 c 0
 821 -8 785 -1 761 10 c 0
 740 21 721 37 703 57 c 0
 684.302 78.1102 675.063 111.953 675.063 158.967 c 0
 675.063 189.901 679.063 226.537 687 269 c 0
 688 277 691 290 694 308 c 2
 883 1194 l 2
916 111 m 0
 941 111 963 125 982 153 c 0
 990 166 996 180 1000 196 c 0
 1001.2 204.6 1001.8 212.56 1001.8 219.88 c 0
 1001.8 249.16 992.2 268.2 973 277 c 0
 967 280 960 281 952 281 c 0
 921 281 899 261 887 221 c 0
 886 218 884 212 883 205 c 0
 879.08 187.36 877.12 172.229 877.12 159.584 c 0
 877.12 127.07 890.08 111 916 111 c 0
EndSplineSet
EndChar
StartChar: uni0E45
Encoding: 186 3653 188
Width: 1000
Flags: W
HStem: 929 220<583.5 737.047>
Fore
1044 753 m 1
 803 -380 l 1
 583 -380 l 1
 819 729 l 2
 823.379 749.864 825.568 769.135 825.568 786.831 c 0
 825.568 837.838 807.379 875.758 771 901 c 0
 744 920 706 929 658 929 c 0
 598 929 540 904 482 853 c 0
 450 825 426 795 408 764 c 1
 228 846 l 1
 278 927 345 997 430 1056 c 0
 521 1118 609 1149 694 1149 c 0
 842 1149 946 1107 1006 1022 c 0
 1039.06 975.281 1055.59 919.264 1055.59 853.947 c 0
 1055.59 828.389 1053.06 801.406 1048 773 c 2
 1044 753 l 1
EndSplineSet
EndChar
StartChar: uni0E46
Encoding: 187 3654 189
Width: 1100
Flags: W
Fore
437 588 m 1
 456 586 l 1
 479 588 501 602 521 628 c 0
 530 639 535 647 537 652 c 2
 546 691 l 2
 546.346 694.346 546.519 697.559 546.519 700.642 c 0
 546.519 724.278 536.346 740.269 516 750 c 0
 512 753 506 754 500 754 c 1
 484 751 l 1
 473 746 464 738 455 727 c 0
 443 712 433 697 426 681 c 0
 419 664 414 651 412 642 c 0
 411.045 636.655 410.565 631.674 410.565 627.057 c 0
 410.565 607.492 419.2 594.473 437 588 c 1
888 -380 m 1
 682 -380 l 1
 927 771 l 2
 928.8 779.7 929.7 789.12 929.7 799.206 c 0
 929.7 822.74 924.8 849.9 915 880 c 0
 909 901 902 917 892 929 c 1
 836.5 893 783.5 875 733 875 c 0
 682.5 875 634.5 893 589 929 c 1
 566 904 550 883 541 866 c 2
 540 865 540 864 539 862 c 1
 619 862 664 827 676 756 c 0
 677.6 745.2 678.4 734.4 678.4 723.536 c 0
 678.4 707.24 676.6 690.8 673 674 c 0
 660 611 628 558 577 516 c 0
 529 477 475 457 415 457 c 0
 404 457 395 457 389 458 c 0
 323 464 279 500 259 567 c 0
 251.792 589.734 248.273 614.004 248.273 639.471 c 0
 248.273 659.934 250.545 681.169 255 703 c 0
 257 712 261 725 266 741 c 0
 294 822 322 882 349 923 c 0
 367 948 388 974 412 999 c 0
 461 1048 517 1090 580 1124 c 0
 605 1137 623 1145 636 1149 c 1
 772 1041 l 1
 939 1149 l 1
 982 1137 1020 1112 1053 1073 c 2
 1072 1049 l 2
 1102 1012 1123 961 1134 894 c 0
 1137.38 873.217 1139.13 852.902 1139.13 833.054 c 0
 1139.13 811.835 1137.13 791.151 1133 771 c 2
 888 -380 l 1
EndSplineSet
EndChar
StartChar: uni0E47
Encoding: 188 3655 190
Width: 0
Flags: W
HStem: 1284 143<-280.678 -196>
Fore
-123 1562 m 1
 -139 1561 -152 1553 -163 1538 c 1
 -169 1522 l 1
 -170 1521 l 2
 -173 1504 -165 1493 -147 1488 c 1
 -134 1487 l 1
 -116 1488 -102 1496 -93 1510 c 1
 -91 1515 -89 1520 -88 1523 c 0
 -85 1540 -91 1552 -107 1559 c 1
 -123 1562 l 1
-222 1434 m 1
 -243.778 1449.56 -254.667 1470.56 -254.667 1497.47 c 0
 -254.667 1505.16 -253.778 1513.33 -252 1522 c 0
 -250 1533 -246 1543 -241 1553 c 0
 -216 1596 -179 1623 -129 1633 c 0
 -124 1634 -116 1635 -105 1636 c 1
 -68 1634 l 2
 -20 1627 9 1604 20 1566 c 0
 23.7487 1551.01 25.7767 1535.44 25.7767 1519.29 c 0
 25.7767 1505.29 24.2513 1490.86 21 1476 c 0
 14 1447 4 1420 -11 1395 c 0
 -49 1334 -99 1298 -162 1287 c 0
 -174 1285 -185 1284 -196 1284 c 0
 -271 1284 -332 1300 -378 1333 c 2
 -420 1362 l 2
 -433 1369 -447 1372 -463 1372 c 0
 -484 1372 -499 1354 -509 1318 c 0
 -514 1297 -519 1285 -523 1284 c 1
 -622 1284 -685 1320 -710 1393 c 0
 -716.996 1413.41 -720.593 1435.17 -720.593 1458.29 c 0
 -720.593 1474.83 -718.753 1492.07 -715 1510 c 0
 -711 1529 -705 1546 -698 1563 c 0
 -661 1640 -608 1696 -536 1730 c 0
 -517 1739 -497 1746 -478 1751 c 0
 -448 1760 -388 1768 -299 1773 c 0
 -205 1779 -138 1791 -97 1809 c 0
 -55 1828 -24 1857 -5 1894 c 1
 177 1894 l 1
 160 1843 121 1792 58 1741 c 0
 5 1698 -45 1671 -91 1660 c 0
 -113 1654 -174 1646 -274 1637 c 0
 -379 1628 -450 1612 -487 1589 c 0
 -509 1576 -524 1559 -531 1538 c 2
 -540 1511 l 2
 -540 1508 -540 1507 -540 1506 c 1
 -540 1501 -538 1494 -534 1486 c 1
 -509 1521 -479 1539 -446 1539 c 0
 -439 1539 -432 1538 -426 1536 c 0
 -397 1528 -370 1513 -347 1492 c 0
 -310 1457 -286 1438 -275 1434 c 0
 -265 1429 -256 1427 -248 1427 c 1
 -230 1430 l 1
 -229 1431 -227 1432 -226 1432 c 0
 -224 1434 -223 1434 -222 1434 c 1
EndSplineSet
EndChar
StartChar: uni0E48
Encoding: 189 3656 191
Width: 0
Flags: W
VStem: 10 291<1826 2106>
Fore
70 2106 m 1
 301 2106 l 1
 241 1826 l 1
 10 1826 l 1
 70 2106 l 1
EndSplineSet
Substitution: 0 65534 'low0' uni0E48.low
Substitution: 0 65534 'amn0' uni0E4D
Substitution: 0 65534 'low0' uni0E48.low
EndChar
StartChar: uni0E49
Encoding: 190 3657 192
Width: 0
Flags: W
Fore
524 2156 m 1
 462 2021 354 1910 200 1825 c 0
 103 1770 -4 1734 -120 1716 c 0
 -148 1712 -184 1708 -230 1703 c 1
 -207 1810 l 1
 -160 1821 -127 1840 -109 1867 c 0
 -105 1872 -102 1878 -99 1885 c 1
 -114 1880 -128 1878 -144 1878 c 0
 -163 1877 -181 1882 -198 1891 c 2
 -219 1906 l 2
 -222 1909 -226 1913 -231 1920 c 0
 -245.7 1941.7 -253.05 1965.85 -253.05 1993.14 c 0
 -253.05 2004.83 -251.7 2017.1 -249 2030 c 0
 -234 2081 -205 2119 -161 2146 c 0
 -135 2161 -108 2169 -79 2170 c 2
 -40 2167 l 2
 12 2158 48 2132 68 2087 c 2
 76 2057 l 1
 78 2025 l 1
 77 2009 l 1
 67 1966 l 1
 49 1925 l 1
 43 1915 l 1
 97 1926 151 1952 206 1994 c 0
 229 2013 248 2030 263 2046 c 0
 294 2080 321 2117 342 2156 c 1
 524 2156 l 1
-110 1966 m 0
 -90 1966 -73 1975 -58 1994 c 0
 -52 2001 -48 2010 -46 2020 c 0
 -45.2 2023.8 -44.8 2027.44 -44.8 2030.92 c 0
 -44.8 2044.84 -51.2 2056.2 -64 2065 c 0
 -72 2070 -79 2073 -87 2073 c 0
 -109 2073 -127 2063 -142 2044 c 1
 -151 2026 l 2
 -152 2025 -153 2023 -154 2020 c 0
 -154.976 2015.51 -155.457 2011.25 -155.457 2007.22 c 0
 -155.457 1990.63 -147.29 1978.05 -132 1970 c 0
 -127 1967 -119 1966 -110 1966 c 0
EndSplineSet
Substitution: 0 65534 'low0' uni0E49.low
Substitution: 0 65534 'amn0' uni0E4D
Substitution: 0 65534 'low0' uni0E49.low
EndChar
StartChar: uni0E4A
Encoding: 191 3658 193
Width: 0
Flags: W
Fore
-216 1798 m 0
 -215 1822 -223 1835 -240 1837 c 1
 -252 1836 l 1
 -272 1831 -286 1821 -294 1806 c 1
 -298 1794 l 1
 -297 1769 -287 1756 -267 1756 c 0
 -251 1756 -236 1764 -224 1780 c 0
 -219 1786 -216 1792 -216 1798 c 0
255 1918 m 1
 406 2169 l 1
 586 2169 l 1
 585 2169 518 2057 385 1832 c 0
 334 1747 240 1695 102 1677 c 0
 76 1674 52 1672 30 1672 c 1
 64 1711 86 1755 96 1802 c 0
 100.296 1821.5 102.408 1840.01 102.408 1857.47 c 0
 102.408 1892.84 93.7385 1923.89 77 1950 c 0
 70 1962 63 1971 55 1976 c 1
 -112 1858 l 1
 -192 1946 l 1
 -226 1975 l 1
 -227 1976 l 1
 -253 1967 -276 1949 -295 1922 c 0
 -296 1921 -298 1917 -302 1912 c 0
 -306 1905 -309 1896 -312 1886 c 1
 -287 1905 -260 1914 -228 1914 c 0
 -180 1914 -152 1893 -143 1851 c 0
 -141 1840 -140 1832 -140 1826 c 2
 -144 1793 l 2
 -154 1750 -179 1717 -217 1694 c 0
 -219 1693 -222 1691 -226 1690 c 0
 -229 1689 -232 1687 -234 1686 c 1
 -260 1674 -290 1668 -322 1668 c 0
 -352 1668 -377 1672 -397 1681 c 0
 -442 1700 -469 1738 -476 1795 c 0
 -477.417 1804.92 -478.081 1814.96 -478.081 1825.13 c 0
 -478.081 1843.67 -475.874 1862.63 -472 1882 c 0
 -470 1893 -467 1902 -465 1908 c 0
 -448 1971 -400 2031 -323 2086 c 0
 -278 2117 -234 2139 -189 2154 c 1
 -74 2036 l 1
 93 2154 l 1
 154 2132 200 2096 233 2046 c 0
 251.798 2016.68 260.985 1987.35 260.985 1958.88 c 0
 260.985 1949.48 259.985 1940.18 258 1931 c 2
 255 1918 l 1
EndSplineSet
Substitution: 0 65534 'low0' uni0E4A.low
Substitution: 0 65534 'amn0' uni0E4D
Substitution: 0 65534 'low0' uni0E4A.low
EndChar
StartChar: uni0E4B
Encoding: 192 3659 194
Width: 0
Flags: W
HStem: 1793 174<-172 -78 131 217>
VStem: -209 463<1793 1967>
Fore
217 1793 m 1
 94 1793 l 1
 68 1670 l 1
 -104 1670 l 1
 -78 1793 l 1
 -209 1793 l 1
 -172 1967 l 1
 -41 1967 l 1
 -13 2096 l 1
 159 2096 l 1
 131 1967 l 1
 254 1967 l 1
 217 1793 l 1
EndSplineSet
Substitution: 0 65534 'low0' uni0E4B.low
Substitution: 0 65534 'amn0' uni0E4D
Substitution: 0 65534 'low0' uni0E4B.low
EndChar
StartChar: uni0E4C
Encoding: 193 3660 195
Width: 0
Flags: W
HStem: 1621 548<-45 513>
Fore
513 2169 m 1
 480 2113 427 2060 353 2009 c 0
 299 1973 244 1947 188 1930 c 0
 165 1923 145 1919 128 1918 c 1
 158 1901 174 1867 174 1817 c 1
 170 1789 l 2
 164 1764 147 1734 121 1699 c 0
 93 1662 50 1637 -10 1625 c 0
 -17 1624 -29 1622 -45 1621 c 1
 -88 1624 l 2
 -143 1633 -183 1652 -206 1680 c 2
 -208 1683 l 2
 -226.714 1708.73 -236.307 1738.72 -236.307 1773.91 c 0
 -236.307 1783.85 -235.542 1794.21 -234 1805 c 2
 -229 1831 l 2
 -212 1890 -180 1936 -135 1969 c 0
 -95 1998 -25 2023 76 2044 c 0
 112 2051 139 2058 159 2063 c 0
 211 2079 257 2102 296 2133 c 0
 313 2147 326 2159 333 2169 c 1
 513 2169 l 1
-17 1857 m 0
 -45 1857 -68 1846 -86 1824 c 0
 -94 1815 -98 1804 -101 1793 c 0
 -101.562 1790.19 -101.844 1787.38 -101.844 1784.58 c 0
 -101.844 1772.45 -96.5625 1760.56 -86 1750 c 0
 -74 1739 -58 1733 -40 1733 c 1
 -6 1738 18 1752 31 1775 c 0
 35 1781 38 1788 40 1795 c 0
 41.1317 1800.47 41.6941 1805.58 41.6941 1810.34 c 0
 41.6941 1830.81 31.2847 1844.7 11 1852 c 0
 1 1855 -8 1857 -17 1857 c 0
EndSplineSet
Substitution: 0 65534 'low0' uni0E4C.low
Substitution: 0 65534 'low0' uni0E4C.low
EndChar
StartChar: uni0E4D
Encoding: 194 3661 196
Width: 0
Flags: W
Fore
164 1476 m 0
 180.531 1453 188.797 1426.9 188.797 1397.7 c 0
 188.797 1386.28 187.531 1374.38 185 1362 c 0
 175 1319 153 1283 116 1252 c 0
 79 1221 39 1206 -5 1206 c 0
 -48 1206 -82 1221 -106 1252 c 0
 -124.088 1274.43 -132.754 1300 -132.754 1328.33 c 0
 -132.754 1339.16 -131.488 1350.39 -129 1362 c 0
 -120 1405 -97 1443 -58 1476 c 0
 -21 1507 19 1522 63 1522 c 0
 106 1522 140 1507 164 1476 c 0
17 1310 m 0
 40 1310 59 1320 73 1340 c 0
 78 1348 81 1355 83 1362 c 0
 83.7846 1366.32 84.1845 1370.4 84.1845 1374.25 c 0
 84.1845 1390.05 77.4693 1401.96 63 1410 c 0
 55 1413 48 1415 40 1415 c 0
 17 1415 -1 1405 -16 1385 c 1
 -25 1366 l 1
 -25 1362 l 2
 -26.0417 1357.21 -26.5625 1352.76 -26.5625 1348.65 c 0
 -26.5625 1333.01 -19.0417 1322.12 -4 1315 c 0
 3 1312 10 1310 17 1310 c 0
EndSplineSet
Substitution: 0 65534 'hig0' uni0E4D.high
EndChar
StartChar: uni0E4E
Encoding: 195 3662 197
Width: 0
Flags: W
HStem: 1444 122<85.3285 172> 1675 129<78.316 188> 1909 127<98 233.881>
Fore
299 1885 m 1
 243 1900 189 1908 136 1909 c 2
 98 1907 l 2
 70 1902 53 1888 49 1866 c 0
 48.1399 1862.13 47.7114 1858.42 47.7114 1854.89 c 0
 47.7114 1833.74 63.0171 1818.57 93 1810 c 0
 108 1806 125 1804 145 1804 c 2
 215 1804 l 1
 188 1675 l 1
 123 1675 l 2
 45 1675 -1 1659 -14 1627 c 0
 -15 1625 -16 1622 -17 1617 c 1
 -17 1605 l 1
 -8 1585 28 1572 93 1567 c 0
 100 1566 109 1566 120 1566 c 2
 198 1566 l 1
 172 1444 l 1
 88 1444 l 2
 -12 1444 -87 1461 -138 1495 c 0
 -181.128 1523.75 -202.087 1556.79 -202.087 1594.73 c 0
 -202.087 1601.66 -201.389 1608.75 -200 1616 c 0
 -191 1656 -164 1691 -120 1722 c 0
 -106 1731 -92 1739 -79 1744 c 1
 -108.327 1766.91 -123.376 1799.06 -123.376 1838.91 c 0
 -123.376 1842.55 -123.251 1846.24 -123 1850 c 2
 -118 1884 l 2
 -105 1929 -77 1964 -33 1991 c 0
 16 2021 78 2036 154 2036 c 0
 208 2036 266 2028 326 2013 c 1
 299 1885 l 1
EndSplineSet
EndChar
StartChar: uni0E4F
Encoding: 196 3663 198
Width: 1250
Flags: W
HStem: -21 184<531.1 771.6> 258 148<659.97 752.254> 609 154<697.249 793.399> 852 188<677.1 918.9>
VStem: 192.087 187.58<351.22 495.211> 1071.55 186.556<525.278 666.22>
Fore
540 751 m 0
 459 683 408 602 388 507 c 0
 382.444 481.167 379.667 456.259 379.667 432.278 c 0
 379.667 369.926 398.444 313.833 436 264 c 0
 487 197 559 163 652 163 c 0
 744 163 831 197 913 264 c 0
 993 333 1043 414 1063 507 c 0
 1068.69 534.033 1071.55 560.013 1071.55 584.895 c 0
 1071.55 647.453 1053.49 703.065 1017 751 c 0
 964 818 891 852 798 852 c 0
 705 852 619 818 540 751 c 0
703 406 m 0
 733 406 758 416 780 435 c 0
 803 455 818 479 824 508 c 0
 825.774 516.573 826.674 524.71 826.674 532.435 c 0
 826.674 550.841 821.566 566.913 811 581 c 0
 797 600 776 609 746 609 c 0
 718 609 693 600 670 581 c 0
 648 562 634 537 628 508 c 0
 626.172 499.165 625.272 490.702 625.272 482.667 c 0
 625.272 464.325 629.96 448.212 639 435 c 0
 655 416 676 406 703 406 c 0
837 1040 m 0
 981 1040 1093 988 1173 884 c 0
 1229.74 808.591 1258.1 722.866 1258.1 626.826 c 0
 1258.1 589.139 1253.74 549.864 1245 509 c 0
 1214 364 1137 239 1013 134 c 0
 890 31 756 -21 612 -21 c 0
 468 -21 357 31 278 134 c 0
 220.975 209.071 192.087 295.083 192.087 392.037 c 0
 192.087 429.4 196.377 468.388 205 509 c 0
 236 655 314 780 438 884 c 0
 561 988 694 1040 837 1040 c 0
671 258 m 0
 598 258 542 282 504 330 c 0
 478.024 362.997 464.863 402.894 464.863 449 c 0
 464.863 468.566 467.233 489.25 472 511 c 0
 487 583 523 643 581 692 c 0
 640 739 706 763 778 763 c 0
 852 763 908 739 945 692 c 0
 972.099 657.77 985.467 617.438 985.467 570.64 c 0
 985.467 551.814 983.303 531.942 979 511 c 0
 963 437 926 377 868 330 c 0
 811 282 746 258 671 258 c 0
EndSplineSet
EndChar
StartChar: uni0E50
Encoding: 197 3664 199
Width: 1250
Flags: W
HStem: -10 240<598.9 725.203>
Fore
673 230 m 0
 741 230 803 255 859 305 c 0
 907 348 938 399 950 458 c 0
 953.879 476.362 955.819 493.788 955.819 510.312 c 0
 955.819 557.68 939.879 597.638 908 631 c 0
 873 668 827 686 770 686 c 0
 702 685 641 659 588 610 c 2
 559 580 l 2
 529 543 510 502 500 458 c 0
 496.001 438.806 493.992 420.535 493.992 403.208 c 0
 493.992 355.538 509.197 315.004 540 282 c 0
 572 247 616 230 673 230 c 0
620 -10 m 0
 496 -10 398 28 327 105 c 0
 266.496 170.546 235.651 251.627 235.651 348.243 c 0
 235.651 366.601 236.765 385.52 239 405 c 0
 241 422 243 439 247 458 c 0
 273 581 336 686 434 773 c 0
 534 860 648 910 777 922 c 0
 795 923 808 924 818 924 c 2
 883 921 l 2
 1011 908 1104 853 1164 756 c 0
 1201.17 695.783 1219.55 628.934 1219.55 555.452 c 0
 1219.55 530.091 1217.36 503.941 1213 477 c 2
 1209 458 l 2
 1185 343 1124 242 1026 153 c 0
 930 68 824 16 706 -3 c 0
 679 -8 651 -10 620 -10 c 0
EndSplineSet
EndChar
StartChar: uni0E51
Encoding: 198 3665 200
Width: 1300
Flags: W
HStem: -9 187<533.182 689.471> 603 84<735.878 810.02> 722 203<738.121 962.8>
VStem: 989 226.866<482.986 675.724>
Fore
989 524 m 0
 989 656 922 722 786 722 c 2
 779 722 l 2
 692 721 628 685 587 616 c 0
 572 590 562 566 558 544 c 0
 555.248 532.535 553.969 521.49 553.969 510.769 c 0
 553.969 498.114 555.752 485.91 559 474 c 0
 569 435 588 415 618 414 c 0
 627 414 637 417 648 422 c 1
 617 440 602 472 602 518 c 2
 606 550 l 2
 617 600 647 638 694 663 c 0
 706 670 718 674 729 677 c 0
 750 684 774 687 799 687 c 0
 828 687 853 683 873 675 c 0
 907 664 931 639 947 599 c 0
 953 585 956 570 957 553 c 0
 957.929 543.093 958.378 533.378 958.378 523.825 c 0
 958.378 502.521 956.143 482.022 952 462 c 0
 945 428 930 394 908 360 c 0
 855 281 783 231 694 211 c 0
 667 206 641 203 615 203 c 0
 516 203 437 236 379 302 c 0
 362 322 348 344 337 367 c 0
 325.712 392.398 320.158 422.893 320.158 458.845 c 0
 320.158 486.591 323.466 517.588 330 552 c 2
 346 609 l 2
 359 644 374 673 390 697 c 0
 484 829 606 904 757 921 c 0
 777 924 799 925 824 925 c 0
 939 924 1034 893 1108 832 c 0
 1143 802 1170 769 1187 733 c 0
 1190 725 1193 719 1194 715 c 0
 1208.52 675.351 1215.87 631.648 1215.87 583.89 c 0
 1215.87 546.128 1211.27 505.832 1202 463 c 0
 1178 347 1128 250 1054 172 c 0
 1052 170 1049 168 1046 164 c 0
 1043 162 1041 160 1041 159 c 1
 946 66 821 12 664 -4 c 0
 629 -7 598 -9 572 -9 c 0
 431 -8 321 23 244 84 c 0
 235 90 224 100 209 115 c 1
 344 292 l 1
 394 244 443 212 491 197 c 0
 525 187 560 181 596 178 c 2
 652 178 l 2
 738 183 810 214 867 270 c 0
 930 331 969 396 983 463 c 0
 988 484 990 505 989 524 c 0
701 545 m 0
 699.967 539.836 699.446 535.014 699.446 530.515 c 0
 699.446 513.233 707.131 500.728 723 492 c 0
 730 487 739 485 750 485 c 0
 781 485 804 500 818 529 c 0
 822 535 824 541 825 548 c 0
 825.976 552.1 826.457 556.009 826.457 559.728 c 0
 826.457 575.057 818.29 587.148 803 596 c 0
 795 601 785 603 773 603 c 0
 746 602 726 591 711 568 c 0
 706 560 702 552 701 545 c 0
EndSplineSet
EndChar
StartChar: uni0E52
Encoding: 199 3666 201
Width: 1350
Flags: W
HStem: 0 216<581.982 1050> 343 118<724.007 787.775>
VStem: 316 234<852.006 1134> 348.365 222.142<651.92 995.016> 1120.66 214.707<524.004 663.184>
Fore
709 513 m 0xc8
 704 490 711 474 730 465 c 0
 735 462 742 461 751 461 c 0
 777 461 796 473 809 496 c 0
 813 502 815 509 817 516 c 0
 821 537 813 552 793 559 c 0
 787 562 780 563 771 563 c 0
 746 562 727 551 715 530 c 1
 712 523 710 518 709 513 c 0xc8
545 0 m 2
 429 7 352 54 316 141 c 0xe8
 301.33 174.741 294.192 213.324 294.192 257.144 c 0
 294.192 273.065 295.134 289.678 297 307 c 2
 338 611 l 2
 344.894 680.305 348.365 747.371 348.365 812.248 c 0xd8
 348.365 926.166 337.663 1033.33 316 1134 c 1
 550 1134 l 1xe8
 563.76 1055.52 570.507 967.428 570.507 869.596 c 0xd8
 570.507 775.457 564.26 672.297 552 560 c 0
 537 439 529 363 528 334 c 0
 527.883 331.123 527.824 328.294 527.824 325.513 c 0
 527.824 280.945 542.938 248.884 574 231 c 0
 581 226 590 223 602 221 c 0
 623 218 646 216 673 216 c 2
 1050 217 l 1
 1112 506 l 2
 1117.67 534.8 1120.66 561.817 1120.66 587.261 c 0
 1120.66 615.709 1116.92 642.19 1109 667 c 0
 1104 683 1096 695 1085 702 c 1
 1085 701 1045 678 966 632 c 1
 867 702 l 1
 860 696 853 687 846 674 c 1
 872 668 895 651 915 624 c 0
 930.385 604 938.077 579.266 938.077 550.254 c 0
 938.077 541.55 937.385 532.462 936 523 c 2
 935 511 l 2
 926 468 902 429 864 394 c 0
 827 360 783 343 732 343 c 0
 649 343 597 369 578 420 c 0
 571.467 437.733 568.2 459.169 568.2 484.408 c 0
 568.2 513.253 572.467 547.067 581 586 c 0
 601 665 638 733 694 790 c 0
 722 819 767 851 827 885 c 0
 861 904 890 917 914 924 c 1
 914 923 946 892 1009 831 c 1
 1132 924 l 1
 1190 908 1240 867 1282 801 c 0
 1308 760 1325 720 1331 679 c 0
 1333.91 661.545 1335.36 642.769 1335.36 622.718 c 0
 1335.36 587.628 1330.91 548.636 1322 506 c 2
 1214 0 l 1
 545 0 l 2
EndSplineSet
EndChar
StartChar: uni0E53
Encoding: 200 3667 202
Width: 1400
Flags: W
HStem: -10 114<339 410>
VStem: 185.224 234.526<301.68 489.598>
Fore
350 138 m 1
 352 115 367 104 396 104 c 2
 410 105 l 1
 438 112 455 127 460 151 c 0
 465 176 457 192 435 197 c 1
 414 198 l 1
 411 197 406 196 400 195 c 0
 377 190 362 176 355 153 c 2
 350 138 l 1
214 108 m 0
 194.816 186.868 185.224 268.766 185.224 354.051 c 0
 185.224 388.797 186.816 424.105 190 460 c 0
 193 495 198 528 205 561 c 0
 244 743 332 857 471 903 c 0
 511 916 554 923 599 924 c 2
 656 922 l 2
 737 913 801 884 845 835 c 0
 856 824 866 809 873 792 c 1
 916 849 976 888 1054 909 c 0
 1089 919 1125 924 1163 924 c 0
 1336.75 924 1422.9 834.569 1422.9 656.187 c 0
 1422.9 606.648 1416.26 550.249 1403 487 c 0
 1387 412 1360 322 1320 217 c 0
 1294 148 1264 76 1229 0 c 1
 1000 0 l 1
 1072 165 1119 303 1143 415 c 0
 1152.71 460.981 1157.61 499.517 1157.61 530.609 c 0
 1157.61 595.536 1136.28 628 1093 628 c 0
 1019 628 964 589 927 510 c 0
 909 471 890 410 872 326 c 2
 850 216 l 1
 646 216 l 1
 668 320 681 386 686 414 c 0
 689.657 440.743 691.486 465.03 691.486 486.874 c 0
 691.486 560.597 670.657 606.486 629 625 c 0
 612 632 593 636 571 636 c 0
 495 636 448 593 429 506 c 0
 424 486 422 464 420 439 c 0
 419.833 433.833 419.75 428.5 419.75 423 c 0
 419.75 395.5 421.833 363.833 426 328 c 1
 440 331 452 333 463 333 c 0
 482 334 500 330 517 321 c 0
 528 316 538 309 547 300 c 0
 575.521 271.479 589.781 237.611 589.781 198.853 c 0
 589.781 187.33 588.521 175.375 586 163 c 0
 561 48 479 -10 339 -10 c 0
 275 -3 234 33 216 96 c 1
 216 99 215 103 214 108 c 0
EndSplineSet
EndChar
StartChar: uni0E54
Encoding: 201 3668 203
Width: 1550
Flags: W
HStem: -6 237<567.7 686.346> 557 135<1116.03 1191.71> 704 220<706 1285.9>
Fore
1778 1262 m 1
 1755 1164 1701 1063 1616 960 c 0
 1573 906 1530 863 1486 830 c 0
 1375 746 1237 704 1074 704 c 2
 814 704 l 2
 662 704 561 659 509 568 c 0
 492 540 479 505 470 462 c 0
 467.234 448.925 465.859 435.977 465.859 423.139 c 0
 465.859 384.92 478.046 347.68 502 311 c 0
 539 260 583 233 634 231 c 0
 683 231 789 252 950 295 c 2
 973 301 l 1
 950 322 934 345 924 368 c 0
 913.918 393.205 908.503 415.818 908.503 436.21 c 0
 908.503 444.135 909.321 451.724 911 459 c 0
 926 533 959 590 1010 631 c 0
 1061 672 1119 692 1183 692 c 0
 1247 692 1292 675 1318 642 c 0
 1339.81 612.925 1350.52 580.152 1350.52 543.297 c 0
 1350.52 529.448 1349 515.022 1346 500 c 0
 1334 442 1306 394 1263 357 c 0
 1229 328 1193 314 1155 313 c 1
 1179 302 1209 294 1245 289 c 0
 1254 288 1262 287 1270 284 c 0
 1334 267 1393 230 1447 173 c 1
 1253 -2 l 1
 1232 22 1207 41 1178 55 c 0
 1150 69 1106 76 1046 76 c 0
 1003 76 938 64 850 40 c 0
 738 9 648 -6 579 -6 c 0
 453 -6 356 40 287 132 c 0
 238.895 197.084 214.311 272.177 214.311 357.633 c 0
 214.311 392.974 218.516 430.089 227 469 c 0
 258 618 332 731 449 808 c 0
 566 885 706 924 868 924 c 2
 1114 924 l 2
 1326 924 1470 1037 1546 1262 c 1
 1778 1262 l 1
1126 424 m 0
 1144 424 1162 431 1179 444 c 0
 1195 456 1205 471 1209 489 c 0
 1210.12 494.042 1210.69 498.927 1210.69 503.677 c 0
 1210.69 515.885 1206.92 527.202 1199 538 c 0
 1189 551 1174 557 1154 557 c 0
 1136 557 1118 550 1102 537 c 0
 1087 524 1077 508 1073 489 c 0
 1071.86 483.857 1071.29 478.959 1071.29 474.306 c 0
 1071.29 462.673 1074.86 452.571 1082 444 c 0
 1093 431 1107 424 1126 424 c 0
EndSplineSet
EndChar
StartChar: uni0E55
Encoding: 202 3669 204
Width: 1550
Flags: W
HStem: -6 237<567.7 686.346> 557 135<1116.03 1191.71> 1057 129<980.023 1050.16>
Fore
814 922 m 1
 811.5 934.5 810.25 947 810.25 959.5 c 0
 810.25 972 811.5 984.5 814 997 c 0
 825 1048 853 1093 898 1130 c 0
 943 1167 992 1186 1045 1186 c 0
 1097 1186 1138 1167 1167 1130 c 0
 1188.81 1103.11 1199.52 1071.99 1199.52 1037.41 c 0
 1199.52 1024.41 1198 1010.93 1195 997 c 0
 1190 972 1180 948 1166 926 c 1
 1350 945 1477 1057 1546 1262 c 1
 1778 1262 l 1
 1755 1164 1701 1063 1616 960 c 0
 1573 906 1530 863 1486 830 c 0
 1375 746 1237 704 1074 704 c 2
 814 704 l 2
 662 704 561 659 509 568 c 0
 492 540 479 505 470 462 c 0
 467.234 448.925 465.859 435.977 465.859 423.139 c 0
 465.859 384.92 478.046 347.68 502 311 c 0
 539 260 583 233 634 231 c 0
 683 231 789 252 950 295 c 2
 973 301 l 1
 950 322 934 345 924 368 c 0
 913.918 393.205 908.503 415.818 908.503 436.21 c 0
 908.503 444.135 909.321 451.724 911 459 c 0
 926 533 959 590 1010 631 c 0
 1061 672 1119 692 1183 692 c 0
 1247 692 1292 675 1318 642 c 0
 1339.81 612.925 1350.52 580.152 1350.52 543.297 c 0
 1350.52 529.448 1349 515.022 1346 500 c 0
 1334 442 1306 394 1263 357 c 0
 1229 328 1193 314 1155 313 c 1
 1179 302 1209 294 1245 289 c 0
 1254 288 1262 287 1270 284 c 0
 1334 267 1393 230 1447 173 c 1
 1253 -2 l 1
 1232 22 1207 41 1178 55 c 0
 1150 69 1106 76 1046 76 c 0
 1003 76 938 64 850 40 c 0
 738 9 648 -6 579 -6 c 0
 453 -6 356 40 287 132 c 0
 238.895 197.084 214.311 272.177 214.311 357.633 c 0
 214.311 392.974 218.516 430.089 227 469 c 0
 258 618 332 731 449 808 c 0
 550 875 671 913 814 922 c 1
1126 424 m 0
 1144 424 1162 431 1179 444 c 0
 1195 456 1205 471 1209 489 c 0
 1210.12 494.042 1210.69 498.927 1210.69 503.677 c 0
 1210.69 515.885 1206.92 527.202 1199 538 c 0
 1189 551 1174 557 1154 557 c 0
 1136 557 1118 550 1102 537 c 0
 1087 524 1077 508 1073 489 c 0
 1069 471 1072 456 1082 444 c 0
 1093 431 1107 424 1126 424 c 0
992 937 m 0
 1007 937 1023 943 1039 955 c 0
 1053 966 1062 980 1065 995 c 0
 1066.17 1000.25 1066.74 1005.25 1066.74 1009.97 c 0
 1066.74 1021.41 1063.37 1031.21 1057 1039 c 0
 1047 1051 1034 1057 1018 1057 c 0
 1000 1057 984 1051 970 1039 c 0
 955 1028 945 1014 941 995 c 0
 940.347 991.517 940.026 988.177 940.026 984.968 c 0
 940.026 973.435 944.177 963.606 952 955 c 0
 961 943 975 937 992 937 c 0
EndSplineSet
EndChar
StartChar: uni0E56
Encoding: 203 3670 205
Width: 1300
Flags: W
HStem: -16 222<716 889.1> 465 129<615.169 685.618>
VStem: 1074.93 226.9<450.014 617.767>
Fore
668 900 m 1
 732 916 781 925 815 927 c 0
 823 928 834 928 850 928 c 0
 1010 928 1131 883 1212 792 c 0
 1272.14 726.789 1301.83 646.353 1301.83 551.072 c 0
 1301.83 514.853 1297.54 476.488 1289 436 c 0
 1260 301 1191 191 1082 108 c 0
 974 25 852 -16 716 -16 c 0
 605 -16 520 20 459 91 c 0
 414.796 144.194 392.484 203.563 392.484 269.527 c 0
 392.484 291.607 394.984 314.426 400 338 c 0
 416 413 450 475 503 522 c 0
 556 570 614 594 677 594 c 0
 729 594 770 575 799 538 c 0
 820.806 511.106 831.517 480.514 831.517 446.223 c 0
 831.517 433.338 830.004 419.93 827 406 c 0
 817 357 791 313 749 276 c 0
 736 265 721 254 703 244 c 1
 705 223 724 211 760 207 c 0
 763 206 768 206 776 206 c 0
 863 206 935 234 990 289 c 0
 1029 326 1054 373 1066 429 c 0
 1071.96 456.452 1074.93 481.866 1074.93 505.262 c 0
 1074.93 591.804 1034.29 650.725 954 683 c 2
 907 697 l 2
 874 704 839 708 803 708 c 0
 690 708 584 689 486 650 c 1
 430 931 368 1125 300 1232 c 0
 291 1247 284 1257 280 1262 c 1
 583 1262 l 1
 637 1135 665 1015 668 900 c 1
626 344 m 0
 643 344 659 350 674 362 c 0
 690 373 699 387 702 402 c 0
 703.143 407.143 703.714 412.041 703.714 416.694 c 0
 703.714 428.327 700.143 438.429 693 447 c 0
 682 459 669 465 652 465 c 0
 635 465 618 459 603 446 c 0
 588 435 578 421 574 402 c 0
 573.347 398.517 573.026 395.177 573.026 391.968 c 0
 573.026 380.435 577.177 370.606 585 362 c 0
 596 350 609 344 626 344 c 0
EndSplineSet
EndChar
